<?xml version="1.0" encoding="utf-8"?>
<!-- Generator: Adobe Illustrator 28.0.0, SVG Export Plug-In . SVG Version: 6.00 Build 0)  -->
<svg version="1.1" id="Layer_1" xmlns="http://www.w3.org/2000/svg" xmlns:xlink="http://www.w3.org/1999/xlink" x="0px" y="0px"
	 viewBox="0 0 1980 1980" style="enable-background:new 0 0 1980 1980;" xml:space="preserve">
<style type="text/css">
	.st0{fill:url(#SVGID_1_);}
	.st1{fill:#ED232A;}
	.st2{fill:#003876;}
	.st3{fill:#FFFFFF;}
</style>
<g>
	<linearGradient id="SVGID_1_" gradientUnits="userSpaceOnUse" x1="-1.574088e-02" y1="510.8268" x2="1980.0157" y2="510.8268">
		<stop  offset="0" style="stop-color:#FFFFFF"/>
		<stop  offset="1" style="stop-color:#A7A9AC"/>
	</linearGradient>
	<path class="st0" d="M1980,988.1c0,11.5-0.2,22.8-0.7,34.2H0V887.9C47.4,415.2,426.5,40.2,901.1-0.6h172.8
		C1581.6,43.1,1980,469.1,1980,988.1z"/>
	<path class="st1" d="M1979.3,1022.3c-17.9,532.3-455.2,958.3-991.9,958.3c-514.3,0-937.3-391.3-987.5-892.4v-66H1979.3z"/>
	<g>
		<g>
			<path class="st2" d="M919,503.1h150.9c1.4,0,2.5-1.1,2.5-2.5v-5.8c0-1.4-1.1-2.5-2.5-2.5H919c-1.4,0-2.5,1.1-2.5,2.5v5.8
				C916.5,502,917.6,503.1,919,503.1z"/>
			<path class="st2" d="M1025.4,395.5c-2.5,0-4.5,2-4.5,4.5v78.4c0,2.5,2,4.5,4.5,4.5h14.7c2.5,0,4.5-2,4.5-4.5V400
				c0-2.5-2-4.5-4.5-4.5H1025.4z"/>
			<path class="st2" d="M987.3,395.5c-2.5,0-4.5,2-4.5,4.5v78.4c0,2.5,2,4.5,4.5,4.5h14.7c2.5,0,4.5-2,4.5-4.5V400
				c0-2.5-2-4.5-4.5-4.5H987.3z"/>
			<path class="st2" d="M948.8,395.5c-2.5,0-4.5,2-4.5,4.5v78.4c0,2.5,2,4.5,4.5,4.5h14.7c2.5,0,4.5-2,4.5-4.5V400
				c0-2.5-2-4.5-4.5-4.5H948.8z"/>
			<path class="st2" d="M1016,535.9c-0.5-0.5-1.6-1.4-1.6-1.4V887l129.3,0.4c0,0,0-3.6,0-5.5C1143.6,731.7,1091.8,601.3,1016,535.9z
				"/>
			<path class="st2" d="M1282.3,885.9c-0.5-6.2-1.2-12.4-2-18.5c-3.5-35.5-12-83.5-31.5-131.4c-5.5-13.4-11.6-26.9-18.9-40
				c-1.8-3.3-3.8-6.4-5.7-9.7c-39.6-73.5-96.4-129.9-162.4-158.6l0,0c-0.1-0.1-0.2-0.1-0.2-0.1l0.5,0.6c0,0,18.9,18.2,35.7,44.5
				c41.4,64.7,69.7,140.5,79.5,234c4,38.9,3.8,69.5,3.5,61.8c0.2,5.5,0.4,14.4,0.5,17.5l-0.2,1.1h8.5l92.5-0.3v-0.1h0.5
				C1282.4,886.9,1282.3,886.2,1282.3,885.9z"/>
			<path class="st2" d="M919,389.1h150.9c1.4,0,2.5-1.1,2.5-2.5v-5.8c0-1.4-1.1-2.5-2.5-2.5H919c-1.4,0-2.5,1.1-2.5,2.5v5.8
				C916.5,388,917.6,389.1,919,389.1z"/>
			<path class="st2" d="M1138.3,528.6c4.9,3.6,10.6,8,16.9,13.1c14.4,11.9,26.5,24.2,37.5,35.7c35.8,37.8,55.7,73.7,75.2,112.1
				c10.8,21.3,17.8,41,24,58.6c1.2,3.3,11,30.5,17.2,61.6c7.3,36.4,11,77.2,11,77.2h55.8c0,0,0-0.4-0.1-0.9l2.2,0.8c0,0,0-0.3,0-0.4
				c-6.1-168.5-112.2-311.5-260.5-371.4c-0.2-0.1-0.6-0.2-0.6-0.2s5.6,2.9,12.3,7.5C1132,524.2,1135.1,526.3,1138.3,528.6z"/>
			<path class="st2" d="M1053,370.4c-0.3-33-25.8-59.8-57.3-60.3v-9.8h15.8v-1.7l0,0v-6c0-0.3-0.2-0.5-0.5-0.5h-2.4
				c-0.3,0-0.5,0.2-0.5,0.5v5.7h-12.5v-22.5h0.3c0.4,0,0.7-0.3,0.7-0.7v-6.2c0-0.4-0.3-0.7-0.7-0.7h-2.8c-0.4,0-0.7,0.3-0.7,0.7v6.2
				c0,0.4,0.3,0.7,0.7,0.7h0.4v22.5h-12.6v-5.7c0-0.3-0.2-0.5-0.5-0.5H978c-0.3,0-0.5,0.2-0.5,0.5v5.8l0,0v1.7h16v9.8
				c-31.7,0.6-57.2,27.4-57.3,60.6c0,0.1,0,0.3,0,0.3h116.8C1053,370.9,1053,370.5,1053,370.4z"/>
			<path class="st2" d="M891.8,572.8c16.8-26.3,35.7-44.5,35.7-44.5l0.5-0.6c0,0-0.2,0.1-0.2,0.2l0,0
				c-66,28.7-122.8,85.1-162.4,158.7c-1.9,3.2-3.8,6.3-5.7,9.6c-7.3,13.2-13.5,26.6-18.9,40c-19.5,47.9-27.9,95.7-31.5,131.3
				c-0.8,6.2-1.4,12.4-2,18.7c0,0.3-0.1,1-0.1,1h0.5v0.1l92.4,0.3h8.5l-0.2-1.1c0.1-3,0.3-12,0.5-17.5c-0.3,7.7-0.5-22.9,3.5-61.8
				C822.1,713.3,850.5,637.5,891.8,572.8z"/>
			<path class="st2" d="M1179.2,984.2c2.5,0,4.5-2,4.5-4.5v-34.1c0-2.5-2-4.5-4.5-4.5h-34.1c-2.5,0-4.5,2-4.5,4.5v34.1
				c0,2.5,2,4.5,4.5,4.5H1179.2z"/>
			<path class="st2" d="M1317.3,984.2c2.5,0,4.5-2,4.5-4.5v-34.1c0-2.5-2-4.5-4.5-4.5h-34.1c-2.5,0-4.5,2-4.5,4.5v34.1
				c0,2.5,2,4.5,4.5,4.5H1317.3z"/>
			<path class="st2" d="M1397.8,915.7h-1.9h-0.1h-74v-12.9c0-2.1-1.7-3.8-3.8-3.8h-35.6c-2.1,0-3.8,1.7-3.8,3.8v12.9h-94.8v-12.9
				c0-2.1-1.7-3.8-3.8-3.8h-35.6c-2.1,0-3.8,1.7-3.8,3.8v12.9h-124.3v-12.9c0-2.1-1.7-3.8-3.8-3.8h-35.6c-2.1,0-3.8,1.7-3.8,3.8
				v12.9H848.9v-12.9c0-2.1-1.7-3.8-3.8-3.8h-35.6c-2.1,0-3.8,1.7-3.8,3.8v12.9h-94.9v-12.9c0-2.1-1.7-3.8-3.8-3.8h-35.6
				c-2.1,0-3.8,1.7-3.8,3.8v12.9h-73.6h-0.1h-2c-1.4,0-2.5,1.1-2.5,2.5v6.8c0,1.4,1.1,2.5,2.5,2.5h806.1c1.4,0,2.5-1.1,2.5-2.5v-2.1
				v-2.7v-2C1400.4,916.9,1399.2,915.7,1397.8,915.7z"/>
			<path class="st2" d="M1011.8,984.1c2.5,0,4.5-2,4.5-4.5v-34.1c0-2.5-2-4.5-4.5-4.5h-34.1c-2.5,0-4.5,2-4.5,4.5v34.1
				c0,2.5,2,4.5,4.5,4.5H1011.8z"/>
			<path class="st2" d="M844.4,984.1c2.5,0,4.5-2,4.5-4.5v-34.1c0-2.5-2-4.5-4.5-4.5h-34.1c-2.5,0-4.5,2-4.5,4.5v34.1
				c0,2.5,2,4.5,4.5,4.5H844.4z"/>
			<path class="st2" d="M975.4,887.2V534.6c0,0-1.1,0.9-1.6,1.4c-75.9,65.3-127.7,195.8-127.7,346.1c0,1.8,0,5.5,0,5.5L975.4,887.2z
				"/>
			<path class="st2" d="M613.7,887.2h21.5l19.2,0.1v-0.1h15.2c0,0,3.7-40.8,11-77.2c6.2-31.1,16.1-58.2,17.2-61.6
				c6.2-17.6,13.2-37.4,24-58.6c19.5-38.3,39.3-74.2,75.2-112.1c10.9-11.5,23.1-23.8,37.5-35.7c6.2-5.1,11.9-9.5,16.8-13.1
				c3.2-2.2,6.3-4.4,9.1-6.2c6.8-4.6,12.3-7.5,12.3-7.5s-0.4,0.2-0.6,0.2c-148.4,59.9-254.4,203-260.5,371.5c0,0.1,0,0.4,0,0.4
				L613.7,887.2L613.7,887.2z"/>
			<path class="st2" d="M1395.8,994.3h-802c-2.5,0-4.5,2-4.5,4.5v19c0,2.5,2,4.5,4.5,4.5h802.1c2.5,0,4.5-2,4.5-4.5v-19
				C1400.3,996.3,1398.3,994.3,1395.8,994.3z"/>
			<path class="st2" d="M706.3,984.1c2.5,0,4.5-2,4.5-4.5v-34.1c0-2.5-2-4.5-4.5-4.5h-34.1c-2.5,0-4.5,2-4.5,4.5v34.1
				c0,2.5,2,4.5,4.5,4.5H706.3z"/>
		</g>
		<g>
			<path class="st3" d="M467.6,1331.7c-0.5,0-1-0.6-1.6-1.9c-0.5-1.3-0.7-2.4-0.7-3.4s0.3-1.6,0.8-1.9c8.5-1.2,14.7-2.8,18.7-5
				c4-2.2,6-6.1,6-11.6v-106.3c0-2.7-0.5-4.6-1.6-5.7c-1.1-1-2.8-1.6-5.5-1.6h-5.9c-19.9,0-32,4.7-36.3,14.1c-1.2,2.4-3.2,3.4-6,2.8
				c-2-0.4-2.8-1.4-2.4-2.9c2.4-9.9,4.1-18.5,5-25.9c0.1-1.9,0.6-3.1,1.6-3.4c1-0.3,2.6-0.3,4.9,0c9.1,0.9,29.1,1.5,59.8,1.5
				c34.2,0,56-0.5,65.7-1.5c2.4-0.3,4.2-0.3,5.4,0c1.2,0.3,1.5,1.5,0.8,3.4c-3.3,10.3-5.5,18.9-6.6,25.9c-0.3,1.9-1.5,2.8-3.6,2.8
				s-3.4-0.9-3.8-2.7c-2.2-9.4-12.2-14.1-30.1-14.2h-6.7c-5.6,0-8.4,2.4-8.4,7.1v106.3c0,5.5,2,9.3,6,11.5c4,2.2,10.3,3.9,18.8,5
				c0.5,0.3,0.8,0.9,0.8,2c0,1-0.2,2.2-0.7,3.5c-0.5,1.3-1.1,1.9-1.7,1.9h-73.2L467.6,1331.7z"/>
			<path class="st3" d="M759,1326.7c0.8,0,1.3,0.9,1.2,2.8s-0.5,3-1.3,3.3c-4.9,1.3-9.9,2-14.9,2.3c-5,0.3-10.3-0.8-15.9-3.5
				c-5.6-2.6-10.4-6.5-14.4-11.7l-33.1-42.6c-4.3-5.6-9.1-9.2-14.5-11s-12.3-2.7-20.9-2.8v41.7c0,6.8,2,11.6,5.9,14.1
				c3.9,2.5,10,4.3,18.2,5.3c0.4,0,0.6,0.6,0.6,1.9c0,1.3-0.2,2.5-0.5,3.8c-0.3,1.3-0.7,1.9-1.3,1.9h-65.3c-0.5,0-1.1-0.6-1.5-1.9
				c-0.4-1.3-0.6-2.5-0.6-3.8c0-1.3,0.3-1.9,0.8-1.9c5.9-0.8,10.3-2.6,13.3-5.5c3.1-2.8,4.5-7.5,4.5-13.9v-96.1
				c0-6.6-1.5-11.5-4.5-14.4c-3-2.9-7.5-5.3-13.3-6.8c-0.8-0.3-1.1-1.7-0.7-4.1c0.4-2.4,0.9-3.6,1.9-3.5c6.7,0.8,15,1.3,24.8,1.4
				c5.8,0,13.4-0.2,22.7-0.6c9.4-0.4,15.6-0.6,18.6-0.6c16.7,0,30,3.4,39.7,10.2c9.8,6.8,14.6,16.7,14.6,29.6
				c0,11.7-3.8,20.8-11.5,27.5s-16.6,10.3-26.8,10.8v1.1c4.3,0,8.2,1,11.8,3.3c3.6,2.2,7.8,6.2,12.5,12.1l32.1,40.3
				c5.8,7.2,11.8,10.8,18,10.8L759,1326.7z M651.4,1253.5c16.5,0,28.1-1.9,34.6-5.7c6.5-3.8,9.8-10.9,9.8-21.4
				c0-11-3.2-19.6-9.4-25.4c-6.2-5.9-14.3-8.8-24.3-8.8c-6.2,0-10.5,1.4-13,4c-2.5,2.6-3.8,7-3.8,13.3v44.4h6.2L651.4,1253.5z"/>
			<path class="st3" d="M938.5,1324.3c1.4,0.3,2,1.6,1.8,3.9s-0.9,3.5-2.2,3.5h-56.9c-1.4,0-2.1-1.2-2.2-3.5
				c-0.1-2.3,0.4-3.6,1.6-3.9c2.4-0.4,4.4-0.9,5.9-1.6c1.5-0.6,2.9-1.8,4.3-3.4c1.4-1.6,1.9-3.9,1.6-6.8c-0.3-2.9-1.4-6.6-3.3-11.1
				l-2.3-5.4c-0.9-2.4-2.3-4-4.1-4.6s-4.5-0.9-8.1-0.9h-43.9c-3.6,0-6.2,0.3-8,0.9c-1.8,0.6-3.2,2.2-4.2,4.6l-2.1,5.4
				c-1.9,4.4-3,8.1-3.1,11c-0.1,3,0.5,5.3,2,6.8c1.5,1.5,3,2.6,4.8,3.3c1.8,0.6,4.2,1.2,7.3,1.6c1.4,0.3,2,1.6,1.8,3.9
				s-1,3.5-2.5,3.5h-46.5c-1.3,0-2-1.2-2.2-3.5s0.3-3.6,1.7-3.9c4.9-0.8,8.9-2.7,11.9-5.6c3-2.8,6.3-8.6,10-17.2l36.5-83.6
				c7.3-16.5,10.9-28.5,10.9-36c0-0.7,2.5-1.7,7.6-2.7c5-1.1,7.8-1.3,8.1-0.5l52.5,122.6c3.7,8.6,7,14.4,10.1,17.5
				c3,3,6.8,4.9,11.5,5.7L938.5,1324.3z M872.8,1278.6c1.2,0,2.1-0.1,2.9-0.2c0.8-0.1,1.5-0.4,2-0.9s0.6-1.3,0.2-2.3l-25.2-60.2
				l-25.4,60.2c-0.5,1.3-0.3,2.1,0.7,2.6c1.1,0.5,2.5,0.7,4.3,0.7H873L872.8,1278.6z"/>
			<path class="st3" d="M1056.4,1249.5c10.6,0,19.9,3.6,27.7,10.6c7.8,7,11.7,16.3,11.7,27.8c0,13.4-5.5,24-16.5,32
				c-11,8-25.5,12-43.6,12c-3,0-8.7-0.2-17.1-0.6c-8.4-0.4-15.5-0.6-21.2-0.6c-14.6,0-25.9,0.4-33.8,1.3c-0.9,0.1-1.6-1-2-3.6
				c-0.4-2.5-0.2-3.9,0.6-4.2c4.3-1.2,7.4-2,9.1-2.5c1.8-0.5,4-1.6,6.6-3.1c2.6-1.5,4.4-3.5,5.4-5.9c0.9-2.4,1.4-5.6,1.4-9.5v-95.8
				c0-6.2-1.6-10.7-4.7-13.6c-3.2-2.8-7.6-4.9-13.4-6.3c-0.8-0.1-1.1-1.4-0.7-3.8c0.4-2.4,0.9-3.6,1.9-3.5c7,0.8,15.7,1.3,26,1.4
				c6.3,0,13.9-0.2,22.6-0.6s14.3-0.6,16.7-0.6c14.6,0,26.7,3.1,36.3,9.1c9.6,6.1,14.4,14.8,14.5,26.2c0.1,8.5-2.4,15.7-7.6,21.5
				s-11.7,9.5-19.6,11v1.4L1056.4,1249.5z M1034.7,1320.8c10.5,0,18.7-2.1,24.5-6.2c5.8-4.1,8.7-11.5,8.7-22
				c0-11.5-3.4-20.4-10-26.7c-6.6-6.3-15.2-9.5-25.8-9.5h-22.2v46.6c0,6.2,1.9,10.7,5.7,13.6
				C1019.4,1319.4,1025.8,1320.8,1034.7,1320.8L1034.7,1320.8z M1013.5,1194.9c-2.2,2.3-3.4,6.4-3.4,12.4v38.4h22.2
				c16.3,0,24.5-8.1,24.6-24.4c0-9.8-3-17.2-8.7-22.3c-5.8-5-13.4-7.6-22.7-7.6C1019.7,1191.5,1015.7,1192.6,1013.5,1194.9z"/>
			<path class="st3" d="M1283.1,1324.3c1.4,0.3,2,1.6,1.8,3.9s-0.9,3.5-2.2,3.5h-56.9c-1.4,0-2.1-1.2-2.2-3.5
				c-0.1-2.3,0.4-3.6,1.6-3.9c2.4-0.4,4.4-0.9,5.9-1.6c1.5-0.6,3-1.8,4.3-3.4c1.4-1.6,1.9-3.9,1.6-6.8c-0.3-2.9-1.4-6.6-3.3-11.1
				l-2.3-5.4c-0.9-2.4-2.3-4-4.1-4.6s-4.5-0.9-8.1-0.9h-43.9c-3.6,0-6.2,0.3-8,0.9c-1.8,0.6-3.1,2.2-4.2,4.6l-2.1,5.4
				c-1.9,4.4-3,8.1-3.1,11c-0.1,3,0.5,5.3,2,6.8c1.5,1.6,3,2.6,4.8,3.3c1.8,0.6,4.2,1.2,7.3,1.6c1.4,0.3,2,1.6,1.8,3.9
				c-0.2,2.3-1,3.5-2.5,3.5h-46.5c-1.3,0-2-1.2-2.2-3.5c-0.2-2.3,0.3-3.6,1.7-3.9c4.9-0.8,8.9-2.7,11.9-5.6c3-2.8,6.3-8.6,10-17.2
				l36.5-83.6c7.2-16.5,10.9-28.5,10.9-36c0-0.7,2.5-1.7,7.6-2.7c5-1.1,7.8-1.3,8.1-0.5l52.5,122.6c3.7,8.6,7,14.4,10.1,17.5
				c3,3,6.8,4.9,11.5,5.7L1283.1,1324.3z M1217.4,1278.6c1.2,0,2.1-0.1,3-0.2c0.8-0.1,1.5-0.4,2-0.9s0.6-1.3,0.2-2.3l-25.2-60.2
				l-25.4,60.2c-0.5,1.3-0.3,2.1,0.7,2.6c1,0.5,2.5,0.7,4.3,0.7h40.7L1217.4,1278.6z"/>
			<path class="st3" d="M1309.7,1377.8c-0.9,0-1.8-0.6-2.6-1.9c-0.8-1.3-1.3-2.4-1.4-3.5c-0.1-1,0.1-1.7,0.6-2
				c5.5-0.5,10.2-4,14.1-10.3c3.9-6.3,5.9-15.4,5.9-27.1v-126c0-6.8-1.6-11.6-4.7-14.2c-3.2-2.6-7.6-4.3-13.1-5
				c-0.5,0-0.8-0.6-0.8-1.8c0-1.2,0.2-2.3,0.6-3.4s0.9-1.6,1.5-1.6h59.1c0.5,0,1.1,0.5,1.5,1.6c0.4,1,0.6,2.2,0.6,3.4
				c0,1.2-0.3,1.7-0.8,1.7c-5.6,0.7-10,2.4-13.1,5c-3.2,2.6-4.7,7.3-4.7,14.2v126c0,10.3-5,20.4-15.1,30.3
				c-10.1,9.9-19.1,14.8-27.2,14.8L1309.7,1377.8z"/>
			<path class="st3" d="M1478.1,1335.1c-22.4,0-40.9-7.4-55.6-22.2c-14.7-14.8-22.1-33.4-22.1-55.8c0-22.2,7.3-41,21.8-56.5
				c14.5-15.5,33.3-23.1,56.5-23.1c22.6,0,41.2,7.3,55.8,22.1c14.6,14.7,22,33.2,22,55.6c0,22.4-7.3,41.3-21.8,56.8
				c-14.5,15.5-33.3,23.1-56.5,23.1H1478.1z M1486.1,1320.7c5.2,0,10.2-0.9,15-2.7c4.8-1.8,9.6-4.6,14.2-8.5
				c4.6-3.9,8.3-9.5,11-16.7c2.7-7.3,4.1-15.7,4.1-25.2c0-21.2-6.1-39.1-18.3-53.5s-26.3-21.7-42.3-21.7c-5.2,0-10.1,0.8-14.9,2.6
				c-4.8,1.8-9.5,4.6-14,8.5c-4.5,3.9-8.1,9.4-10.8,16.5c-2.7,7.2-4.1,15.6-4.1,25.2c0,21.4,6.1,39.2,18.3,53.6
				c12.2,14.4,26.3,21.7,42.2,21.7L1486.1,1320.7z"/>
		</g>
	</g>
</g>
</svg>
