<?xml version="1.0" encoding="UTF-8"?>
<svg xmlns="http://www.w3.org/2000/svg" version="1.1" xmlns:xlink="http://www.w3.org/1999/xlink" viewBox="0 0 1980 1980">
  <defs>
    <style>
      .cls-1 {
        fill: none;
        stroke: url(#linear-gradient);
        stroke-miterlimit: 10;
      }

      .cls-2 {
        fill: #c7f9cf;
      }

      .cls-3 {
        fill: #8de094;
      }

      .cls-4 {
        fill: #308a40;
      }
    </style>
    <linearGradient id="linear-gradient" x1="514" y1="1325.7" x2="1466" y2="1325.7" gradientUnits="userSpaceOnUse">
      <stop offset="0" stop-color="#fff"/>
      <stop offset="1" stop-color="#a7a9ac"/>
    </linearGradient>
  </defs>
  <!-- Generator: Adobe Illustrator 28.7.1, SVG Export Plug-In . SVG Version: 1.2.0 Build 142)  -->
  <g>
    <g id="Layer_1">
      <path class="cls-2" d="M1980,988.1c0,11.5-.2,22.8-.7,34.2-1.6,48.8-6.8,96.8-15.3,143.5-75.7,419.1-414.7,746.7-839.5,805.4-44.8,6.2-90.6,9.4-137.1,9.4C473.1,1980.6,50.1,1589.3,0,1088.2v-66h0v-134.3C47.4,415.2,426.5,40.2,901.1-.6h172.8c507.7,43.7,906.1,469.7,906.1,988.7Z"/>
      <path class="cls-3" d="M1964,1165.8c-75.7,419.1-414.7,746.7-839.5,805.4l-596-596,383.6-285.1-146.8-146.8,406.6-569.7,792.2,792.2Z"/>
      <path class="cls-4" d="M1343.6,676.9c0,195.3-158.3,353.6-353.6,353.6s-353.6-158.3-353.6-353.6,68.8-241.4,171.7-303.3h0c53.1-31.9,115.3-50.3,181.8-50.3s128.7,18.4,181.8,50.3h0c102.9,61.8,171.7,174.5,171.7,303.3Z"/>
      <path class="cls-1" d="M1465.4,1325.7c-105.4,149-279,246.2-475.4,246.2s-370-97.3-475.4-246.2c105.4-149,279-246.2,475.4-246.2s370,97.3,475.4,246.2Z"/>
      <path class="cls-4" d="M1515.8,1362.4c-116.5,164.8-308.6,272.3-525.8,272.3s-409.2-107.6-525.8-272.3c116.5-164.8,308.6-272.3,525.8-272.3s409.2,107.6,525.8,272.3Z"/>
      <path class="cls-4" d="M1106.3,342.9"/>
    </g>
  </g>
</svg>