<?xml version="1.0" encoding="utf-8"?>
<!-- Generator: Adobe Illustrator 28.0.0, SVG Export Plug-In . SVG Version: 6.00 Build 0)  -->
<svg version="1.1" id="Layer_1" xmlns="http://www.w3.org/2000/svg" xmlns:xlink="http://www.w3.org/1999/xlink" x="0px" y="0px"
	 viewBox="0 0 1980 1980" style="enable-background:new 0 0 1980 1980;" xml:space="preserve">
<style type="text/css">
	.st0{fill:#308A40;}
	.st1{fill:#FFCB04;}
	.st2{fill:url(#SVGID_1_);}
	.st3{fill:#ED232A;}
	.st4{fill:#003876;}
	.st5{fill:#FFFFFF;}
</style>
<rect x="-8.4" y="-8.9" class="st0" width="1997.8" height="1997.8"/>
<g>
	<circle class="st0" cx="990" cy="990" r="990"/>
	<circle class="st1" cx="990" cy="990" r="891"/>
	<g>
		
			<linearGradient id="SVGID_1_" gradientUnits="userSpaceOnUse" x1="620.01" y1="1652.005" x2="1361.25" y2="1652.005" gradientTransform="matrix(1 0 0 -1 0 1980)">
			<stop  offset="0" style="stop-color:#FFFFFF"/>
			<stop  offset="1" style="stop-color:#A7A9AC"/>
		</linearGradient>
		<path class="st2" d="M1361.2,506.7c0,4.3-0.1,8.6-0.3,12.8H620v-50.3c17.7-177,159.7-317.4,337.3-332.6h64.7
			C1212.1,152.9,1361.2,312.4,1361.2,506.7z"/>
		<path class="st3" d="M1361,519.5c-6.7,199.3-170.4,358.8-371.3,358.8c-192.5,0-350.9-146.5-369.7-334.1v-24.7H1361z"/>
		<g>
			<g>
				<path class="st4" d="M964.1,325.1h56.5c0.5,0,0.9-0.4,0.9-0.9V322c0-0.5-0.4-0.9-0.9-0.9h-56.5c-0.5,0-0.9,0.4-0.9,0.9v2.2
					C963.1,324.7,963.5,325.1,964.1,325.1z"/>
				<path class="st4" d="M1003.9,284.8c-0.9,0-1.7,0.8-1.7,1.7v29.4c0,0.9,0.8,1.7,1.7,1.7h5.5c0.9,0,1.7-0.8,1.7-1.7v-29.4
					c0-0.9-0.8-1.7-1.7-1.7H1003.9z"/>
				<path class="st4" d="M989.6,284.8c-0.9,0-1.7,0.8-1.7,1.7v29.4c0,0.9,0.8,1.7,1.7,1.7h5.5c0.9,0,1.7-0.8,1.7-1.7v-29.4
					c0-0.9-0.8-1.7-1.7-1.7H989.6z"/>
				<path class="st4" d="M975.2,284.8c-0.9,0-1.7,0.8-1.7,1.7v29.4c0,0.9,0.8,1.7,1.7,1.7h5.5c0.9,0,1.7-0.8,1.7-1.7v-29.4
					c0-0.9-0.8-1.7-1.7-1.7H975.2z"/>
				<path class="st4" d="M1000.4,337.4c-0.2-0.2-0.6-0.5-0.6-0.5v131.9l48.4,0.1c0,0,0-1.4,0-2.1
					C1048.1,410.7,1028.8,361.9,1000.4,337.4z"/>
				<path class="st4" d="M1100.1,468.4c-0.2-2.3-0.4-4.6-0.8-6.9c-1.3-13.3-4.5-31.2-11.8-49.2c-2.1-5-4.3-10.1-7.1-15
					c-0.7-1.2-1.4-2.4-2.1-3.6c-14.8-27.5-36.1-48.6-60.8-59.4l0,0c0,0-0.1,0-0.1,0l0.2,0.2c0,0,7.1,6.8,13.4,16.7
					c15.5,24.2,26.1,52.6,29.7,87.6c1.5,14.6,1.4,26,1.3,23.1c0.1,2.1,0.2,5.4,0.2,6.6l-0.1,0.4h3.2l34.6-0.1v0h0.2
					C1100.1,468.8,1100.1,468.5,1100.1,468.4z"/>
				<path class="st4" d="M964.1,282.4h56.5c0.5,0,0.9-0.4,0.9-0.9v-2.2c0-0.5-0.4-0.9-0.9-0.9h-56.5c-0.5,0-0.9,0.4-0.9,0.9v2.2
					C963.1,282,963.5,282.4,964.1,282.4z"/>
				<path class="st4" d="M1046.1,334.7c1.8,1.4,4,3,6.3,4.9c5.4,4.5,9.9,9.1,14.1,13.4c13.4,14.2,20.9,27.6,28.2,42
					c4.1,8,6.7,15.4,9,22c0.4,1.2,4.1,11.4,6.4,23.1c2.7,13.6,4.1,28.9,4.1,28.9h20.9c0,0,0-0.1,0-0.3l0.8,0.3c0,0,0-0.1,0-0.1
					c-2.3-63.1-42-116.6-97.5-139.1c-0.1,0-0.2-0.1-0.2-0.1s2.1,1.1,4.6,2.8C1043.8,333,1044.9,333.8,1046.1,334.7z"/>
				<path class="st4" d="M1014.2,275.4c-0.1-12.4-9.7-22.4-21.5-22.6v-3.7h5.9v-0.6l0,0v-2.2c0-0.1-0.1-0.2-0.2-0.2h-0.9
					c-0.1,0-0.2,0.1-0.2,0.2v2.1h-4.7V240h0.1c0.2,0,0.3-0.1,0.3-0.3v-2.3c0-0.1-0.1-0.3-0.3-0.3h-1c-0.2,0-0.3,0.1-0.3,0.3v2.3
					c0,0.1,0.1,0.3,0.3,0.3h0.2v8.4h-4.7v-2.1c0-0.1-0.1-0.2-0.2-0.2h-0.9c-0.1,0-0.2,0.1-0.2,0.2v2.2l0,0v0.6h6v3.7
					c-11.9,0.2-21.4,10.3-21.5,22.7c0,0,0,0.1,0,0.1h43.7C1014.2,275.6,1014.2,275.5,1014.2,275.4z"/>
				<path class="st4" d="M953.9,351.2c6.3-9.9,13.4-16.7,13.4-16.7l0.2-0.2c0,0-0.1,0-0.1,0.1l0,0c-24.7,10.8-46,31.8-60.8,59.4
					c-0.7,1.2-1.4,2.4-2.1,3.6c-2.7,4.9-5.1,10-7.1,15c-7.3,17.9-10.5,35.8-11.8,49.1c-0.3,2.3-0.5,4.6-0.8,7c0,0.1,0,0.4,0,0.4h0.2
					v0l34.6,0.1h3.2l-0.1-0.4c0-1.1,0.1-4.5,0.2-6.6c-0.1,2.9-0.2-8.6,1.3-23.1C927.8,403.8,938.4,375.4,953.9,351.2z"/>
				<path class="st4" d="M1061.4,505.2c0.9,0,1.7-0.8,1.7-1.7v-12.8c0-0.9-0.8-1.7-1.7-1.7h-12.8c-0.9,0-1.7,0.8-1.7,1.7v12.8
					c0,0.9,0.8,1.7,1.7,1.7H1061.4z"/>
				<path class="st4" d="M1113.2,505.2c0.9,0,1.7-0.8,1.7-1.7v-12.8c0-0.9-0.8-1.7-1.7-1.7h-12.8c-0.9,0-1.7,0.8-1.7,1.7v12.8
					c0,0.9,0.8,1.7,1.7,1.7H1113.2z"/>
				<path class="st4" d="M1143.3,479.5h-0.7h0h-27.7v-4.8c0-0.8-0.6-1.4-1.4-1.4h-13.3c-0.8,0-1.4,0.6-1.4,1.4v4.8h-35.5v-4.8
					c0-0.8-0.6-1.4-1.4-1.4h-13.3c-0.8,0-1.4,0.6-1.4,1.4v4.8h-46.5v-4.8c0-0.8-0.6-1.4-1.4-1.4h-13.3c-0.8,0-1.4,0.6-1.4,1.4v4.8
					h-46.5v-4.8c0-0.8-0.6-1.4-1.4-1.4H923c-0.8,0-1.4,0.6-1.4,1.4v4.8h-35.5v-4.8c0-0.8-0.6-1.4-1.4-1.4h-13.3
					c-0.8,0-1.4,0.6-1.4,1.4v4.8h-27.6h0h-0.8c-0.5,0-0.9,0.4-0.9,0.9v2.5c0,0.5,0.4,0.9,0.9,0.9h301.8c0.5,0,0.9-0.4,0.9-0.9v-0.8
					v-1v-0.8C1144.3,480,1143.8,479.5,1143.3,479.5z"/>
				<path class="st4" d="M998.8,505.2c0.9,0,1.7-0.8,1.7-1.7v-12.8c0-0.9-0.8-1.7-1.7-1.7H986c-0.9,0-1.7,0.8-1.7,1.7v12.8
					c0,0.9,0.8,1.7,1.7,1.7H998.8z"/>
				<path class="st4" d="M936.1,505.2c0.9,0,1.7-0.8,1.7-1.7v-12.8c0-0.9-0.8-1.7-1.7-1.7h-12.8c-0.9,0-1.7,0.8-1.7,1.7v12.8
					c0,0.9,0.8,1.7,1.7,1.7H936.1z"/>
				<path class="st4" d="M985.2,468.9v-132c0,0-0.4,0.3-0.6,0.5c-28.4,24.5-47.8,73.3-47.8,129.6c0,0.7,0,2.1,0,2.1L985.2,468.9z"/>
				<path class="st4" d="M849.8,468.9h8l7.2,0v0h5.7c0,0,1.4-15.3,4.1-28.9c2.3-11.6,6-21.8,6.4-23.1c2.3-6.6,4.9-14,9-22
					c7.3-14.4,14.7-27.8,28.2-42c4.1-4.3,8.7-8.9,14-13.4c2.3-1.9,4.5-3.6,6.3-4.9c1.2-0.8,2.4-1.6,3.4-2.3c2.5-1.7,4.6-2.8,4.6-2.8
					s-0.2,0.1-0.2,0.1c-55.5,22.4-95.2,76-97.5,139.1c0,0,0,0.1,0,0.1L849.8,468.9L849.8,468.9z"/>
				<path class="st4" d="M1142.6,509H842.3c-0.9,0-1.7,0.8-1.7,1.7v7.1c0,0.9,0.8,1.7,1.7,1.7h300.3c0.9,0,1.7-0.8,1.7-1.7v-7.1
					C1144.2,509.7,1143.5,509,1142.6,509z"/>
				<path class="st4" d="M884.4,505.2c0.9,0,1.7-0.8,1.7-1.7v-12.8c0-0.9-0.8-1.7-1.7-1.7h-12.8c-0.9,0-1.7,0.8-1.7,1.7v12.8
					c0,0.9,0.8,1.7,1.7,1.7H884.4z"/>
			</g>
			<g>
				<path class="st5" d="M795.1,635.3c-0.2,0-0.4-0.2-0.6-0.7c-0.2-0.5-0.3-0.9-0.3-1.3s0.1-0.6,0.3-0.7c3.2-0.5,5.5-1,7-1.9
					c1.5-0.8,2.2-2.3,2.2-4.3v-39.8c0-1-0.2-1.7-0.6-2.1c-0.4-0.4-1-0.6-2.1-0.6h-2.2c-7.5,0-12,1.8-13.6,5.3
					c-0.5,0.9-1.2,1.3-2.2,1c-0.8-0.2-1-0.5-0.9-1.1c0.9-3.7,1.5-6.9,1.9-9.7c0-0.7,0.2-1.2,0.6-1.3c0.4-0.1,1-0.1,1.8,0
					c3.4,0.3,10.9,0.6,22.4,0.6c12.8,0,21-0.2,24.6-0.6c0.9-0.1,1.6-0.1,2,0s0.6,0.6,0.3,1.3c-1.2,3.9-2.1,7.1-2.5,9.7
					c-0.1,0.7-0.6,1-1.3,1s-1.3-0.3-1.4-1c-0.8-3.5-4.6-5.3-11.3-5.3h-2.5c-2.1,0-3.2,0.9-3.2,2.7v39.8c0,2.1,0.8,3.5,2.2,4.3
					c1.5,0.8,3.9,1.5,7,1.9c0.2,0.1,0.3,0.3,0.3,0.8c0,0.4-0.1,0.8-0.3,1.3s-0.4,0.7-0.6,0.7h-27.4L795.1,635.3z"/>
				<path class="st5" d="M904.2,633.4c0.3,0,0.5,0.3,0.5,1c0,0.7-0.2,1.1-0.5,1.2c-1.8,0.5-3.7,0.8-5.6,0.9s-3.9-0.3-6-1.3
					c-2.1-1-3.9-2.4-5.4-4.4l-12.4-16c-1.6-2.1-3.4-3.5-5.4-4.1s-4.6-1-7.8-1v15.6c0,2.5,0.8,4.3,2.2,5.3c1.5,0.9,3.8,1.6,6.8,2
					c0.2,0,0.2,0.2,0.2,0.7c0,0.5-0.1,0.9-0.2,1.4c-0.1,0.5-0.3,0.7-0.5,0.7h-24.5c-0.2,0-0.4-0.2-0.6-0.7s-0.2-0.9-0.2-1.4
					c0-0.5,0.1-0.7,0.3-0.7c2.2-0.3,3.9-1,5-2.1c1.2-1,1.7-2.8,1.7-5.2v-36c0-2.5-0.6-4.3-1.7-5.4c-1.1-1.1-2.8-2-5-2.5
					c-0.3-0.1-0.4-0.6-0.3-1.5c0.2-0.9,0.3-1.3,0.7-1.3c2.5,0.3,5.6,0.5,9.3,0.5c2.2,0,5-0.1,8.5-0.2c3.5-0.2,5.8-0.2,7-0.2
					c6.3,0,11.2,1.3,14.9,3.8c3.7,2.5,5.5,6.3,5.5,11.1c0,4.4-1.4,7.8-4.3,10.3c-2.9,2.5-6.2,3.9-10,4v0.4c1.6,0,3.1,0.4,4.4,1.2
					c1.3,0.8,2.9,2.3,4.7,4.5l12,15.1c2.2,2.7,4.4,4,6.7,4L904.2,633.4z M863.9,606c6.2,0,10.5-0.7,13-2.1c2.4-1.4,3.7-4.1,3.7-8
					c0-4.1-1.2-7.3-3.5-9.5c-2.3-2.2-5.4-3.3-9.1-3.3c-2.3,0-3.9,0.5-4.9,1.5s-1.4,2.6-1.4,5v16.6h2.3L863.9,606z"/>
				<path class="st5" d="M971.4,632.5c0.5,0.1,0.8,0.6,0.7,1.5c-0.1,0.9-0.3,1.3-0.8,1.3h-21.3c-0.5,0-0.8-0.5-0.8-1.3
					c0-0.9,0.2-1.3,0.6-1.5c0.9-0.2,1.7-0.3,2.2-0.6c0.6-0.2,1.1-0.7,1.6-1.3c0.5-0.6,0.7-1.5,0.6-2.5c-0.1-1.1-0.5-2.5-1.2-4.2
					l-0.9-2c-0.3-0.9-0.9-1.5-1.5-1.7c-0.7-0.2-1.7-0.3-3-0.3H931c-1.3,0-2.3,0.1-3,0.3c-0.7,0.2-1.2,0.8-1.6,1.7l-0.8,2
					c-0.7,1.7-1.1,3-1.2,4.1c0,1.1,0.2,2,0.8,2.5s1.1,1,1.8,1.2c0.7,0.2,1.6,0.5,2.7,0.6c0.5,0.1,0.8,0.6,0.7,1.5
					c-0.1,0.9-0.4,1.3-0.9,1.3h-17.4c-0.5,0-0.8-0.5-0.8-1.3s0.1-1.3,0.6-1.5c1.8-0.3,3.3-1,4.5-2.1c1.1-1,2.4-3.2,3.8-6.4
					l13.7-31.3c2.7-6.2,4.1-10.7,4.1-13.5c0-0.3,0.9-0.6,2.8-1c1.9-0.4,2.9-0.5,3-0.2l19.7,45.9c1.4,3.2,2.6,5.4,3.8,6.6
					c1.1,1.1,2.5,1.8,4.3,2.1L971.4,632.5z M946.8,615.4c0.5,0,0.8,0,1.1-0.1c0.3,0,0.6-0.2,0.8-0.3s0.2-0.5,0.1-0.9l-9.4-22.5
					l-9.5,22.5c-0.2,0.5-0.1,0.8,0.3,1c0.4,0.2,0.9,0.3,1.6,0.3L946.8,615.4L946.8,615.4z"/>
				<path class="st5" d="M1015.5,604.5c4,0,7.5,1.3,10.4,4c2.9,2.6,4.4,6.1,4.4,10.4c0,5-2.1,9-6.2,12s-9.5,4.5-16.3,4.5
					c-1.1,0-3.3-0.1-6.4-0.2s-5.8-0.2-7.9-0.2c-5.5,0-9.7,0.2-12.7,0.5c-0.3,0-0.6-0.4-0.8-1.3c-0.2-0.9-0.1-1.5,0.2-1.6
					c1.6-0.5,2.8-0.8,3.4-0.9c0.7-0.2,1.5-0.6,2.5-1.2s1.7-1.3,2-2.2c0.3-0.9,0.5-2.1,0.5-3.6v-35.8c0-2.3-0.6-4-1.8-5.1
					c-1.2-1-2.8-1.8-5-2.4c-0.3,0-0.4-0.5-0.3-1.4c0.2-0.9,0.3-1.3,0.7-1.3c2.6,0.3,5.9,0.5,9.7,0.5c2.4,0,5.2-0.1,8.5-0.2
					c3.3-0.2,5.4-0.2,6.3-0.2c5.5,0,10,1.2,13.6,3.4c3.6,2.3,5.4,5.5,5.4,9.8c0,3.2-0.9,5.9-2.8,8s-4.4,3.6-7.3,4.1v0.5
					L1015.5,604.5z M1007.4,631.2c3.9,0,7-0.8,9.2-2.3s3.3-4.3,3.3-8.2c0-4.3-1.3-7.6-3.8-10c-2.5-2.4-5.7-3.6-9.7-3.6h-8.3v17.5
					c0,2.3,0.7,4,2.1,5.1C1001.6,630.7,1004,631.2,1007.4,631.2L1007.4,631.2L1007.4,631.2z M999.4,584.1c-0.8,0.9-1.3,2.4-1.3,4.7
					v14.4h8.3c6.1,0,9.2-3,9.2-9.1c0-3.7-1.1-6.4-3.3-8.3c-2.2-1.9-5-2.8-8.5-2.8C1001.7,582.8,1000.2,583.2,999.4,584.1z"/>
				<path class="st5" d="M1100.4,632.5c0.5,0.1,0.8,0.6,0.7,1.5c-0.1,0.9-0.3,1.3-0.8,1.3h-21.3c-0.5,0-0.8-0.5-0.8-1.3
					c0-0.9,0.2-1.3,0.6-1.5c0.9-0.2,1.7-0.3,2.2-0.6c0.6-0.2,1.1-0.7,1.6-1.3c0.5-0.6,0.7-1.5,0.6-2.5c-0.1-1.1-0.5-2.5-1.2-4.2
					l-0.9-2c-0.3-0.9-0.9-1.5-1.5-1.7c-0.7-0.2-1.7-0.3-3-0.3H1060c-1.3,0-2.3,0.1-3,0.3c-0.7,0.2-1.2,0.8-1.6,1.7l-0.8,2
					c-0.7,1.7-1.1,3-1.2,4.1c0,1.1,0.2,2,0.8,2.5c0.6,0.6,1.1,1,1.8,1.2c0.7,0.2,1.6,0.5,2.7,0.6c0.5,0.1,0.8,0.6,0.7,1.5
					s-0.4,1.3-0.9,1.3h-17.4c-0.5,0-0.8-0.5-0.8-1.3s0.1-1.3,0.6-1.5c1.8-0.3,3.3-1,4.5-2.1c1.1-1,2.4-3.2,3.8-6.4l13.7-31.3
					c2.7-6.2,4.1-10.7,4.1-13.5c0-0.3,0.9-0.6,2.8-1c1.9-0.4,2.9-0.5,3-0.2l19.7,45.9c1.4,3.2,2.6,5.4,3.8,6.6
					c1.1,1.1,2.6,1.8,4.3,2.1L1100.4,632.5z M1075.8,615.4c0.4,0,0.8,0,1.1-0.1c0.3,0,0.6-0.2,0.8-0.3s0.2-0.5,0.1-0.9l-9.4-22.5
					l-9.5,22.5c-0.2,0.5-0.1,0.8,0.3,1c0.4,0.2,0.9,0.3,1.6,0.3h15.2L1075.8,615.4z"/>
				<path class="st5" d="M1110.3,652.5c-0.3,0-0.7-0.2-1-0.7s-0.5-0.9-0.5-1.3c0-0.4,0-0.6,0.2-0.8c2.1-0.2,3.8-1.5,5.3-3.9
					c1.5-2.4,2.2-5.8,2.2-10.2v-47.2c0-2.5-0.6-4.3-1.8-5.3c-1.2-1-2.8-1.6-4.9-1.9c-0.2,0-0.3-0.2-0.3-0.7s0.1-0.9,0.2-1.3
					c0.2-0.4,0.3-0.6,0.6-0.6h22.1c0.2,0,0.4,0.2,0.6,0.6c0.2,0.4,0.2,0.8,0.2,1.3s-0.1,0.6-0.3,0.6c-2.1,0.3-3.8,0.9-4.9,1.9
					c-1.2,1-1.8,2.7-1.8,5.3v47.2c0,3.9-1.9,7.6-5.7,11.3c-3.8,3.7-7.2,5.5-10.2,5.5L1110.3,652.5z"/>
				<path class="st5" d="M1173.3,636.6c-8.4,0-15.3-2.8-20.8-8.3c-5.5-5.5-8.3-12.5-8.3-20.9c0-8.3,2.7-15.4,8.2-21.2
					c5.4-5.8,12.5-8.7,21.2-8.7c8.5,0,15.4,2.7,20.9,8.3c5.5,5.5,8.2,12.4,8.2,20.8s-2.7,15.5-8.2,21.3
					C1189.1,633.8,1182.1,636.6,1173.3,636.6L1173.3,636.6L1173.3,636.6z M1176.3,631.2c1.9,0,3.8-0.3,5.6-1s3.6-1.7,5.3-3.2
					s3.1-3.6,4.1-6.3c1-2.7,1.5-5.9,1.5-9.4c0-7.9-2.3-14.7-6.9-20s-9.8-8.1-15.8-8.1c-1.9,0-3.8,0.3-5.6,1
					c-1.8,0.7-3.6,1.7-5.2,3.2c-1.7,1.5-3,3.5-4.1,6.2c-1,2.7-1.5,5.8-1.5,9.4c0,8,2.3,14.7,6.9,20.1c4.6,5.4,9.8,8.1,15.8,8.1
					L1176.3,631.2z"/>
			</g>
		</g>
	</g>
	<g>
		<g>
			<polygon class="st0" points="606.4,334.1 222.8,1317.9 990,1317.9 			"/>
			<rect x="482.6" y="952.9" class="st0" width="247.5" height="693"/>
		</g>
		<g>
			<polygon class="st0" points="1373.6,334.1 990,1317.9 1757.2,1317.9 			"/>
			<rect x="1249.9" y="952.9" class="st0" width="247.5" height="693"/>
		</g>
	</g>
</g>
</svg>
