<?xml version="1.0" encoding="utf-8"?>
<!-- Generator: Adobe Illustrator 28.0.0, SVG Export Plug-In . SVG Version: 6.00 Build 0)  -->
<svg version="1.1" id="Layer_1" xmlns:serif="http://www.serif.com/"
	 xmlns="http://www.w3.org/2000/svg" xmlns:xlink="http://www.w3.org/1999/xlink" x="0px" y="0px" viewBox="0 0 1920 768"
	 style="enable-background:new 0 0 1920 768;" xml:space="preserve">
<style type="text/css">
	.st0{fill-rule:evenodd;clip-rule:evenodd;fill:#2F925B;}
	.st1{fill-rule:evenodd;clip-rule:evenodd;fill:#71C21B;fill-opacity:0.25;}
</style>
<g transform="matrix(1,0,0,1,-227.59,-88.3387)">
	<path class="st0" d="M1607.7-20.6c433.3,54.4,494.6,252.3,494.6,378.5s-127.7,267.8-494.6,378.5
		c-225.8,68.1-363.7-182.3-460.2-367.6C976,39,1199.2-71.9,1607.7-20.6z"/>
</g>
<g transform="matrix(1.13796,0,0,1.11398,-305.064,-127.863)">
	<path class="st1" d="M1481.5-22.5c425.6,98,494.6,252.3,494.6,378.5s-117,312.9-494.6,378.5c-201.6,35-360.8-188.3-460.1-367.5
		C809.1-16.6,1053.4-121.2,1481.5-22.5z"/>
</g>
<path class="st1" d="M528.8,216.4c0-66.8-54.2-121-121-121s-121,54.2-121,121s54.2,121,121,121c22,0,42.7-5.9,60.5-16.2
	c6,5.3,13.9,8.5,22.6,8.5c18.9,0,34.2-15.3,34.2-34.2c0-9.2-3.7-17.6-9.6-23.8C524,255.1,528.8,236.3,528.8,216.4z M490.8,314.7
	c-3.4,0-6.6-0.9-9.3-2.4c-4.5-2.5-8-6.8-9.3-11.9c-0.4-1.6-0.6-3.2-0.6-4.9c0-10.6,8.6-19.3,19.3-19.3c1.4,0,2.7,0.1,4,0.4
	c5.2,1.1,9.7,4.3,12.4,8.7c1.8,3,2.9,6.4,2.9,10.1C510.1,306.1,501.5,314.7,490.8,314.7z M502.7,263.3c-3.7-1.4-7.7-2.1-11.8-2.1
	c-18.9,0-34.2,15.3-34.2,34.2c0,4.8,1,9.3,2.7,13.4c-15.2,8.5-32.8,13.4-51.5,13.4c-58.5,0-105.8-47.4-105.8-105.8
	s47.4-105.8,105.8-105.8S513.6,158,513.6,216.4C513.6,233.3,509.7,249.2,502.7,263.3z"/>
</svg>
