<?xml version="1.0" encoding="utf-8"?>
<!-- Generator: Adobe Illustrator 28.0.0, SVG Export Plug-In . SVG Version: 6.00 Build 0)  -->
<svg version="1.1" id="Layer_1" xmlns="http://www.w3.org/2000/svg" xmlns:xlink="http://www.w3.org/1999/xlink" x="0px" y="0px"
	 viewBox="0 0 1980 1980" style="enable-background:new 0 0 1980 1980;" xml:space="preserve">
<style type="text/css">
	.st0{fill:#308A40;}
	.st1{fill:#FFCB04;}
	.st2{fill:url(#SVGID_1_);}
	.st3{fill:#ED232A;}
	.st4{fill:#003876;}
	.st5{fill:#FFFFFF;}
</style>
<g>
	<circle class="st0" cx="990" cy="990" r="990"/>
	<circle class="st1" cx="990" cy="990" r="891"/>
	<g>
		<linearGradient id="SVGID_1_" gradientUnits="userSpaceOnUse" x1="620.0119" y1="327.9933" x2="1361.25" y2="327.9933">
			<stop  offset="0" style="stop-color:#FFFFFF"/>
			<stop  offset="1" style="stop-color:#A7A9AC"/>
		</linearGradient>
		<path class="st2" d="M1361.25,506.67c0,4.3-0.09,8.55-0.26,12.8H620.01v-50.3c17.74-176.98,159.67-317.35,337.33-332.65h64.69
			C1212.11,152.89,1361.25,312.38,1361.25,506.67z"/>
		<path class="st3" d="M1360.99,519.47c-6.7,199.27-170.4,358.76-371.31,358.76c-192.53,0-350.9-146.48-369.67-334.06v-24.7H1360.99
			z"/>
		<g>
			<g>
				<path class="st4" d="M964.06,325.1h56.49c0.52,0,0.94-0.41,0.94-0.94V322c0-0.52-0.41-0.94-0.94-0.94h-56.49
					c-0.52,0-0.94,0.41-0.94,0.94v2.17C963.12,324.69,963.53,325.1,964.06,325.1z"/>
				<path class="st4" d="M1003.88,284.84c-0.94,0-1.69,0.75-1.69,1.69v29.37c0,0.94,0.75,1.69,1.69,1.69h5.51
					c0.94,0,1.69-0.75,1.69-1.69v-29.37c0-0.94-0.75-1.69-1.69-1.69H1003.88z"/>
				<path class="st4" d="M989.61,284.84c-0.94,0-1.69,0.75-1.69,1.69v29.37c0,0.94,0.75,1.69,1.69,1.69h5.51
					c0.94,0,1.69-0.75,1.69-1.69v-29.37c0-0.94-0.75-1.69-1.69-1.69H989.61z"/>
				<path class="st4" d="M975.22,284.84c-0.94,0-1.69,0.75-1.69,1.69v29.37c0,0.94,0.75,1.69,1.69,1.69h5.51
					c0.94,0,1.69-0.75,1.69-1.69v-29.37c0-0.94-0.75-1.69-1.69-1.69H975.22z"/>
				<path class="st4" d="M1000.36,337.39c-0.19-0.19-0.6-0.52-0.6-0.52V468.8l48.4,0.15c0,0,0-1.35,0-2.06
					C1048.12,410.66,1028.75,361.85,1000.36,337.39z"/>
				<path class="st4" d="M1100.07,468.39c-0.19-2.32-0.45-4.64-0.75-6.93c-1.31-13.3-4.5-31.24-11.8-49.18
					c-2.06-5.02-4.35-10.08-7.08-14.98c-0.67-1.24-1.42-2.4-2.14-3.63c-14.83-27.53-36.07-48.62-60.8-59.37l0,0
					c-0.04-0.04-0.07-0.04-0.07-0.04l0.19,0.22c0,0,7.08,6.82,13.37,16.67c15.51,24.24,26.11,52.59,29.74,87.62
					c1.5,14.57,1.42,26.03,1.31,23.15c0.07,2.06,0.15,5.39,0.19,6.56l-0.07,0.41h3.18l34.61-0.11v-0.04h0.19
					C1100.11,468.76,1100.07,468.5,1100.07,468.39z"/>
				<path class="st4" d="M964.06,282.44h56.49c0.52,0,0.94-0.41,0.94-0.94v-2.17c0-0.52-0.41-0.94-0.94-0.94h-56.49
					c-0.52,0-0.94,0.41-0.94,0.94v2.17C963.12,282.03,963.53,282.44,964.06,282.44z"/>
				<path class="st4" d="M1046.13,334.66c1.84,1.35,3.97,3,6.33,4.91c5.39,4.46,9.93,9.07,14.05,13.37
					c13.41,14.16,20.86,27.61,28.17,41.95c4.05,7.98,6.67,15.36,8.99,21.95c0.45,1.24,4.12,11.43,6.44,23.07
					c2.73,13.64,4.12,28.92,4.12,28.92h20.9c0,0,0-0.15-0.04-0.34l0.82,0.3c0,0,0-0.11,0-0.15
					c-2.29-63.08-41.99-116.61-97.51-139.05c-0.07-0.04-0.22-0.07-0.22-0.07s2.1,1.09,4.61,2.81
					C1043.77,333.01,1044.93,333.8,1046.13,334.66z"/>
				<path class="st4" d="M1014.22,275.43c-0.11-12.36-9.66-22.4-21.46-22.59v-3.67h5.92v-0.64l0,0v-2.25c0-0.11-0.07-0.19-0.19-0.19
					h-0.9c-0.11,0-0.19,0.07-0.19,0.19v2.14h-4.68V240h0.11c0.15,0,0.26-0.11,0.26-0.26v-2.32c0-0.15-0.11-0.26-0.26-0.26h-1.05
					c-0.15,0-0.26,0.11-0.26,0.26v2.32c0,0.15,0.11,0.26,0.26,0.26h0.15v8.43h-4.72v-2.14c0-0.11-0.07-0.19-0.19-0.19h-0.9
					c-0.11,0-0.19,0.07-0.19,0.19v2.17l0,0v0.64h5.99v3.67c-11.87,0.22-21.43,10.26-21.46,22.7c0,0.04,0,0.11,0,0.11h43.72
					C1014.22,275.62,1014.22,275.47,1014.22,275.43z"/>
				<path class="st4" d="M953.87,351.18c6.29-9.85,13.37-16.67,13.37-16.67l0.19-0.22c0,0-0.07,0.04-0.07,0.07l0,0
					c-24.72,10.75-45.96,31.84-60.8,59.41c-0.71,1.2-1.42,2.36-2.14,3.6c-2.73,4.94-5.06,9.96-7.08,14.98
					c-7.3,17.94-10.45,35.81-11.8,49.15c-0.3,2.32-0.52,4.64-0.75,7c0,0.11-0.04,0.37-0.04,0.37h0.19v0.04l34.58,0.11h3.18
					l-0.07-0.41c0.04-1.12,0.11-4.5,0.19-6.56c-0.11,2.88-0.19-8.58,1.31-23.15C927.76,403.81,938.4,375.41,953.87,351.18z"/>
				<path class="st4" d="M1061.45,505.21c0.94,0,1.69-0.75,1.69-1.69v-12.77c0-0.94-0.75-1.69-1.69-1.69h-12.77
					c-0.94,0-1.69,0.75-1.69,1.69v12.77c0,0.94,0.75,1.69,1.69,1.69H1061.45z"/>
				<path class="st4" d="M1113.15,505.21c0.94,0,1.69-0.75,1.69-1.69v-12.77c0-0.94-0.75-1.69-1.69-1.69h-12.77
					c-0.94,0-1.69,0.75-1.69,1.69v12.77c0,0.94,0.75,1.69,1.69,1.69H1113.15z"/>
				<path class="st4" d="M1143.3,479.55h-0.71h-0.04h-27.72v-4.83c0-0.79-0.64-1.42-1.42-1.42h-13.34c-0.79,0-1.42,0.64-1.42,1.42
					v4.83h-35.47v-4.83c0-0.79-0.64-1.42-1.42-1.42h-13.34c-0.79,0-1.42,0.64-1.42,1.42v4.83h-46.52v-4.83
					c0-0.79-0.64-1.42-1.42-1.42h-13.34c-0.79,0-1.42,0.64-1.42,1.42v4.83H937.8v-4.83c0-0.79-0.64-1.42-1.42-1.42h-13.34
					c-0.79,0-1.42,0.64-1.42,1.42v4.83h-35.51v-4.83c0-0.79-0.64-1.42-1.42-1.42h-13.34c-0.79,0-1.42,0.64-1.42,1.42v4.83h-27.57
					h-0.04h-0.75c-0.52,0-0.94,0.41-0.94,0.94v2.55c0,0.52,0.41,0.94,0.94,0.94h301.77c0.52,0,0.94-0.41,0.94-0.94v-0.79v-1.01
					v-0.75C1144.28,480,1143.83,479.55,1143.3,479.55z"/>
				<path class="st4" d="M998.78,505.17c0.94,0,1.69-0.75,1.69-1.69v-12.77c0-0.94-0.75-1.69-1.69-1.69h-12.77
					c-0.94,0-1.69,0.75-1.69,1.69v12.77c0,0.94,0.75,1.69,1.69,1.69H998.78z"/>
				<path class="st4" d="M936.11,505.17c0.94,0,1.69-0.75,1.69-1.69v-12.77c0-0.94-0.75-1.69-1.69-1.69h-12.77
					c-0.94,0-1.69,0.75-1.69,1.69v12.77c0,0.94,0.75,1.69,1.69,1.69H936.11z"/>
				<path class="st4" d="M985.15,468.87V336.9c0,0-0.41,0.34-0.6,0.52c-28.43,24.46-47.8,73.31-47.8,129.57c0,0.67,0,2.06,0,2.06
					L985.15,468.87z"/>
				<path class="st4" d="M849.77,468.87h8.05l7.19,0.04v-0.04h5.69c0,0,1.39-15.28,4.12-28.92c2.32-11.65,6.03-21.8,6.44-23.07
					c2.32-6.59,4.94-14.01,8.99-21.95c7.3-14.35,14.72-27.79,28.17-41.95c4.08-4.31,8.65-8.92,14.05-13.37
					c2.32-1.91,4.46-3.56,6.29-4.91c1.2-0.82,2.36-1.65,3.41-2.32c2.55-1.72,4.61-2.81,4.61-2.81s-0.15,0.07-0.22,0.07
					c-55.55,22.44-95.22,76.01-97.51,139.09c0,0.04,0,0.15,0,0.15L849.77,468.87L849.77,468.87z"/>
				<path class="st4" d="M1142.55,508.99H842.32c-0.94,0-1.69,0.75-1.69,1.69v7.12c0,0.94,0.75,1.69,1.69,1.69h300.27
					c0.94,0,1.69-0.75,1.69-1.69v-7.12C1144.24,509.74,1143.49,508.99,1142.55,508.99z"/>
				<path class="st4" d="M884.42,505.17c0.94,0,1.69-0.75,1.69-1.69v-12.77c0-0.94-0.75-1.69-1.69-1.69h-12.77
					c-0.94,0-1.69,0.75-1.69,1.69v12.77c0,0.94,0.75,1.69,1.69,1.69H884.42z"/>
			</g>
			<g>
				<path class="st5" d="M795.08,635.31c-0.19,0-0.37-0.22-0.6-0.71c-0.19-0.49-0.26-0.9-0.26-1.27c0-0.37,0.11-0.6,0.3-0.71
					c3.18-0.45,5.51-1.05,7-1.87c1.5-0.82,2.25-2.29,2.25-4.35v-39.78c0-1.01-0.19-1.72-0.6-2.14c-0.41-0.37-1.05-0.6-2.06-0.6
					h-2.21c-7.45,0-11.99,1.76-13.6,5.28c-0.45,0.9-1.2,1.27-2.25,1.05c-0.75-0.15-1.05-0.52-0.9-1.09c0.9-3.71,1.54-6.93,1.87-9.7
					c0.04-0.71,0.22-1.16,0.6-1.27c0.37-0.11,0.97-0.11,1.84,0c3.41,0.34,10.9,0.56,22.4,0.56c12.81,0,20.98-0.19,24.61-0.56
					c0.9-0.11,1.57-0.11,2.02,0c0.45,0.11,0.56,0.56,0.3,1.27c-1.24,3.86-2.06,7.08-2.47,9.7c-0.11,0.71-0.56,1.05-1.35,1.05
					c-0.79,0-1.27-0.34-1.42-1.01c-0.82-3.52-4.57-5.28-11.28-5.32h-2.51c-2.1,0-3.15,0.9-3.15,2.66v39.78
					c0,2.06,0.75,3.48,2.25,4.31c1.5,0.82,3.86,1.46,7.04,1.87c0.19,0.11,0.3,0.34,0.3,0.75c0,0.37-0.07,0.82-0.26,1.31
					s-0.41,0.71-0.64,0.71h-27.42L795.08,635.31z"/>
				<path class="st5" d="M904.16,633.43c0.3,0,0.49,0.34,0.45,1.05c-0.04,0.71-0.19,1.12-0.49,1.24c-1.84,0.49-3.71,0.75-5.58,0.86
					c-1.87,0.11-3.86-0.3-5.96-1.31c-2.1-0.97-3.9-2.43-5.39-4.38l-12.4-15.96c-1.61-2.1-3.41-3.45-5.43-4.12
					c-2.02-0.67-4.61-1.01-7.83-1.05v15.62c0,2.55,0.75,4.35,2.21,5.28c1.46,0.94,3.75,1.61,6.82,1.99c0.15,0,0.22,0.22,0.22,0.71
					c0,0.49-0.07,0.94-0.19,1.42c-0.11,0.49-0.26,0.71-0.49,0.71h-24.46c-0.19,0-0.41-0.22-0.56-0.71s-0.22-0.94-0.22-1.42
					c0-0.49,0.11-0.71,0.3-0.71c2.21-0.3,3.86-0.97,4.98-2.06c1.16-1.05,1.69-2.81,1.69-5.21v-35.96c0-2.47-0.56-4.31-1.69-5.39
					c-1.12-1.09-2.81-1.99-4.98-2.55c-0.3-0.11-0.41-0.64-0.26-1.54c0.15-0.9,0.34-1.35,0.71-1.31c2.51,0.3,5.62,0.49,9.29,0.52
					c2.17,0,5.02-0.07,8.5-0.22c3.52-0.15,5.84-0.22,6.97-0.22c6.26,0,11.24,1.27,14.87,3.82c3.67,2.55,5.47,6.26,5.47,11.09
					c0,4.38-1.42,7.79-4.31,10.3c-2.88,2.51-6.22,3.86-10.04,4.05v0.41c1.61,0,3.07,0.37,4.42,1.24c1.35,0.82,2.92,2.32,4.68,4.53
					l12.02,15.1c2.17,2.7,4.42,4.05,6.74,4.05L904.16,633.43z M863.89,606.01c6.18,0,10.53-0.71,12.96-2.14
					c2.43-1.42,3.67-4.08,3.67-8.02c0-4.12-1.2-7.34-3.52-9.51c-2.32-2.21-5.36-3.3-9.1-3.3c-2.32,0-3.93,0.52-4.87,1.5
					s-1.42,2.62-1.42,4.98v16.63h2.32L863.89,606.01z"/>
				<path class="st5" d="M971.36,632.53c0.52,0.11,0.75,0.6,0.67,1.46c-0.07,0.86-0.34,1.31-0.82,1.31H949.9
					c-0.52,0-0.79-0.45-0.82-1.31c-0.04-0.86,0.15-1.35,0.6-1.46c0.9-0.15,1.65-0.34,2.21-0.6c0.56-0.22,1.09-0.67,1.61-1.27
					c0.52-0.6,0.71-1.46,0.6-2.55c-0.11-1.09-0.52-2.47-1.24-4.16l-0.86-2.02c-0.34-0.9-0.86-1.5-1.54-1.72
					c-0.67-0.22-1.69-0.34-3.03-0.34h-16.44c-1.35,0-2.32,0.11-3,0.34c-0.67,0.22-1.2,0.82-1.57,1.72l-0.79,2.02
					c-0.71,1.65-1.12,3.03-1.16,4.12c-0.04,1.12,0.19,1.99,0.75,2.55s1.12,0.97,1.8,1.24c0.67,0.22,1.57,0.45,2.73,0.6
					c0.52,0.11,0.75,0.6,0.67,1.46c-0.07,0.86-0.37,1.31-0.94,1.31h-17.42c-0.49,0-0.75-0.45-0.82-1.31
					c-0.07-0.86,0.11-1.35,0.64-1.46c1.84-0.3,3.33-1.01,4.46-2.1c1.12-1.05,2.36-3.22,3.75-6.44l13.67-31.28
					c2.73-6.18,4.08-10.68,4.08-13.49c0-0.26,0.94-0.64,2.85-1.01c1.87-0.41,2.92-0.49,3.03-0.19l19.67,45.89
					c1.39,3.22,2.62,5.39,3.78,6.56c1.12,1.12,2.55,1.84,4.31,2.14L971.36,632.53z M946.75,615.42c0.45,0,0.79-0.04,1.09-0.07
					c0.3-0.04,0.56-0.15,0.75-0.34c0.19-0.19,0.22-0.49,0.07-0.86l-9.44-22.55l-9.51,22.55c-0.19,0.49-0.11,0.79,0.26,0.97
					c0.41,0.19,0.94,0.26,1.61,0.26h15.25L946.75,615.42z"/>
				<path class="st5" d="M1015.49,604.51c3.97,0,7.45,1.35,10.38,3.97c2.92,2.62,4.38,6.11,4.38,10.41c0,5.02-2.06,8.99-6.18,11.99
					c-4.12,3-9.55,4.5-16.33,4.5c-1.12,0-3.26-0.07-6.41-0.22s-5.81-0.22-7.94-0.22c-5.47,0-9.7,0.15-12.66,0.49
					c-0.34,0.04-0.6-0.37-0.75-1.35c-0.15-0.94-0.07-1.46,0.22-1.57c1.61-0.45,2.77-0.75,3.41-0.94c0.67-0.19,1.5-0.6,2.47-1.16
					s1.65-1.31,2.02-2.21c0.34-0.9,0.52-2.1,0.52-3.56v-35.85c0-2.32-0.6-4.01-1.76-5.09c-1.2-1.05-2.85-1.84-5.02-2.36
					c-0.3-0.04-0.41-0.52-0.26-1.42c0.15-0.9,0.34-1.35,0.71-1.31c2.62,0.3,5.88,0.49,9.74,0.52c2.36,0,5.21-0.07,8.47-0.22
					c3.26-0.15,5.36-0.22,6.26-0.22c5.47,0,10,1.16,13.6,3.41c3.6,2.29,5.39,5.54,5.43,9.81c0.04,3.18-0.9,5.88-2.85,8.05
					s-4.38,3.56-7.34,4.12v0.52L1015.49,604.51z M1007.36,631.22c3.93,0,7-0.79,9.18-2.32s3.26-4.31,3.26-8.24
					c0-4.31-1.27-7.64-3.75-10c-2.47-2.36-5.69-3.56-9.66-3.56h-8.32v17.46c0,2.32,0.71,4.01,2.14,5.09
					c1.42,1.05,3.82,1.57,7.19,1.57H1007.36z M999.42,584.1c-0.82,0.86-1.27,2.4-1.27,4.65v14.38h8.32c6.11,0,9.18-3.03,9.22-9.14
					c0-3.67-1.12-6.44-3.26-8.35c-2.17-1.87-5.02-2.85-8.5-2.85C1001.74,582.83,1000.24,583.24,999.42,584.1z"/>
				<path class="st5" d="M1100.37,632.53c0.52,0.11,0.75,0.6,0.67,1.46c-0.07,0.86-0.34,1.31-0.82,1.31h-21.31
					c-0.52,0-0.79-0.45-0.82-1.31c-0.04-0.86,0.15-1.35,0.6-1.46c0.9-0.15,1.65-0.34,2.21-0.6c0.56-0.22,1.12-0.67,1.61-1.27
					c0.52-0.6,0.71-1.46,0.6-2.55c-0.11-1.09-0.52-2.47-1.24-4.16l-0.86-2.02c-0.34-0.9-0.86-1.5-1.54-1.72
					c-0.67-0.22-1.69-0.34-3.03-0.34h-16.44c-1.35,0-2.32,0.11-3,0.34c-0.67,0.22-1.16,0.82-1.57,1.72l-0.79,2.02
					c-0.71,1.65-1.12,3.03-1.16,4.12c-0.04,1.12,0.19,1.99,0.75,2.55c0.56,0.6,1.12,0.97,1.8,1.24c0.67,0.22,1.57,0.45,2.73,0.6
					c0.52,0.11,0.75,0.6,0.67,1.46s-0.37,1.31-0.94,1.31h-17.42c-0.49,0-0.75-0.45-0.82-1.31s0.11-1.35,0.64-1.46
					c1.84-0.3,3.33-1.01,4.46-2.1c1.12-1.05,2.36-3.22,3.75-6.44l13.67-31.28c2.7-6.18,4.08-10.68,4.08-13.49
					c0-0.26,0.94-0.64,2.85-1.01c1.87-0.41,2.92-0.49,3.03-0.19l19.67,45.89c1.39,3.22,2.62,5.39,3.78,6.56
					c1.12,1.12,2.55,1.84,4.31,2.14L1100.37,632.53z M1075.76,615.42c0.45,0,0.79-0.04,1.12-0.07c0.3-0.04,0.56-0.15,0.75-0.34
					c0.19-0.19,0.22-0.49,0.07-0.86l-9.44-22.55l-9.51,22.55c-0.19,0.49-0.11,0.79,0.26,0.97c0.37,0.19,0.94,0.26,1.61,0.26h15.25
					L1075.76,615.42z"/>
				<path class="st5" d="M1110.3,652.54c-0.34,0-0.67-0.22-0.97-0.71s-0.49-0.9-0.52-1.31c-0.04-0.37,0.04-0.64,0.22-0.75
					c2.06-0.19,3.82-1.5,5.28-3.86c1.46-2.36,2.21-5.77,2.21-10.15v-47.16c0-2.55-0.6-4.35-1.76-5.32c-1.2-0.97-2.85-1.61-4.91-1.87
					c-0.19,0-0.3-0.22-0.3-0.67c0-0.45,0.07-0.86,0.22-1.27c0.15-0.41,0.34-0.6,0.56-0.6h22.14c0.19,0,0.41,0.19,0.56,0.6
					c0.15,0.37,0.22,0.82,0.22,1.27s-0.11,0.64-0.3,0.64c-2.1,0.26-3.75,0.9-4.91,1.87c-1.2,0.97-1.76,2.73-1.76,5.32v47.16
					c0,3.86-1.87,7.64-5.66,11.35c-3.78,3.71-7.15,5.54-10.19,5.54L1110.3,652.54z"/>
				<path class="st5" d="M1173.34,636.58c-8.39,0-15.32-2.77-20.83-8.32c-5.51-5.54-8.28-12.51-8.28-20.9
					c0-8.32,2.73-15.36,8.17-21.16c5.43-5.81,12.47-8.65,21.16-8.65c8.47,0,15.43,2.73,20.9,8.28c5.47,5.51,8.24,12.44,8.24,20.83
					c0,8.39-2.73,15.47-8.17,21.28c-5.43,5.81-12.47,8.65-21.16,8.65H1173.34z M1176.34,631.19c1.95,0,3.82-0.34,5.62-1.01
					s3.6-1.72,5.32-3.18s3.11-3.56,4.12-6.26c1.01-2.73,1.54-5.88,1.54-9.44c0-7.94-2.29-14.65-6.86-20.04s-9.85-8.13-15.85-8.13
					c-1.95,0-3.78,0.3-5.58,0.97c-1.8,0.67-3.56,1.72-5.24,3.18c-1.69,1.46-3.03,3.52-4.05,6.18c-1.01,2.7-1.54,5.84-1.54,9.44
					c0,8.02,2.28,14.68,6.86,20.08c4.57,5.39,9.85,8.13,15.81,8.13L1176.34,631.19z"/>
			</g>
		</g>
	</g>
	<g>
		<g>
			<polygon class="st0" points="606.38,334.12 222.75,1317.94 990,1317.94 			"/>
			<rect x="482.62" y="952.88" class="st0" width="247.5" height="693"/>
		</g>
		<g>
			<polygon class="st0" points="1373.62,334.12 990,1317.94 1757.25,1317.94 			"/>
			<rect x="1249.88" y="952.88" class="st0" width="247.5" height="693"/>
		</g>
	</g>
</g>
</svg>
