<?xml version="1.0" encoding="UTF-8"?>
<svg xmlns="http://www.w3.org/2000/svg" version="1.1" xmlns:xlink="http://www.w3.org/1999/xlink" viewBox="0 0 1980 1980">
  <defs>
    <style>
      .cls-1 {
        stroke: #bbc4bc;
        stroke-miterlimit: 10;
      }

      .cls-1, .cls-2 {
        fill: #fff;
      }

      .cls-3 {
        fill: #ffcb04;
      }

      .cls-4 {
        fill: #ed232a;
      }

      .cls-5 {
        fill: #7eaf85;
      }

      .cls-6 {
        fill: #c6e8c8;
      }

      .cls-7 {
        fill: #308a40;
      }

      .cls-8 {
        fill: #003876;
      }

      .cls-9 {
        fill: url(#linear-gradient);
      }

      .cls-10 {
        fill: #e6e7e8;
      }

      .cls-11 {
        fill: #17822b;
      }
    </style>
    <linearGradient id="linear-gradient" x1="752.5" y1="1115.6" x2="1252.4" y2="1115.6" gradientTransform="translate(0 1870) scale(1 -1)" gradientUnits="userSpaceOnUse">
      <stop offset="0" stop-color="#fff"/>
      <stop offset="1" stop-color="#a7a9ac"/>
    </linearGradient>
  </defs>
  <!-- Generator: Adobe Illustrator 28.7.1, SVG Export Plug-In . SVG Version: 1.2.0 Build 142)  -->
  <g>
    <g id="Layer_1">
      <rect class="cls-5" x="0" y="0" width="1980" height="1980"/>
      <g>
        <g>
          <circle class="cls-7" cx="1003.5" cy="1199.2" r="667.2"/>
          <circle class="cls-3" cx="1003.5" cy="1199.2" r="599"/>
          <g>
            <path class="cls-9" d="M1252.4,873.3v8.8h-497.7v-33c11-118.9,107.9-213.6,226.8-222.4h44c127.7,11,229,118.9,229,248.8l-2.2-2.2Z"/>
            <path class="cls-4" d="M1252.4,882.1c-4.4,134.3-114.5,242.2-248.8,242.2s-235.6-99.1-248.8-224.6v-17.6h497.7Z"/>
            <g>
              <g>
                <path class="cls-8" d="M985.9,750h37.4-37.4Z"/>
                <path class="cls-8" d="M1012.3,723.5h0v19.8h4.4v-19.8h-4.4Z"/>
                <path class="cls-8" d="M1003.5,723.5h0v19.8h4.4v-19.8h-4.4Z"/>
                <path class="cls-8" d="M992.5,723.5h0v19.8h4.4v-19.8h-4.4Z"/>
                <path class="cls-8" d="M1010.1,758.8h0v88.1h33c0-37.4-13.2-70.5-30.8-85.9h0l-2.2-2.2Z"/>
                <path class="cls-8" d="M1078.4,846.9v-4.4c0-8.8-4.4-22-8.8-33,0-4.4-4.4-6.6-4.4-11h0c-11-19.8-24.2-35.2-41.8-41.8h0s4.4,4.4,8.8,11c11,17.6,17.6,35.2,19.8,57.3,0,11,0,17.6,0,15.4v4.4h26.4v2.2Z"/>
                <path class="cls-8" d="M985.9,721.3h37.4-37.4Z"/>
                <path class="cls-8" d="M1041,756.6s4.4,0,4.4,4.4c4.4,4.4,6.6,6.6,11,8.8,8.8,11,13.2,17.6,17.6,28.6,4.4,4.4,4.4,11,6.6,15.4,0,0,4.4,8.8,4.4,15.4s4.4,19.8,4.4,19.8h13.2c0-44-28.6-79.3-63.9-92.5h4.4s0,0,0,0h-2.2Z"/>
                <path class="cls-8" d="M1018.9,716.9c0-8.8-6.6-15.4-15.4-15.4h4.4-4.4v-4.4h0v4.4h-4.4,4.4c-8.8,4.4-15.4,11-15.4,17.6h30.8v-2.2Z"/>
                <path class="cls-8" d="M979.3,769.8c4.4-6.6,8.8-11,8.8-11h0c-17.6,6.6-30.8,22-41.8,39.6h0c0,4.4-4.4,8.8-4.4,11-4.4,11-6.6,24.2-8.8,33v4.4h24.2v-19.8c4.4-24.2,11-44,19.8-59.5h0l2.2,2.2Z"/>
                <path class="cls-8" d="M1052,871.1h0v-8.8h-8.8v8.8h8.8Z"/>
                <path class="cls-8" d="M1087.2,871.1h0v-8.8h-8.8v8.8h8.8Z"/>
                <path class="cls-8" d="M1107,855.7h-17.6v-4.4h-8.8v4.4h-24.2v-4.4h-8.8v4.4h-30.8v-4.4h-8.8v4.4h-30.8v-4.4h-8.8v4.4h-24.2v-4.4h-8.8v4.4h-17.6,202.6-15.4,2.2Z"/>
                <path class="cls-8" d="M1007.9,871.1h0v-8.8h-8.8v8.8h8.8Z"/>
                <path class="cls-8" d="M966.1,871.1h0v-8.8h-8.8v8.8h8.8Z"/>
                <path class="cls-8" d="M999.1,846.9v-88.1h0c-19.8,17.6-30.8,50.6-30.8,85.9h33l-2.2,2.2Z"/>
                <path class="cls-8" d="M908.8,846.9h15.4s0-11,4.4-19.8c0-8.8,4.4-15.4,4.4-15.4,0-4.4,4.4-11,6.6-15.4,4.4-11,11-17.6,17.6-28.6,4.4-4.4,4.4-6.6,11-8.8,0,0,4.4,0,4.4-4.4h4.4c-37.4,13.2-63.9,50.6-63.9,92.5h-4.4Z"/>
                <path class="cls-8" d="M1107,875.5h-202.6v4.4h202.6v-4.4h0Z"/>
                <path class="cls-8" d="M930.8,871.1h0v-8.8h-8.8v8.8h8.8Z"/>
              </g>
              <g>
                <path class="cls-2" d="M871.4,961.4h4.4v-30.8h0c-4.4,0-8.8,0-8.8,4.4s0,0,0,0h0v-6.6h30.8v6.6h0s-4.4-4.4-8.8-4.4h0v30.8h4.4-24.2,2.2Z"/>
                <path class="cls-2" d="M944.1,959.2h-6.6s-4.4,0-4.4-4.4l-8.8-11-4.4-4.4c-4.4-4.4-4.4,0-4.4,0v13.2h4.4-17.6,4.4v-30.8h-4.4,28.6c4.4,0,4.4,4.4,4.4,8.8s0,4.4-4.4,6.6c0,0-4.4,4.4-6.6,4.4h4.4l4.4,4.4,8.8,11,4.4,4.4h0l-2.2-2.2ZM917.6,939.4h8.8l4.4-4.4v-6.6h-11v15.4h0l-2.2-4.4Z"/>
                <path class="cls-2" d="M990.3,959.2h-15.4v-4.4h-13.2v4.4h0c0,4.4,0,0,0,0h-11,4.4l4.4-4.4,8.8-22c0-4.4,4.4-6.6,4.4-8.8s0,0,0,0h0l13.2,30.8s0,4.4,4.4,4.4h0ZM972.7,946h0l-6.6-15.4-6.6,15.4h13.2Z"/>
                <path class="cls-2" d="M1018.9,939.4q4.4,0,6.6,4.4c2.2,4.4,4.4,4.4,4.4,6.6s0,6.6-4.4,8.8c-4.4,2.2-6.6,4.4-11,4.4h-17.6v-30.8h-4.4,24.2c4.4,0,4.4,4.4,4.4,6.6v4.4s-4.4,0-4.4,4.4h0l4.4-6.6-2.2-2.2ZM1014.5,957h6.6v-4.4s0-4.4-4.4-6.6h-11v15.4h6.6l2.2-4.4ZM1010.1,926.1v13.2h4.4c4.4,0,6.6,0,6.6-6.6s0-4.4,0-4.4h-8.8l-2.2-2.2Z"/>
                <path class="cls-2" d="M1078.4,959.2h-15.4v-4.4h-13.2v4.4h0c0,4.4,0,0,0,0h-11,4.4l4.4-4.4,8.8-22c0-4.4,4.4-6.6,4.4-8.8s0,0,0,0h0l13.2,30.8s0,4.4,4.4,4.4h0ZM1060.8,946h0l-6.6-15.4-6.6,15.4h13.2Z"/>
                <path class="cls-2" d="M1085,972.4h0s4.4,0,4.4-4.4v-41.8h-4.4,15.4-4.4v35.2q0,4.4-4.4,8.8s-4.4,4.4-6.6,4.4h0v-2.2Z"/>
                <path class="cls-2" d="M1126.8,961.4c-4.4,0-11,0-13.2-4.4-4.4-4.4-4.4-8.8-4.4-13.2s0-11,4.4-15.4,8.8-6.6,15.4-6.6,11,0,13.2,4.4,4.4,8.8,4.4,13.2,0,11-4.4,15.4c-4.4,4.4-8.8,6.6-15.4,6.6h0ZM1129,957h8.8l4.4-4.4v-6.6c0-4.4,0-11-4.4-13.2-4.4-4.4-6.6-4.4-11-4.4h-8.8c-4.4,0,0,0-4.4,4.4-4.4,4.4,0,4.4,0,6.6,0,4.4,0,11,4.4,13.2,4.4,4.4,6.6,4.4,11,4.4h0Z"/>
              </g>
            </g>
          </g>
          <g>
            <g>
              <polygon class="cls-7" points="745.9 756.6 486 1419.4 1003.5 1419.4 745.9 756.6"/>
              <rect class="cls-7" x="662.2" y="1172.8" width="167.4" height="466.9"/>
            </g>
            <g>
              <polygon class="cls-7" points="1261.2 756.6 1003.5 1419.4 1518.8 1419.4 1261.2 756.6"/>
              <rect class="cls-7" x="1177.5" y="1172.8" width="167.4" height="466.9"/>
            </g>
          </g>
        </g>
        <g>
          <path class="cls-7" d="M1259,355.8l-48.4,99.1c-66.1-8.8-138.7-13.2-222.4-13.2-295.1,0-510.9,85.9-638.6,191.6l46.2-83.7s237.8-292.9,268.7-343.5c30.8-50.6,0-66.1,0-66.1l-114.5,17.6,6.6-8.8,134.3-50.6,473.5,134.3s-15.4-4.4-207,55.1c-191.6,57.3-275.3,66.1-275.3,66.1,0,0-4.4,8.8,231.2-33,235.6-41.8,288.5-57.3,288.5-57.3l59.5,90.3-2.2,2.2Z"/>
          <path class="cls-11" d="M666.6,206c-30.8,50.6-268.7,343.5-268.7,343.5l-46.2,83.7c-68.3,57.3-112.3,118.9-132.1,178.4h0c-4.4,15.4-8.8,30.8-8.8,44-33,334.7,134.3,447,136.5,449.2h0l-33,81.5h-107.9s11-24.2,15.4-132.1c6.6-107.9-59.5-218-57.3-288.5,0-37.4,13.2-101.3,22-154.1,8.8-46.2,17.6-85.9,17.6-85.9l121.1-244.4,224.6-323.7,114.5-17.6s30.8,15.4,0,66.1h2.2Z"/>
          <path class="cls-2" d="M1626.7,1003.2s-279.7-251-750.9-154.1c-471.3,96.9-504.3,196-585.8,185-8.8,0-17.6-4.4-24.2-11-13.2-11-22-28.6-28.6-48.4-22-63.9-17.6-158.6-17.6-160.8h0c17.6-59.5,61.7-123.3,132.1-178.4,127.7-105.7,341.3-191.6,638.6-191.6s156.4,4.4,222.4,13.2c154.1,19.8,264.3,61.7,343.5,116.7,11,13.2,22,30.8,33,48.4,17.6,28.6,33,63.9,46.2,103.5,8.8,26.4,15.4,57.3,19.8,90.3,26.4,189.4-26.4,187.2-26.4,187.2h-2.2Z"/>
          <path class="cls-10" d="M1741.2,857.9c-26.4-92.5-66.1-176.2-138.7-246.6-11-11-24.2-22-37.4-30.8-4.4-2.2-8.8-6.6-13.2-8.8,11,13.2,22,30.8,33,48.4,17.6,28.6,33,63.9,46.2,103.5,8.8,26.4,15.4,57.3,19.8,90.3,26.4,189.4-26.4,187.2-26.4,187.2,0,0-279.7-251-750.9-154.1-471.3,96.9-504.3,196-585.8,185-8.8,0-17.6-4.4-24.2-11-13.2-11-22-28.6-28.6-48.4-22-63.9-17.6-158.6-17.6-160.8-4.4,15.4-8.8,30.8-8.8,44-33,334.7,134.3,447,136.5,449.2,0-4.4-154.1-418.4,643-418.4s673.9,418.4,673.9,418.4c0,0,178.4-105.7,79.3-449.2v2.2ZM345.1,1307.1s-4.4-4.4-6.6-8.8l6.6,8.8Z"/>
          <path class="cls-6" d="M1567.3,580.4c-4.4-2.2-8.8-6.6-13.2-8.8-79.3-57.3-189.4-96.9-343.5-116.7l48.4-99.1-59.5-90.3s-55.1,15.4-288.5,57.3c-235.6,41.8-229,33-231.2,33,0,0,83.7-8.8,275.3-66.1,191.6-57.3,207-55.1,207-55.1l-471.3-136.5h2.2l515.3,110.1,231.2,160.8,81.5,136.5,44,74.9h2.2Z"/>
          <path class="cls-10" d="M230.6,1322.5v4.4l2.2-4.4c13.2-24.2,52.9-8.8,44,17.6v4.4l2.2-2.2c22-17.6,50.6,11,33,33v4.4c-2.2,0,0,0,0,0,26.4-6.6,44,30.8,17.6,44h-4.4c0,2.2,4.4,2.2,4.4,2.2,28.6,4.4,28.6,44,0,48.4h-4.4l4.4,2.2c24.2,13.2,8.8,52.9-17.6,44h-4.4l2.2,2.2c17.6,22-11,50.6-33,33h-4.4c0-2.2,0,0,0,0,6.6,26.4-30.8,44-44,17.6v-4.4c-2.2,0-2.2,4.4-2.2,4.4-4.4,28.6-44,28.6-48.4,0v-4.4l-2.2,4.4c-13.2,24.2-52.9,8.8-44-17.6v-4.4l-2.2,2.2c-22,17.6-50.6-11-33-33v-4.4c2.2,0,0,0,0,0-26.4,6.6-44-30.8-17.6-44h4.4c0-2.2-4.4-2.2-4.4-2.2-28.6-4.4-28.6-44,0-48.4h4.4l-4.4-2.2c-24.2-13.2-8.8-52.9,17.6-44h4.4l-2.2-2.2c-17.6-22,11-50.6,33-33h4.4c0,2.2,0,0,0,0-6.6-26.4,30.8-44,44-17.6v4.4c2.2,0,2.2-4.4,2.2-4.4,4.4-28.6,44-28.6,48.4,0Z"/>
          <path class="cls-1" d="M197.5,1307.1v4.4l2.2-4.4c13.2-24.2,52.9-8.8,44,17.6v4.4l2.2-2.2c22-17.6,50.6,11,33,33v4.4c-2.2,0,0,0,0,0,26.4-6.6,44,30.8,17.6,44h-4.4c0,2.2,4.4,2.2,4.4,2.2,28.6,4.4,28.6,44,0,48.4h-4.4l4.4,2.2c24.2,13.2,8.8,52.9-17.6,44h-4.4l2.2,2.2c17.6,22-11,50.6-33,33h-4.4c0-2.2,0,0,0,0,6.6,26.4-30.8,44-44,17.6v-4.4c-2.2,0-2.2,4.4-2.2,4.4-4.4,28.6-44,28.6-48.4,0v-4.4l-2.2,4.4c-13.2,24.2-52.9,8.8-44-17.6v-4.4l-2.2,2.2c-22,17.6-50.6-11-33-33v-4.4c2.2,0,0,0,0,0-26.4,6.6-44-30.8-17.6-44h4.4c0-2.2-4.4-2.2-4.4-2.2-28.6-4.4-28.6-44,0-48.4h4.4l-4.4-2.2c-24.2-13.2-8.8-52.9,17.6-44h4.4l-2.2-2.2c-17.6-22,11-50.6,33-33h4.4c0,2.2,0,0,0,0-6.6-26.4,30.8-44,44-17.6v4.4c2.2,0,2.2-4.4,2.2-4.4,4.4-28.6,44-28.6,48.4,0Z"/>
        </g>
      </g>
    </g>
  </g>
</svg>