<?xml version="1.0" encoding="UTF-8"?>
<svg xmlns="http://www.w3.org/2000/svg" version="1.1" xmlns:xlink="http://www.w3.org/1999/xlink" viewBox="0 0 459 80">
  <defs>
    <style>
      .cls-1 {
        fill: #bbc4bc;
      }

      .cls-1, .cls-2 {
        stroke: #bbc4bc;
        stroke-miterlimit: 10;
      }

      .cls-2, .cls-3 {
        fill: #fff;
      }

      .cls-4 {
        fill: #ffcb04;
      }

      .cls-5 {
        fill: #ed232a;
      }

      .cls-6 {
        fill: #308a40;
      }

      .cls-7 {
        fill: #14ad29;
      }

      .cls-8 {
        fill: #003876;
      }

      .cls-9 {
        fill: #0b6818;
      }

      .cls-10 {
        fill: url(#linear-gradient);
      }
    </style>
    <linearGradient id="linear-gradient" x1="33.9" y1="-56.8" x2="56.6" y2="-56.8" gradientTransform="translate(0 -27) scale(1 -1)" gradientUnits="userSpaceOnUse">
      <stop offset="0" stop-color="#fff"/>
      <stop offset="1" stop-color="#a7a9ac"/>
    </linearGradient>
  </defs>
  <!-- Generator: Adobe Illustrator 28.7.1, SVG Export Plug-In . SVG Version: 1.2.0 Build 142)  -->
  <g>
    <g id="Layer_1">
      <g>
        <path class="cls-9" d="M30,4.9c-1.4,2.3-12.2,15.6-12.2,15.6l-2.1,3.8c-3.1,2.6.9,5.4,0,8.1v1.8c-.3.7,4.7.6,4.7,1.2-1.5,15.2-5,19.3-4.9,19.4h0l-1.5,3.7h-4.9s.5-1.1.7-6c.3-4.9-2.7-9.9-2.6-13.1,0-1.7.6-4.6,1-7,.4-2.1.8-3.9.8-3.9l5.5-11.1L24.7,2.7l5.2-.8s1.4.7,0,3h0Z"/>
        <g>
          <path class="cls-6" d="M131.8,7.4c-3.6-1.8-7.7-2.7-12.3-2.7s-8.8.9-12.3,2.8c-3.6,1.8-6.3,4.4-8.3,7.8-1.9,3.3-2.9,7.2-2.9,11.7v25.8c0,4.5,1,8.4,2.9,11.8s4.7,6,8.3,7.9c3.6,1.8,7.7,2.8,12.3,2.8s8.8-.9,12.3-2.7c3.6-1.8,6.3-4.4,8.3-7.7,1.9-3.3,2.9-7.1,2.9-11.5v-.3c0-.3-.1-.6-.3-.9-.2-.3-.5-.4-.8-.4l-13.7-.6c-.8,0-1.2.4-1.2,1.1v1.1c0,2.2-.6,3.9-1.9,5.3-1.3,1.3-3,2-5.1,2s-3.8-.7-5.1-2c-1.3-1.3-1.9-3.1-1.9-5.3v-26.8c0-2.2.6-3.9,1.9-5.3,1.3-1.3,3-2,5.1-2s3.8.7,5.1,2c1.3,1.3,1.9,3.1,1.9,5.3v1.1c0,.7.4,1.1,1.2,1.1l13.7-.6c.3,0,.6-.1.8-.4s.3-.5.3-.9v-.5c0-4.3-1-8.1-2.9-11.4-1.9-3.3-4.7-5.8-8.3-7.6Z"/>
          <path class="cls-6" d="M185.5,7.4c-3.6-1.9-7.8-2.9-12.5-2.9s-8.9,1-12.5,2.9-6.4,4.6-8.4,8c-2,3.5-3,7.5-3,12v24.9c0,4.6,1,8.7,3,12.1,2,3.5,4.8,6.2,8.4,8.1,3.6,1.9,7.8,2.9,12.5,2.9s8.9-1,12.5-2.9,6.4-4.6,8.4-8.1,3-7.5,3-12.1v-24.9c0-4.5-1-8.5-3-12s-4.8-6.1-8.4-8ZM181,52.8c0,2.5-.7,4.5-2,6-1.4,1.5-3.2,2.3-5.5,2.3s-4.1-.8-5.5-2.3-2-3.5-2-6v-25.5c0-2.5.7-4.6,2-6.1,1.4-1.5,3.2-2.3,5.5-2.3s4,.8,5.4,2.3c1.4,1.6,2.1,3.6,2.1,6v25.5h0Z"/>
          <path class="cls-6" d="M239.5,7.4c-3.6-1.9-7.8-2.9-12.5-2.9s-8.9,1-12.5,2.9-6.4,4.6-8.4,8c-2,3.5-3,7.5-3,12v24.9c0,4.6,1,8.7,3,12.1,2,3.5,4.8,6.2,8.4,8.1,3.6,1.9,7.8,2.9,12.5,2.9s8.9-1,12.5-2.9,6.4-4.6,8.4-8.1,3-7.5,3-12.1v-24.9c0-4.5-1-8.5-3-12s-4.8-6.1-8.4-8ZM235,52.8c0,2.5-.7,4.5-2,6-1.4,1.5-3.2,2.3-5.5,2.3s-4.1-.8-5.5-2.3-2-3.5-2-6v-25.5c0-2.5.7-4.6,2-6.1,1.4-1.5,3.2-2.3,5.5-2.3s4,.8,5.4,2.3c1.4,1.6,2.1,3.6,2.1,6v25.5h0Z"/>
          <path class="cls-6" d="M295.1,7.8c-3.2-1.8-6.9-2.7-11-2.7h-25c-.3,0-.6,0-.8.3s-.3.5-.3.8v66.6c0,.3.1.6.3.8.2.2.5.3.8.3h13.7c.3,0,.6,0,.8-.3.2-.2.3-.5.3-.8v-24.3c0-.3.2-.5.5-.5h9.6c4.1,0,7.8-.9,11-2.6,3.2-1.7,5.7-4.2,7.4-7.4,1.7-3.2,2.6-6.9,2.6-11.1s-.9-8.1-2.6-11.4c-1.7-3.3-4.2-5.9-7.4-7.7,0,0,.1,0,.1,0ZM286.4,33c-1.4,1.4-3.2,2.1-5.4,2.1h-6.5c-.3,0-.5-.2-.5-.5v-15c0-.3.2-.5.5-.5h6.5c2.2,0,4,.7,5.4,2.2s2.1,3.5,2.1,5.9-.7,4.3-2.1,5.7h0Z"/>
          <path class="cls-6" d="M348.1,40.4c-2.1-1.5-4.9-3.2-8.5-5.2l-2.9-1.6c-3.1-1.6-5.5-2.8-7-3.7-1.5-.9-2.7-1.8-3.4-2.8-.7-.9-1.1-2-1.1-3.3s.5-3,1.6-4c1-1,2.5-1.5,4.4-1.5s4.2.7,5.6,2,2.1,2.9,2.1,4.8v1.7c0,.3.1.6.3.8.2.2.5.3.8.3h13.6c.3,0,.6-.1.8-.3.2-.2.3-.5.3-.8v-1.9c0-4-1-7.6-3-10.7s-4.8-5.5-8.3-7.2-7.6-2.6-12.1-2.6-8.3.8-11.7,2.4c-3.4,1.6-6.1,3.8-8,6.8-1.9,2.9-2.9,6.3-2.9,10.2s.9,7.2,2.8,10,4.1,5.1,6.7,6.8,5.8,3.5,9.5,5.3c3.2,1.6,5.5,2.8,6.8,3.5s2.3,1.5,3.1,2.4c.8.9,1.1,1.9,1.1,3.2s-.5,2.8-1.6,3.8c-1,1-2.6,1.6-4.6,1.6s-4.4-.6-5.8-1.9c-1.4-1.3-2.2-2.8-2.2-4.6v-1.8c0-.3-.1-.6-.3-.8-.2-.2-.5-.3-.8-.3h-13.6c-.3,0-.6,0-.8.3-.2.2-.3.5-.3.8v2.5c0,3.9,1,7.3,2.9,10.3s4.7,5.2,8.2,6.9c3.5,1.6,7.6,2.4,12.3,2.4,6.9,0,12.5-1.8,16.8-5.3,4.2-3.5,6.3-8.4,6.3-14.5s-.7-6.1-2.1-8.5c-1.4-2.3-3.2-4.3-5.3-5.7l.3.2h0Z"/>
          <path class="cls-6" d="M403.8,6.1h-40.7c-.3,0-.6,0-.8.3-.2.2-.3.5-.3.8v65.6c0,.3.1.6.3.8.2.2.5.3.8.3h40.7c.3,0,.6,0,.8-.3.2-.2.3-.5.3-.8v-11.6c0-.3-.1-.6-.3-.8-.2-.2-.5-.3-.8-.3h-25.3c-.3,0-.5-.2-.5-.5v-13c0-.3.2-.5.5-.5h15.3c.3,0,.6,0,.8-.4.2-.2.3-.5.3-.9v-10.6c0-.3-.1-.6-.3-.8-.2-.2-.5-.3-.8-.3h-15.3c-.3,0-.5-.2-.5-.5v-12c0-.3.2-.5.5-.5h25.3c.3,0,.6-.1.8-.3.2-.2.3-.5.3-.8V7.3c0-.3-.1-.6-.3-.8-.2-.2-.5-.3-.8-.3h0Z"/>
          <path class="cls-6" d="M457.7,6.4c-.2-.2-.5-.3-.8-.3h-45.7c-.3,0-.6,0-.8.3-.2.2-.3.5-.3.8v10.8c0,.3.1.6.3.8.2.2.5.3.8.3h14.3c.3,0,.5.2.5.5v53.3c0,.3.1.6.3.8.2.2.5.3.8.3h13.7c.3,0,.6,0,.8-.3.2-.2.3-.5.3-.8V19.6c0-.3.2-.5.5-.5h14.3c.3,0,.6-.1.8-.3.2-.2.3-.5.3-.8V7.2c0-.3-.1-.6-.3-.8h.2Z"/>
        </g>
        <g>
          <circle class="cls-6" cx="45.3" cy="50" r="30.3"/>
          <circle class="cls-4" cx="45.3" cy="50" r="27.2"/>
          <g>
            <path class="cls-10" d="M56.6,35.2v.4h-22.6v-1.5c.5-5.4,4.9-9.7,10.3-10.1h2c5.8.5,10.4,5.4,10.4,11.3h0Z"/>
            <path class="cls-5" d="M56.6,35.6c-.2,6.1-5.2,11-11.3,11s-10.7-4.5-11.3-10.2v-.8h22.6Z"/>
            <g>
              <g>
                <path class="cls-8" d="M44.5,29.6h1.7-1.7Z"/>
                <path class="cls-8" d="M45.7,28.4h0v.9h.2v-.9h-.2Z"/>
                <path class="cls-8" d="M45.3,28.4h0v.9h.2v-.9h-.2Z"/>
                <path class="cls-8" d="M44.8,28.4h0v.9h.2v-.9h-.2Z"/>
                <path class="cls-8" d="M45.6,30h0v4h1.5c0-1.7-.6-3.2-1.4-3.9h0Z"/>
                <path class="cls-8" d="M48.7,34v-.2c0-.4-.2-1-.4-1.5,0-.2-.2-.3-.2-.5h0c-.5-.9-1.1-1.6-1.9-1.9h0s.2.2.4.5c.5.8.8,1.6.9,2.6,0,.5,0,.8,0,.7v.2h1.2Z"/>
                <path class="cls-8" d="M44.5,28.3h1.7-1.7Z"/>
                <path class="cls-8" d="M47,29.9s.2,0,.2.2c.2.2.3.3.5.4.4.5.6.8.8,1.3.2.2.2.5.3.7,0,0,.2.4.2.7s.2.9.2.9h.6c0-2-1.3-3.6-2.9-4.2h.2s0,0,0,0h0Z"/>
                <path class="cls-8" d="M46,28.1c0-.4-.3-.7-.7-.7h.2-.2v-.2h0v.2h-.2.2c-.4.2-.7.5-.7.8h1.4Z"/>
                <path class="cls-8" d="M44.2,30.5c.2-.3.4-.5.4-.5h0c-.8.3-1.4,1-1.9,1.8h0c0,.2-.2.4-.2.5-.2.5-.3,1.1-.4,1.5v.2h1.1v-.9c.2-1.1.5-2,.9-2.7h.1Z"/>
                <path class="cls-8" d="M47.5,35.1h0v-.4h-.4v.4h.4Z"/>
                <path class="cls-8" d="M49.1,35.1h0v-.4h-.4v.4h.4Z"/>
                <path class="cls-8" d="M50,34.4h-.8v-.2h-.4v.2h-1.1v-.2h-.4v.2h-1.4v-.2h-.4v.2h-1.4v-.2h-.4v.2h-1.1v-.2h-.4v.2h-.8,9.2-.7.1Z"/>
                <path class="cls-8" d="M45.5,35.1h0v-.4h-.4v.4h.4Z"/>
                <path class="cls-8" d="M43.6,35.1h0v-.4h-.4v.4h.4Z"/>
                <path class="cls-8" d="M45.1,34v-4h0c-.9.8-1.4,2.3-1.4,3.9h1.5,0Z"/>
                <path class="cls-8" d="M41,34h.7s0-.5.2-.9c0-.4.2-.7.2-.7,0-.2.2-.5.3-.7.2-.5.5-.8.8-1.3.2-.2.2-.3.5-.4,0,0,.2,0,.2-.2h.2c-1.7.6-2.9,2.3-2.9,4.2h-.2Z"/>
                <path class="cls-8" d="M50,35.3h-9.2v.2h9.2v-.2h0Z"/>
                <path class="cls-8" d="M42,35.1h0v-.4h-.4v.4h.4Z"/>
              </g>
              <g>
                <path class="cls-3" d="M39.3,39.2h.2v-1.4h0c-.2,0-.4,0-.4.2s0,0,0,0h0v-.3h1.4v.3h0s-.2-.2-.4-.2h0v1.4h.2-1.1,0Z"/>
                <path class="cls-3" d="M42.6,39.1h-.3s-.2,0-.2-.2l-.4-.5-.2-.2c-.2-.2-.2,0-.2,0v.6h.2-.8.2v-1.4h-.2,1.3c.2,0,.2.2.2.4s0,.2-.2.3c0,0-.2.2-.3.2h.2l.2.2.4.5.2.2h-.1ZM41.4,38.2h.4l.2-.2v-.3h-.5v.7h0v-.2Z"/>
                <path class="cls-3" d="M44.7,39.1h-.7v-.2h-.6v.2h0c0,.2,0,0,0,0h-.5.2l.2-.2.4-1c0-.2.2-.3.2-.4s0,0,0,0h0l.6,1.4s0,.2.2.2h0ZM43.9,38.5h0l-.3-.7-.3.7h.6Z"/>
                <path class="cls-3" d="M46,38.2q.2,0,.3.2c0,.2.2.2.2.3s0,.3-.2.4-.3.2-.5.2h-.8v-1.4h-.2,1.1c.2,0,.2.2.2.3v.2s-.2,0-.2.2h0l.2-.3h-.1ZM45.8,39h.3v-.2s0-.2-.2-.3h-.5v.7h.3v-.2ZM45.6,37.6v.6h.2c.2,0,.3,0,.3-.3s0-.2,0-.2h-.5Z"/>
                <path class="cls-3" d="M48.7,39.1h-.7v-.2h-.6v.2h0c0,.2,0,0,0,0h-.5.2l.2-.2.4-1c0-.2.2-.3.2-.4s0,0,0,0h0l.6,1.4s0,.2.2.2h0ZM47.9,38.5h0l-.3-.7-.3.7h.6Z"/>
                <path class="cls-3" d="M49,39.7h0s.2,0,.2-.2v-1.9h-.2.7-.2v1.6q0,.2-.2.4s-.2.2-.3.2h0Z"/>
                <path class="cls-3" d="M50.9,39.2c-.2,0-.5,0-.6-.2-.2-.2-.2-.4-.2-.6s0-.5.2-.7.4-.3.7-.3.5,0,.6.2.2.4.2.6,0,.5-.2.7-.4.3-.7.3h0ZM51,39h.4l.2-.2v-.3c0-.2,0-.5-.2-.6-.2-.2-.3-.2-.5-.2h-.4c-.2,0,0,0-.2.2s0,.2,0,.3c0,.2,0,.5.2.6.2.2.3.2.5.2h0Z"/>
              </g>
            </g>
          </g>
          <g>
            <g>
              <polygon class="cls-6" points="33.6 29.9 21.8 60 45.3 60 33.6 29.9"/>
              <rect class="cls-6" x="29.8" y="48.8" width="7.6" height="21.2"/>
            </g>
            <g>
              <polygon class="cls-6" points="57 29.9 45.3 60 68.7 60 57 29.9"/>
              <rect class="cls-6" x="53.2" y="48.8" width="7.6" height="21.2"/>
            </g>
          </g>
        </g>
        <path class="cls-6" d="M56.9,11.7l-2.2,4.5c-3-.4-6.3-.6-10.1-.6-13.4,0-23.2,3.9-29,8.7l2.1-3.8s10.8-13.3,12.2-15.6c1.4-2.3,0-3,0-3l-5.2.8.3-.4,6.1-2.3,21.5,6.1,1.7,1.4,2.7,4.1h0Z"/>
        <path class="cls-7" d="M73.4,26c-.2-.1-2.9-4.4-3.1-4.5-3.6-2.6-8.6-4.4-15.6-5.3l2.2-4.5-2.7-4.1s-2.5.7-13.1,2.6c-1.8.3-4.7.8-4.8.8,0,0-1.9.3,6.8-2.3,8.7-2.6,9.4-2.5,9.4-2.5L31.1,0h.1l23.4,5,10.5,7.3,4.8,6.9,2.2,4,1.4,2.8Z"/>
        <path class="cls-1" d="M10.2,55.6v.2-.2c.7-1.1,2.5-.4,2.1.8v.2h.1c1-.9,2.3.4,1.5,1.4v.2c-.1,0,0,0,0,0,1.2-.3,2,1.4.8,2h-.2c0,0,.2,0,.2,0,1.3.2,1.3,2,0,2.2h-.2.2c1.1.7.4,2.5-.8,2.1h-.2.1c.8,1.1-.5,2.4-1.5,1.6h-.2c0,0,0,0,0,0,.3,1.2-1.4,2-2,.8v-.2c-.1,0-.1.2-.1.2-.2,1.3-2,1.3-2.2,0v-.2.2c-.7,1.1-2.5.4-2.1-.8v-.2h0c-1,.9-2.3-.4-1.5-1.4v-.2c0,0,0,0,0,0-1.2.3-2-1.4-.8-2h.2c0,0-.2,0-.2,0-1.3-.2-1.3-2,0-2.2h.2-.2c-1.1-.7-.4-2.5.8-2.1h.2,0c-.8-1.1.5-2.4,1.5-1.6h.2c0,0,0,0,0,0-.3-1.2,1.4-2,2-.8v.2c0,0,0-.2,0-.2.2-1.3,2-1.3,2.2,0Z"/>
        <path class="cls-2" d="M8.7,54.9v.2-.2c.7-1.1,2.5-.4,2.1.8v.2h.1c1-.9,2.3.4,1.5,1.4v.2c-.1,0,0,0,0,0,1.2-.3,2,1.4.8,2h-.2c0,0,.2,0,.2,0,1.3.2,1.3,2,0,2.2h-.2.2c1.1.7.4,2.5-.8,2.1h-.2.1c.8,1.1-.5,2.4-1.5,1.6h-.2c0,0,0,0,0,0,.3,1.2-1.4,2-2,.8v-.2c-.1,0-.1.2-.1.2-.2,1.3-2,1.3-2.2,0v-.2.2c-.7,1.1-2.5.4-2.1-.8v-.2h0c-1,.9-2.3-.4-1.5-1.4v-.2c0,0,0,0,0,0-1.2.3-2-1.4-.8-2h.2c0,0-.2,0-.2,0-1.3-.2-1.3-2,0-2.2h.2-.2c-1.1-.7-.4-2.5.8-2.1h.2,0c-.8-1.1.5-2.4,1.5-1.6h.2c0,0,0,0,0,0-.3-1.2,1.4-2,2-.8v.2c0,0,0-.2,0-.2.2-1.3,2-1.3,2.2,0Z"/>
        <path class="cls-2" d="M79.2,31.9h.1c.9-.2.9-2.1,0-2.3,0,0-.1,0-.1-.1h.1c.9-.6.3-2.4-.6-2.1v-.2c.6-1-.4-2.4-1.1-1.6h0c0,0,0-.2,0-.3,0-.2,0-.4,0-.6,0-.3-.1-.6-.3-.8-.5-.7-5.5-3.8-6-4.3-3.5-2.3-8.4-4.1-15.2-4.9-2.9-.4,0-.3-9.8-.6-13.2-.3-22.6,3.6-28.3,8-2.1,1.5-3.6,3.2-4.6,4.9-.5-.2-1.1.7-.8,1.5,0,.1,0,.2-.1.3-.7-.1-1.1,1.5-.4,2.1h0c0,0,0,0,0,.1h0c-.9.2-.9,2.1,0,2.3,0,0,.1,0,.1.1h-.1c-.8.6-.3,2.4.5,2.1v.2c-.5.9.2,2.1.8,1.7,0,.1.1.2.2.4,0,.7.6,1.1,1,.9.2.1.4.2.7.2,0,0,0,0,0,0,.3.4.7.4,1,0,.2,0,.5,0,.7-.1.2.1.5,0,.7-.2,2.9-1.1,7.5-4.3,23.5-7.4,16.7-3.2,27.9,2.8,31.8,5.4.2.4.5.7.9.6.4.3.6.5.6.5h0s.2,0,.4-.1c.4.3,1,0,1.1-.9,0,0,0-.2,0-.2v.2c.4,1.3,1.6.4,1.4-.8h.1c.7.8,1.6-.5,1.1-1.6h0c0-.1.1-.1.1-.1.9.4,1.4-1.5.6-2.1h-.1Z"/>
      </g>
    </g>
  </g>
</svg>