<?xml version="1.0" encoding="utf-8"?>
<!-- Generator: Adobe Illustrator 28.0.0, SVG Export Plug-In . SVG Version: 6.00 Build 0)  -->
<svg version="1.1" id="Layer_1" xmlns="http://www.w3.org/2000/svg" xmlns:xlink="http://www.w3.org/1999/xlink" x="0px" y="0px"
	 viewBox="0 0 459 80" style="enable-background:new 0 0 459 80;" xml:space="preserve">
<style type="text/css">
	.st0{fill:#FFFFFF;}
</style>
<g>
	<g>
		<path class="st0" d="M40,0C17.9,0,0,17.9,0,40s17.9,40,40,40s40-17.9,40-40S62.1,0,40,0z M40,76C20.1,76,4,59.9,4,40S20.1,4,40,4
			s36,16.1,36,36S59.9,76,40,76z"/>
		<path class="st0" d="M46.2,21C46.2,21,46.2,21,46.2,21L34,21c0,0,0,0,0,0H46.2z"/>
		<path class="st0" d="M33.7,23.4c-0.1,0-0.5,0-1,0c-0.5,0-0.8,0-0.9,0c0,0-0.1,0-0.1,0s0,0,0,0c0,0.1,0,0.2-0.1,0.4c0,0,0,0,0,0
			c0,0,0.1,0,0.1,0c0.1-0.1,0.2-0.2,0.5-0.2h0.1c0,0,0.1,0,0.1,0c0,0,0,0,0,0.1v1.6c0,0.1,0,0.1-0.1,0.2c-0.1,0-0.2,0.1-0.3,0.1
			c0,0,0,0,0,0c0,0,0,0,0,0c0,0,0,0,0,0h1.1c0,0,0,0,0,0c0,0,0,0,0,0c0,0,0,0,0,0c-0.1,0-0.2,0-0.3-0.1c-0.1,0-0.1-0.1-0.1-0.2v-1.6
			c0-0.1,0-0.1,0.1-0.1h0.1c0.3,0,0.4,0.1,0.5,0.2c0,0,0,0,0.1,0c0,0,0,0,0,0C33.7,23.7,33.7,23.6,33.7,23.4
			C33.8,23.4,33.8,23.4,33.7,23.4C33.7,23.4,33.7,23.4,33.7,23.4z"/>
		<path class="st0" d="M36.3,25.4l-0.5-0.6c-0.1-0.1-0.1-0.2-0.2-0.2c-0.1,0-0.1,0-0.2,0v0c0.2,0,0.3-0.1,0.4-0.2
			c0.1-0.1,0.2-0.2,0.2-0.4c0-0.2-0.1-0.3-0.2-0.4c-0.2-0.1-0.4-0.2-0.6-0.2c0,0-0.1,0-0.3,0s-0.2,0-0.3,0c-0.1,0-0.3,0-0.4,0
			c0,0,0,0,0,0c0,0,0,0.1,0,0.1c0.1,0,0.1,0,0.2,0.1c0,0,0.1,0.1,0.1,0.2v1.5c0,0.1,0,0.2-0.1,0.2c0,0-0.1,0.1-0.2,0.1c0,0,0,0,0,0
			c0,0,0,0,0,0.1c0,0,0,0,0,0h1c0,0,0,0,0,0c0,0,0,0,0-0.1c0,0,0,0,0,0c-0.1,0-0.2,0-0.3-0.1c-0.1,0-0.1-0.1-0.1-0.2v-0.6
			c0.1,0,0.2,0,0.3,0c0.1,0,0.2,0.1,0.2,0.2l0.5,0.6c0.1,0.1,0.1,0.1,0.2,0.2c0.1,0,0.2,0.1,0.2,0.1s0.2,0,0.2,0c0,0,0,0,0,0
			c0,0,0,0,0,0C36.4,25.6,36.3,25.5,36.3,25.4z M34.9,24.5l-0.1,0v-0.7c0-0.1,0-0.2,0.1-0.2c0,0,0.1-0.1,0.2-0.1
			c0.2,0,0.3,0,0.4,0.1c0.1,0.1,0.1,0.2,0.1,0.4c0,0.2,0,0.3-0.2,0.3C35.3,24.5,35.2,24.5,34.9,24.5z"/>
		<path class="st0" d="M39.1,25.5c0,0-0.1-0.1-0.1-0.3l-0.8-1.8c0,0,0,0-0.1,0c-0.1,0-0.1,0-0.1,0c0,0.1,0,0.3-0.2,0.5l-0.5,1.3
			c-0.1,0.1-0.1,0.2-0.2,0.3c0,0-0.1,0.1-0.2,0.1c0,0,0,0,0,0.1c0,0,0,0,0,0h0.7c0,0,0,0,0,0s0-0.1,0-0.1c-0.1,0-0.1,0-0.1,0
			c0,0,0,0-0.1,0c0,0,0,0,0-0.1s0-0.1,0-0.2l0-0.1c0,0,0-0.1,0.1-0.1c0,0,0.1,0,0.1,0h0.7c0,0,0.1,0,0.1,0c0,0,0,0,0.1,0.1l0,0.1
			c0,0.1,0,0.1,0,0.2c0,0,0,0.1,0,0.1c0,0,0,0-0.1,0c0,0,0,0-0.1,0c0,0,0,0,0,0.1c0,0,0,0,0,0h0.9c0,0,0,0,0,0c0,0,0-0.1,0-0.1
			C39.2,25.5,39.1,25.5,39.1,25.5z M38.3,24.9C38.3,24.9,38.3,24.9,38.3,24.9L38.3,24.9l-0.7,0c0,0,0,0-0.1,0c0,0,0,0,0,0l0.4-0.9
			L38.3,24.9C38.3,24.8,38.3,24.8,38.3,24.9z"/>
		<path class="st0" d="M41,24.4L41,24.4c0.1,0,0.2-0.1,0.3-0.2c0.1-0.1,0.1-0.2,0.1-0.3c0-0.2-0.1-0.3-0.2-0.4
			c-0.1-0.1-0.3-0.1-0.5-0.1c0,0-0.1,0-0.2,0s-0.2,0-0.3,0c-0.2,0-0.3,0-0.4,0c0,0,0,0,0,0c0,0,0,0.1,0,0.1c0.1,0,0.2,0.1,0.2,0.1
			c0,0,0.1,0.1,0.1,0.2v1.4c0,0.1,0,0.1,0,0.1s0,0.1-0.1,0.1c0,0-0.1,0-0.1,0s-0.1,0-0.1,0c0,0,0,0,0,0.1c0,0,0,0,0,0
			c0.1,0,0.3,0,0.5,0c0.1,0,0.2,0,0.3,0c0.1,0,0.2,0,0.3,0c0.3,0,0.5-0.1,0.7-0.2s0.2-0.3,0.2-0.5c0-0.2-0.1-0.3-0.2-0.4
			C41.3,24.5,41.2,24.4,41,24.4z M40.3,23.8c0-0.1,0-0.2,0-0.2c0,0,0.1,0,0.2-0.1c0.1,0,0.2,0,0.3,0.1C41,23.7,41,23.8,41,24
			c0,0.2-0.1,0.4-0.4,0.4h-0.3V23.8z M41.1,25.4c-0.1,0.1-0.2,0.1-0.4,0.1c-0.1,0-0.2,0-0.3,0c-0.1-0.1-0.1-0.1-0.1-0.2v-0.7h0.3
			c0.2,0,0.3,0,0.4,0.1c0.1,0.1,0.2,0.2,0.2,0.4C41.2,25.2,41.2,25.3,41.1,25.4z"/>
		<path class="st0" d="M44.3,25.5c0,0-0.1-0.1-0.2-0.3l-0.8-1.8c0,0,0,0-0.1,0c-0.1,0-0.1,0-0.1,0c0,0.1,0,0.3-0.2,0.5l-0.5,1.3
			c0,0.1-0.1,0.2-0.1,0.3c-0.1,0-0.1,0.1-0.2,0.1c0,0,0,0,0,0.1c0,0,0,0,0,0h0.7c0,0,0,0,0,0c0,0,0-0.1,0-0.1c0,0-0.1,0-0.1,0
			c0,0,0,0-0.1,0s0,0,0-0.1s0-0.1,0-0.2l0-0.1c0,0,0-0.1,0.1-0.1c0,0,0.1,0,0.1,0h0.7c0,0,0.1,0,0.1,0c0,0,0,0,0.1,0.1l0,0.1
			c0,0.1,0.1,0.1,0.1,0.2c0,0,0,0.1,0,0.1s0,0-0.1,0c0,0,0,0-0.1,0c0,0,0,0,0,0.1c0,0,0,0,0,0h0.9c0,0,0,0,0,0c0,0,0-0.1,0-0.1
			C44.4,25.5,44.3,25.5,44.3,25.5z M43.5,24.9C43.5,24.9,43.5,24.9,43.5,24.9L43.5,24.9l-0.7,0c0,0,0,0-0.1,0c0,0,0,0,0,0l0.4-0.9
			L43.5,24.9C43.6,24.8,43.6,24.8,43.5,24.9z"/>
		<path class="st0" d="M45.8,23.4h-0.9c0,0,0,0,0,0c0,0,0,0,0,0.1c0,0,0,0,0,0c0.1,0,0.1,0,0.2,0.1c0.1,0,0.1,0.1,0.1,0.2v1.9
			c0,0.2,0,0.3-0.1,0.4c-0.1,0.1-0.1,0.2-0.2,0.2c0,0,0,0,0,0c0,0,0,0,0,0.1c0,0,0,0,0,0c0.1,0,0.3-0.1,0.4-0.2
			c0.1-0.2,0.2-0.3,0.2-0.5v-1.9c0-0.1,0-0.2,0.1-0.2S45.7,23.5,45.8,23.4C45.8,23.5,45.8,23.5,45.8,23.4
			C45.8,23.4,45.8,23.4,45.8,23.4C45.8,23.4,45.8,23.4,45.8,23.4z"/>
		<path class="st0" d="M48.3,23.7c-0.2-0.2-0.5-0.3-0.8-0.3c-0.4,0-0.6,0.1-0.9,0.3c-0.2,0.2-0.3,0.5-0.3,0.9c0,0.3,0.1,0.6,0.3,0.8
			c0.2,0.2,0.5,0.3,0.8,0.3c0.4,0,0.6-0.1,0.9-0.4c0.2-0.2,0.3-0.5,0.3-0.9S48.5,23.9,48.3,23.7z M48.1,25.1c0,0.1-0.1,0.2-0.2,0.2
			c-0.1,0.1-0.1,0.1-0.2,0.1c-0.1,0-0.2,0-0.2,0c-0.2,0-0.5-0.1-0.6-0.3c-0.2-0.2-0.3-0.5-0.3-0.8c0-0.1,0-0.3,0.1-0.4
			c0-0.1,0.1-0.2,0.2-0.2c0.1-0.1,0.1-0.1,0.2-0.1c0.1,0,0.2,0,0.2,0c0.2,0,0.5,0.1,0.6,0.3c0.2,0.2,0.3,0.5,0.3,0.8
			C48.2,24.8,48.2,25,48.1,25.1z"/>
		<path class="st0" d="M55.5,13.5l-1.1,2.8c-1.7-5.9-6.9-10.2-13.1-10.8h-2.6c-6.2,0.5-11.4,4.9-13.1,10.7l-1.1-2.8L9,53.2h10.5
			v13.2h10V53.2H40l-7.8-19.9c2.3,1.4,4.9,2.2,7.8,2.2c2.9,0,5.5-0.8,7.8-2.2L40,53.2h10.5v13.2h10V53.2H71L55.5,13.5z M42,13.3
			c2.2,0.9,3.8,3.1,3.9,5.6c0,0,0,0,0,0l0,0v0H45c0,0-0.1-0.6-0.2-1.2c-0.1-0.5-0.2-0.9-0.3-0.9c-0.1-0.3-0.2-0.6-0.4-0.9
			c-0.3-0.6-0.6-1.1-1.1-1.7c-0.2-0.2-0.3-0.4-0.6-0.5c-0.1-0.1-0.2-0.1-0.3-0.2c-0.1,0-0.1-0.1-0.1-0.1C42,13.4,42,13.3,42,13.3
			L42,13.3z M43.6,15.9c0,0,0.1,0.1,0.1,0.1c0.1,0.2,0.2,0.4,0.3,0.6c0.3,0.7,0.4,1.4,0.5,2c0,0.1,0,0.2,0,0.3c0,0,0,0,0,0h-1.5v0
			c0,0,0-0.2,0-0.3c0-0.1,0-0.5-0.1-0.9c-0.1-1.4-0.6-2.6-1.2-3.5c-0.2-0.3-0.5-0.6-0.5-0.7C42.1,14,43,14.8,43.6,15.9z M42.4,18.9
			C42.4,18.9,42.4,19,42.4,18.9l-2,0.1v-5.3c0,0,0,0,0,0C41.6,14.6,42.3,16.6,42.4,18.9z M40.1,10.2v-0.1h-0.2V10c0,0,0,0,0,0h0
			c0,0,0,0,0,0V10h0.2V9.7h0c0,0,0,0,0,0V9.6c0,0,0,0,0,0h0c0,0,0,0,0,0v0.1c0,0,0,0,0,0V10h0.2V10c0,0,0,0,0,0h0c0,0,0,0,0,0v0.1
			h-0.2L40.1,10.2c0.5,0,0.9,0.4,0.9,0.9l-1.8,0C39.2,10.6,39.6,10.2,40.1,10.2z M38.9,11.3C38.9,11.3,38.9,11.2,38.9,11.3l2.3,0
			c0,0,0,0,0,0v0.1c0,0,0,0,0,0H39C38.9,11.4,38.9,11.4,38.9,11.3L38.9,11.3z M40.8,11.6v1.2c0,0,0,0.1-0.1,0.1h-0.2
			c0,0-0.1,0-0.1-0.1v-1.2c0,0,0-0.1,0.1-0.1L40.8,11.6C40.8,11.5,40.8,11.5,40.8,11.6z M40.3,11.6v1.2c0,0,0,0.1-0.1,0.1H40
			c0,0-0.1,0-0.1-0.1v-1.2c0,0,0-0.1,0.1-0.1L40.3,11.6C40.2,11.5,40.3,11.5,40.3,11.6z M39.7,11.6v1.2c0,0,0,0.1-0.1,0.1h-0.2
			c0,0-0.1,0-0.1-0.1v-1.2c0,0,0-0.1,0.1-0.1L39.7,11.6C39.7,11.5,39.7,11.5,39.7,11.6z M38.9,13C38.9,13,38.9,13,38.9,13l2.3,0
			c0,0,0,0,0,0v0.1c0,0,0,0,0,0H39C38.9,13.1,38.9,13.1,38.9,13L38.9,13z M39.8,13.6v5.3l-2,0c0,0,0,0,0-0.1
			C37.8,16.6,38.6,14.6,39.8,13.6C39.8,13.6,39.8,13.6,39.8,13.6z M39.1,13.5c-0.1,0.1-0.3,0.3-0.5,0.7c-0.6,1-1,2.1-1.2,3.5
			c-0.1,0.5-0.1,0.8-0.1,0.9c0,0.1,0,0.2,0,0.3v0h-1.5v0c0-0.1,0-0.2,0-0.3c0.1-0.5,0.2-1.3,0.5-2c0.1-0.2,0.2-0.4,0.3-0.6
			c0,0,0.1-0.1,0.1-0.2C37.2,14.8,38.1,14,39.1,13.5z M34.3,18.9c0.1-2.5,1.7-4.7,3.9-5.6c0,0-0.1,0-0.2,0.1c0,0-0.1,0.1-0.1,0.1
			c-0.1,0.1-0.2,0.1-0.2,0.2c-0.2,0.2-0.4,0.4-0.6,0.5c-0.5,0.6-0.8,1.1-1.1,1.7c-0.2,0.3-0.3,0.6-0.4,0.9c0,0-0.2,0.5-0.3,0.9
			c-0.1,0.5-0.2,1.2-0.2,1.2L34.3,18.9L34.3,18.9z M34,19.4C34,19.4,34,19.4,34,19.4l1.2,0v-0.2c0,0,0-0.1,0.1-0.1h0.5
			c0,0,0.1,0,0.1,0.1v0.2h1.4v-0.2c0,0,0-0.1,0.1-0.1h0.5c0,0,0.1,0,0.1,0.1v0.2h1.9v-0.2c0,0,0-0.1,0.1-0.1h0.5c0,0,0.1,0,0.1,0.1
			v0.2h1.9v-0.2c0,0,0-0.1,0.1-0.1h0.5c0,0,0.1,0,0.1,0.1v0.2h1.4v-0.2c0,0,0-0.1,0.1-0.1H45c0,0,0.1,0,0.1,0.1v0.2h1.2c0,0,0,0,0,0
			v0.1c0,0,0,0,0,0H34c0,0,0,0,0,0V19.4z M45,19.8v0.5c0,0,0,0.1-0.1,0.1h-0.5c0,0-0.1,0-0.1-0.1v-0.5c0,0,0-0.1,0.1-0.1L45,19.8
			C45,19.8,45,19.8,45,19.8z M43,19.8v0.5c0,0,0,0.1-0.1,0.1h-0.5c0,0-0.1,0-0.1-0.1v-0.5c0,0,0-0.1,0.1-0.1L43,19.8
			C42.9,19.8,43,19.8,43,19.8z M40.4,19.8v0.5c0,0,0,0.1-0.1,0.1h-0.5c0,0-0.1,0-0.1-0.1v-0.5c0,0,0-0.1,0.1-0.1L40.4,19.8
			C40.4,19.8,40.4,19.8,40.4,19.8z M37.9,19.8v0.5c0,0,0,0.1-0.1,0.1h-0.5c0,0-0.1,0-0.1-0.1v-0.5c0,0,0-0.1,0.1-0.1L37.9,19.8
			C37.9,19.8,37.9,19.8,37.9,19.8z M35.8,19.8v0.5c0,0,0,0.1-0.1,0.1h-0.5c0,0-0.1,0-0.1-0.1v-0.5c0,0,0-0.1,0.1-0.1L35.8,19.8
			C35.8,19.8,35.8,19.8,35.8,19.8z M47.6,32.5c-2.2,1.3-4.8,2.1-7.6,2.1c-2.8,0-5.4-0.8-7.6-2.1v0c-0.2-0.1-0.4-0.3-0.7-0.5l-4.3-11
			H34c0,0,0,0,0-0.1v-0.3c0,0,0-0.1,0.1-0.1h12.1c0,0,0.1,0,0.1,0.1v0.3c0,0,0,0,0,0.1h6.4l-4.3,11C48.1,32.1,47.8,32.3,47.6,32.5z"
			/>
	</g>
	<g>
		<path class="st0" d="M126.1,68.1c-4.3,0-8.2-0.7-11.9-2.2c-3.7-1.5-6.8-3.5-9.6-6.1s-4.8-5.7-6.4-9.2c-1.5-3.5-2.3-7.3-2.3-11.3
			c0-4.1,0.8-7.9,2.3-11.4s3.7-6.6,6.4-9.2s5.9-4.6,9.6-6.1s7.6-2.2,11.8-2.2c3.1,0,6.1,0.4,9.1,1.4c3,0.9,5.8,2.2,8.3,3.8
			s4.6,3.6,6.4,5.8l-9.3,9.1c-2-2.5-4.2-4.4-6.6-5.6c-2.4-1.2-5.1-1.8-7.9-1.8c-2.2,0-4.3,0.4-6.3,1.2s-3.6,2-5.1,3.4
			s-2.6,3.1-3.4,5.1s-1.2,4.1-1.2,6.5c0,2.3,0.4,4.4,1.2,6.4c0.8,2,2,3.7,3.4,5.1c1.5,1.5,3.2,2.6,5.2,3.4c2,0.8,4.2,1.2,6.5,1.2
			c2.7,0,5.2-0.6,7.6-1.8s4.4-2.9,6.3-5.2l9,8.9c-1.7,2.2-3.8,4.1-6.3,5.7c-2.5,1.6-5.2,2.9-8.2,3.8
			C132.1,67.7,129.1,68.1,126.1,68.1z"/>
		<path class="st0" d="M182,68.2c-4.2,0-8.1-0.7-11.8-2.2c-3.6-1.5-6.8-3.5-9.5-6.2s-4.8-5.7-6.4-9.2s-2.3-7.3-2.3-11.3
			s0.8-7.8,2.3-11.3s3.6-6.6,6.4-9.2s5.9-4.7,9.5-6.2s7.6-2.2,11.8-2.2s8.1,0.7,11.8,2.2c3.6,1.5,6.8,3.5,9.5,6.2s4.8,5.7,6.4,9.2
			s2.3,7.3,2.3,11.3s-0.8,7.8-2.3,11.3c-1.5,3.5-3.6,6.6-6.4,9.2s-5.9,4.7-9.5,6.2C190.2,67.5,186.2,68.2,182,68.2z M182,55.6
			c2.2,0,4.3-0.4,6.2-1.2s3.6-2,5-3.4c1.4-1.4,2.5-3.2,3.3-5.2s1.2-4.2,1.2-6.4c0-2.3-0.4-4.5-1.2-6.5s-1.9-3.7-3.3-5.1
			s-3.1-2.6-5-3.4s-4-1.2-6.2-1.2s-4.3,0.4-6.2,1.2s-3.6,2-5,3.4c-1.4,1.4-2.5,3.1-3.3,5.1s-1.2,4.1-1.2,6.4c0,2.3,0.4,4.5,1.2,6.5
			s1.9,3.7,3.3,5.2s3.1,2.6,5,3.4C177.7,55.2,179.8,55.6,182,55.6z"/>
		<path class="st0" d="M247.2,68.2c-4.2,0-8.1-0.7-11.8-2.2c-3.6-1.5-6.8-3.5-9.5-6.2s-4.8-5.7-6.4-9.2s-2.3-7.3-2.3-11.3
			s0.8-7.8,2.3-11.3s3.6-6.6,6.4-9.2s5.9-4.7,9.5-6.2s7.6-2.2,11.8-2.2s8.1,0.7,11.8,2.2s6.8,3.5,9.5,6.2s4.8,5.7,6.4,9.2
			s2.3,7.3,2.3,11.3s-0.8,7.8-2.3,11.3c-1.5,3.5-3.6,6.6-6.4,9.2c-2.7,2.6-5.9,4.7-9.5,6.2C255.3,67.5,251.4,68.2,247.2,68.2z
			 M247.2,55.6c2.2,0,4.3-0.4,6.2-1.2s3.6-2,5-3.4c1.4-1.4,2.5-3.2,3.3-5.2s1.2-4.2,1.2-6.4c0-2.3-0.4-4.5-1.2-6.5
			c-0.8-2-1.9-3.7-3.3-5.1s-3.1-2.6-5-3.4s-4-1.2-6.2-1.2s-4.3,0.4-6.2,1.2s-3.6,2-5,3.4c-1.4,1.4-2.5,3.1-3.3,5.1s-1.2,4.1-1.2,6.4
			c0,2.3,0.4,4.5,1.2,6.5s1.9,3.7,3.3,5.2s3.1,2.6,5,3.4C242.8,55.2,244.9,55.6,247.2,55.6z"/>
		<path class="st0" d="M284.4,67.3v-56h29.5c3.7,0,7,0.8,9.8,2.4c2.9,1.6,5.1,3.7,6.8,6.4c1.6,2.7,2.5,5.8,2.5,9.4
			c0,3.4-0.8,6.4-2.5,9.1c-1.6,2.7-3.9,4.8-6.8,6.4s-6.1,2.3-9.8,2.3h-15.8v20.1H284.4z M298.1,35.9h14.2c2,0,3.6-0.6,4.9-1.8
			s1.8-2.7,1.8-4.6c0-1.9-0.6-3.5-1.8-4.7s-2.9-1.8-4.9-1.8h-14.2V35.9z"/>
		<path class="st0" d="M340,67.3v-56h17.4l13.8,26.4L385,11.3h17.4v56h-13V29.2L371,63.3L352.6,29v38.3H340z"/>
		<path class="st0" d="M426.8,67.3V23.5h-18.3V11.3h50.4v12.2h-18.3v43.8H426.8z"/>
	</g>
</g>
</svg>
