<?xml version="1.0" encoding="UTF-8"?>
<svg xmlns="http://www.w3.org/2000/svg" version="1.1" xmlns:xlink="http://www.w3.org/1999/xlink" viewBox="0 0 459 80">
  <defs>
    <style>
      .cls-1 {
        fill: #ffcb04;
      }

      .cls-2 {
        fill: #fff;
      }

      .cls-3 {
        fill: #ed232a;
      }

      .cls-4 {
        fill: #308a40;
      }

      .cls-5 {
        fill: #003876;
      }

      .cls-6 {
        fill: url(#linear-gradient);
      }
    </style>
    <linearGradient id="linear-gradient" x1="25" y1="68.7" x2="55" y2="68.7" gradientTransform="translate(0 82) scale(1 -1)" gradientUnits="userSpaceOnUse">
      <stop offset="0" stop-color="#fff"/>
      <stop offset="1" stop-color="#a7a9ac"/>
    </linearGradient>
  </defs>
  <!-- Generator: Adobe Illustrator 28.7.1, SVG Export Plug-In . SVG Version: 1.2.0 Build 142)  -->
  <g>
    <g id="Layer_1">
      <g>
        <circle class="cls-4" cx="40" cy="40" r="40"/>
        <circle class="cls-1" cx="40" cy="40" r="36"/>
        <g>
          <path class="cls-6" d="M55,20.5c0,.2,0,.4,0,.5h-29.9v-2c.7-7.1,6.5-12.8,13.6-13.4h2.6c7.7.7,13.7,7.1,13.7,14.9Z"/>
          <path class="cls-3" d="M55,21c-.3,8.1-6.9,14.5-15,14.5s-14.2-5.9-14.9-13.5v-1s29.9,0,29.9,0Z"/>
          <g>
            <g>
              <path class="cls-5" d="M39,13.1h2.3s0,0,0,0h0c0-.1,0-.1,0-.1h-2.3s0,0,0,0h0c0,.1,0,.1,0,.1Z"/>
              <path class="cls-5" d="M40.6,11.5s0,0,0,0v1.2s0,0,0,0h.2s0,0,0,0v-1.2s0,0,0,0h-.2Z"/>
              <path class="cls-5" d="M40,11.5s0,0,0,0v1.2s0,0,0,0h.2s0,0,0,0v-1.2s0,0,0,0h-.2Z"/>
              <path class="cls-5" d="M39.4,11.5s0,0,0,0v1.2s0,0,0,0h.2s0,0,0,0v-1.2s0,0,0,0h-.2Z"/>
              <path class="cls-5" d="M40.4,13.6s0,0,0,0v5.3h2s0,0,0,0c0-2.3-.8-4.2-1.9-5.2Z"/>
              <path class="cls-5" d="M44.5,18.9c0,0,0-.2,0-.3,0-.5-.2-1.3-.5-2,0-.2-.2-.4-.3-.6,0,0,0-.1,0-.1-.6-1.1-1.5-2-2.5-2.4h0s.3.3.5.7c.6,1,1,2.1,1.2,3.5,0,.6,0,1,0,.9,0,0,0,.2,0,.3h0s.1,0,.1,0h1.4s0,0,0,0Z"/>
              <path class="cls-5" d="M39,11.4h2.3s0,0,0,0h0c0-.1,0-.1,0-.1h-2.3s0,0,0,0h0c0,.1,0,.1,0,.1Z"/>
              <path class="cls-5" d="M42.3,13.5c0,0,.2.1.3.2.2.2.4.4.6.5.5.6.8,1.1,1.1,1.7.2.3.3.6.4.9,0,0,.2.5.3.9.1.5.2,1.2.2,1.2h.8s0,0,0,0h0c0-2.6-1.7-4.7-3.9-5.6h0s0,0,.2.1c0,0,0,0,.1,0Z"/>
              <path class="cls-5" d="M41,11.1c0-.5-.4-.9-.9-.9h0c0-.1.2-.1.2-.1h0c0-.1,0-.1,0-.1h0s0,0,0,0h0c0,0-.2,0-.2,0v-.3h0s0,0,0,0h0q0-.1,0-.1h0s0,0,0,0h0q0,.1,0,.1h0v.3h-.2c0,0,0,0,0,0h0s0,0,0,0h0c0,.1.2.1.2.1h0c-.5.2-.9.6-.9,1.1h1.8s0,0,0,0Z"/>
              <path class="cls-5" d="M38.5,14.2c.2-.4.5-.7.5-.7h0c-1,.4-1.9,1.3-2.5,2.4,0,0,0,.1,0,.1-.1.2-.2.4-.3.6-.3.7-.4,1.5-.5,2,0,0,0,.2,0,.3h0s0,0,0,0h1.5c0,0,0-.2,0-.3,0,.1,0-.4,0-.9.2-1.4.6-2.6,1.2-3.6Z"/>
              <path class="cls-5" d="M42.9,20.4s0,0,0,0v-.5s0,0,0,0h-.5s0,0,0,0v.5s0,0,0,0h.5Z"/>
              <path class="cls-5" d="M45,20.4s0,0,0,0v-.5s0,0,0,0h-.5s0,0,0,0v.5s0,0,0,0h.5Z"/>
              <path class="cls-5" d="M46.2,19.4h-1.1v-.2s0,0,0,0h-.5s0,0,0,0v.2h-1.4v-.2s0,0,0,0h-.5s0,0,0,0v.2h-1.9v-.2s0,0,0,0h-.5s0,0,0,0v.2h-1.9v-.2s0,0,0,0h-.5s0,0,0,0v.2h-1.4v-.2s0,0,0,0h-.5s0,0,0,0v.2h-1.1s0,0,0,0h0c0,.1,0,.1,0,.1h12.2s0,0,0,0h0c0-.1,0-.1,0-.1Z"/>
              <path class="cls-5" d="M40.3,20.4s0,0,0,0v-.5s0,0,0,0h-.5s0,0,0,0v.5s0,0,0,0h.5Z"/>
              <path class="cls-5" d="M37.8,20.4s0,0,0,0v-.5s0,0,0,0h-.5s0,0,0,0v.5s0,0,0,0h.5Z"/>
              <path class="cls-5" d="M39.8,18.9v-5.3s0,0,0,0c-1.2,1-1.9,3-1.9,5.2h0c0,0,2,0,2,0Z"/>
              <path class="cls-5" d="M34.3,18.9h.9s0-.6.2-1.2c0-.5.2-.9.3-.9,0-.3.2-.6.4-.9.3-.6.6-1.1,1.1-1.7.2-.2.3-.4.6-.5,0,0,.2-.1.2-.2,0,0,0,0,.1,0,0,0,.2-.1.2-.1h0c-2.2.9-3.8,3.1-3.9,5.6h0s0,0,0,0h0Z"/>
              <path class="cls-5" d="M46.2,20.6h-12.1s0,0,0,0v.3s0,0,0,0h12.1s0,0,0,0v-.3s0,0,0,0Z"/>
              <path class="cls-5" d="M35.7,20.4s0,0,0,0v-.5s0,0,0,0h-.5s0,0,0,0v.5s0,0,0,0h.5Z"/>
            </g>
            <g>
              <path class="cls-2" d="M32.1,25.7s0,0,0,0c0,0,0,0,0,0s0,0,0,0c.1,0,.2,0,.3,0s0,0,0-.2v-1.6s0,0,0,0c0,0,0,0,0,0h0c-.3,0-.5,0-.5.2s0,0,0,0c0,0,0,0,0,0,0-.1,0-.3,0-.4,0,0,0,0,0,0h0c.1,0,.4,0,.9,0s.8,0,1,0h0s0,0,0,0c0,.2,0,.3,0,.4,0,0,0,0,0,0s0,0,0,0c0-.1-.2-.2-.5-.2h0c0,0-.1,0-.1.1v1.6c0,0,0,.1,0,.2s.2,0,.3,0c0,0,0,0,0,0s0,0,0,0c0,0,0,0,0,0h-1.1Z"/>
              <path class="cls-2" d="M36.5,25.6s0,0,0,0,0,0,0,0c0,0-.2,0-.2,0s-.2,0-.2,0c0,0-.2-.1-.2-.2l-.5-.6c0,0-.1-.1-.2-.2s-.2,0-.3,0v.6c0,.1,0,.2,0,.2s.2,0,.3,0c0,0,0,0,0,0s0,0,0,0c0,0,0,0,0,0h-1s0,0,0,0c0,0,0,0,0,0s0,0,0,0c0,0,.2,0,.2,0,0,0,0-.1,0-.2v-1.5c0-.1,0-.2,0-.2s-.1,0-.2-.1c0,0,0,0,0,0,0,0,0,0,0,0,0,0,.2,0,.4,0s.2,0,.3,0,.2,0,.3,0c.2,0,.5,0,.6.1.2.1.2.2.2.5s0,.3-.2.4c-.1.1-.2.2-.4.2h0c0,0,.1,0,.2,0,0,0,.1,0,.2.2l.5.6c0,.1.2.2.3.2h0ZM34.9,24.5c.2,0,.4,0,.5,0,0,0,.2-.2.2-.3s0-.3-.1-.4c0,0-.2-.1-.4-.1s-.2,0-.2,0c0,0,0,.1,0,.2v.7h0Z"/>
              <path class="cls-2" d="M39.2,25.6s0,0,0,0,0,0,0,0h-.9s0,0,0,0,0,0,0,0c0,0,0,0,0,0s0,0,0,0,0,0,0-.1,0-.1,0-.2h0c0-.1,0-.1,0-.1,0,0,0,0-.1,0h-.7s0,0-.1,0,0,0,0,0h0c0,.1,0,.2,0,.2s0,0,0,.1,0,0,0,0c0,0,0,0,.1,0s0,0,0,0,0,0,0,0h-.7s0,0,0,0,0,0,0,0c0,0,.1,0,.2,0,0,0,0-.1.2-.3l.5-1.3c.1-.2.2-.4.2-.5s0,0,.1,0c0,0,.1,0,.1,0l.8,1.9c0,.1.1.2.2.3,0,0,0,0,.1,0h0ZM38.2,24.9h0s0,0,0,0c0,0,0,0,0,0l-.4-.9-.4.9s0,0,0,0c0,0,0,0,0,0h.6Z"/>
              <path class="cls-2" d="M41,24.4c.2,0,.3,0,.4.2s.2.2.2.4,0,.4-.2.5c-.2.1-.4.2-.7.2s-.1,0-.3,0c-.1,0-.2,0-.3,0-.2,0-.4,0-.5,0,0,0,0,0,0,0,0,0,0,0,0,0,0,0,.1,0,.1,0s0,0,0,0c0,0,0,0,0,0,0,0,0,0,0-.1v-1.5c0,0,0-.2,0-.2,0,0-.1,0-.2-.1,0,0,0,0,0,0,0,0,0,0,0,0,.1,0,.2,0,.4,0s.2,0,.3,0,.2,0,.2,0c.2,0,.4,0,.5.1.2,0,.2.2.2.4s0,.2-.1.3c0,0-.2.1-.3.2h0ZM40.7,25.5c.2,0,.3,0,.4,0s.1-.2.1-.3,0-.3-.2-.4c0-.1-.2-.1-.4-.1h-.3v.7c0,0,0,.2,0,.2,0,0,.2,0,.3,0h0ZM40.4,23.6s0,.1,0,.2v.6h.3c.2,0,.4-.1.4-.4s0-.3-.1-.3c0,0-.2-.1-.3-.1,0,0-.2,0-.2,0Z"/>
              <path class="cls-2" d="M44.5,25.6s0,0,0,0,0,0,0,0h-.9s0,0,0,0,0,0,0,0c0,0,0,0,0,0s0,0,0,0c0,0,0,0,0-.1,0,0,0-.1,0-.2h0c0-.1,0-.1,0-.1,0,0,0,0-.1,0h-.7s0,0-.1,0,0,0,0,0h0c0,.1,0,.2,0,.2s0,0,0,.1,0,0,0,0c0,0,0,0,.1,0s0,0,0,0,0,0,0,0h-.7s0,0,0,0,0,0,0,0c0,0,.1,0,.2,0,0,0,0-.1.2-.3l.5-1.3c.1-.2.2-.4.2-.5s0,0,.1,0c0,0,.1,0,.1,0l.8,1.9c0,.1.1.2.2.3,0,0,0,0,.1,0h0ZM43.5,24.9h0s0,0,0,0c0,0,0,0,0,0l-.4-.9-.4.9s0,0,0,0c0,0,0,0,0,0h.6Z"/>
              <path class="cls-2" d="M44.9,26.4s0,0,0,0,0,0,0,0c0,0,0,0,0,0,0,0,.2,0,.2-.2s0-.2,0-.4v-1.9c0-.1,0-.2,0-.2,0,0-.1,0-.2,0,0,0,0,0,0,0s0,0,0,0t0,0h.9s0,0,0,0c0,0,0,0,0,0s0,0,0,0c0,0-.2,0-.2,0,0,0,0,.1,0,.2v1.9c0,.2,0,.3-.2.5-.1.1-.3.2-.4.2h0Z"/>
              <path class="cls-2" d="M47.4,25.7c-.3,0-.6-.1-.8-.3-.2-.2-.3-.5-.3-.8s.1-.6.3-.9.5-.4.9-.4.6.1.8.3.3.5.3.8-.1.6-.3.9-.5.4-.9.4h0ZM47.5,25.5c0,0,.2,0,.2,0,0,0,.2,0,.2-.1,0,0,.1-.1.2-.2,0-.1,0-.2,0-.4,0-.3,0-.6-.3-.8-.2-.2-.4-.3-.6-.3s-.2,0-.2,0c0,0-.1,0-.2.1s-.1.1-.2.2,0,.2,0,.4c0,.3,0,.6.3.8.2.2.4.3.6.3h0Z"/>
            </g>
          </g>
        </g>
        <g>
          <g>
            <polygon class="cls-4" points="24.5 13.5 9 53.2 40 53.2 24.5 13.5"/>
            <rect class="cls-4" x="19.5" y="38.5" width="10" height="28"/>
          </g>
          <g>
            <polygon class="cls-4" points="55.5 13.5 40 53.2 71 53.2 55.5 13.5"/>
            <rect class="cls-4" x="50.5" y="38.5" width="10" height="28"/>
          </g>
        </g>
      </g>
      <g>
        <path class="cls-4" d="M131.8,7.4c-3.6-1.8-7.7-2.7-12.3-2.7s-8.8.9-12.3,2.8c-3.6,1.8-6.3,4.4-8.3,7.8-1.9,3.3-2.9,7.2-2.9,11.7v25.8c0,4.5,1,8.4,2.9,11.8,1.9,3.4,4.7,6,8.3,7.9,3.6,1.8,7.7,2.8,12.3,2.8s8.8-.9,12.3-2.7c3.6-1.8,6.3-4.4,8.3-7.7,1.9-3.3,2.9-7.1,2.9-11.5v-.3c0-.3-.1-.6-.3-.9-.2-.3-.5-.4-.8-.4l-13.7-.6c-.8,0-1.2.4-1.2,1.1v1.1c0,2.2-.6,3.9-1.9,5.3-1.3,1.3-3,2-5.1,2s-3.8-.7-5.1-2c-1.3-1.3-1.9-3.1-1.9-5.3v-26.8c0-2.2.6-3.9,1.9-5.3,1.3-1.3,3-2,5.1-2s3.8.7,5.1,2c1.3,1.3,1.9,3.1,1.9,5.3v1.1c0,.7.4,1.1,1.2,1.1l13.7-.6c.3,0,.6-.1.8-.4.2-.3.3-.5.3-.9v-.5c0-4.3-1-8.1-2.9-11.4-1.9-3.3-4.7-5.8-8.3-7.6Z"/>
        <path class="cls-4" d="M185.5,7.4c-3.6-1.9-7.8-2.9-12.5-2.9s-8.9,1-12.5,2.9c-3.6,1.9-6.4,4.6-8.4,8-2,3.5-3,7.5-3,12v24.9c0,4.6,1,8.7,3,12.1,2,3.5,4.8,6.2,8.4,8.1,3.6,1.9,7.8,2.9,12.5,2.9s8.9-1,12.5-2.9c3.6-1.9,6.4-4.6,8.4-8.1,2-3.5,3-7.5,3-12.1v-24.9c0-4.5-1-8.5-3-12-2-3.5-4.8-6.1-8.4-8ZM181,52.8c0,2.5-.7,4.5-2,6-1.4,1.5-3.2,2.3-5.5,2.3s-4.1-.8-5.5-2.3c-1.4-1.5-2-3.5-2-6v-25.5c0-2.5.7-4.6,2-6.1,1.4-1.5,3.2-2.3,5.5-2.3s4,.8,5.4,2.3c1.4,1.6,2.1,3.6,2.1,6v25.5Z"/>
        <path class="cls-4" d="M239.5,7.4c-3.6-1.9-7.8-2.9-12.5-2.9s-8.9,1-12.5,2.9c-3.6,1.9-6.4,4.6-8.4,8-2,3.5-3,7.5-3,12v24.9c0,4.6,1,8.7,3,12.1,2,3.5,4.8,6.2,8.4,8.1,3.6,1.9,7.8,2.9,12.5,2.9s8.9-1,12.5-2.9c3.6-1.9,6.4-4.6,8.4-8.1,2-3.5,3-7.5,3-12.1v-24.9c0-4.5-1-8.5-3-12-2-3.5-4.8-6.1-8.4-8ZM235,52.8c0,2.5-.7,4.5-2,6-1.4,1.5-3.2,2.3-5.5,2.3s-4.1-.8-5.5-2.3c-1.4-1.5-2-3.5-2-6v-25.5c0-2.5.7-4.6,2-6.1,1.4-1.5,3.2-2.3,5.5-2.3s4,.8,5.4,2.3c1.4,1.6,2.1,3.6,2.1,6v25.5Z"/>
        <path class="cls-4" d="M295.1,7.8c-3.2-1.8-6.9-2.7-11-2.7h-25c-.3,0-.6.1-.8.3s-.3.5-.3.8v66.6c0,.3.1.6.3.8.2.2.5.3.8.3h13.7c.3,0,.6-.1.8-.3.2-.2.3-.5.3-.8v-24.3c0-.3.2-.5.5-.5h9.6c4.1,0,7.8-.9,11-2.6,3.2-1.7,5.7-4.2,7.4-7.4,1.7-3.2,2.6-6.9,2.6-11.1s-.9-8.1-2.6-11.4c-1.7-3.3-4.2-5.9-7.4-7.7ZM286.4,33c-1.4,1.4-3.2,2.1-5.4,2.1h-6.5c-.3,0-.5-.2-.5-.5v-15c0-.3.2-.5.5-.5h6.5c2.2,0,4,.7,5.4,2.2,1.4,1.5,2.1,3.5,2.1,5.9s-.7,4.3-2.1,5.7Z"/>
        <path class="cls-4" d="M348.1,40.4c-2.1-1.5-4.9-3.2-8.5-5.2l-2.9-1.6c-3.1-1.6-5.5-2.8-7-3.7-1.5-.9-2.7-1.8-3.4-2.8-.7-.9-1.1-2-1.1-3.3s.5-3,1.6-4c1-1,2.5-1.5,4.4-1.5s4.2.7,5.6,2c1.4,1.3,2.1,2.9,2.1,4.8v1.7c0,.3.1.6.3.8.2.2.5.3.8.3h13.6c.3,0,.6-.1.8-.3.2-.2.3-.5.3-.8v-1.9c0-4-1-7.6-3-10.7-2-3.1-4.8-5.5-8.3-7.2-3.5-1.7-7.6-2.6-12.1-2.6s-8.3.8-11.7,2.4c-3.4,1.6-6.1,3.8-8,6.8-1.9,2.9-2.9,6.3-2.9,10.2s.9,7.2,2.8,10c1.9,2.8,4.1,5.1,6.7,6.8,2.6,1.7,5.8,3.5,9.5,5.3,3.2,1.6,5.5,2.8,6.8,3.5,1.3.7,2.3,1.5,3.1,2.4.8.9,1.1,1.9,1.1,3.2s-.5,2.8-1.6,3.8c-1,1-2.6,1.6-4.6,1.6s-4.4-.6-5.8-1.9c-1.4-1.3-2.2-2.8-2.2-4.6v-1.8c0-.3-.1-.6-.3-.8-.2-.2-.5-.3-.8-.3h-13.6c-.3,0-.6.1-.8.3-.2.2-.3.5-.3.8v2.5c0,3.9,1,7.3,2.9,10.3,1.9,3,4.7,5.2,8.2,6.9,3.5,1.6,7.6,2.4,12.3,2.4,6.9,0,12.5-1.8,16.8-5.3,4.2-3.5,6.3-8.4,6.3-14.5s-.7-6.1-2.1-8.5c-1.4-2.3-3.2-4.3-5.3-5.7Z"/>
        <path class="cls-4" d="M403.8,6.1h-40.7c-.3,0-.6.1-.8.3-.2.2-.3.5-.3.8v65.6c0,.3.1.6.3.8.2.2.5.3.8.3h40.7c.3,0,.6-.1.8-.3.2-.2.3-.5.3-.8v-11.6c0-.3-.1-.6-.3-.8-.2-.2-.5-.3-.8-.3h-25.3c-.3,0-.5-.2-.5-.5v-13c0-.3.2-.5.5-.5h15.3c.3,0,.6-.1.8-.4.2-.2.3-.5.3-.9v-10.6c0-.3-.1-.6-.3-.8-.2-.2-.5-.3-.8-.3h-15.3c-.3,0-.5-.2-.5-.5v-12c0-.3.2-.5.5-.5h25.3c.3,0,.6-.1.8-.3.2-.2.3-.5.3-.8V7.3c0-.3-.1-.6-.3-.8-.2-.2-.5-.3-.8-.3Z"/>
        <path class="cls-4" d="M457.7,6.4c-.2-.2-.5-.3-.8-.3h-45.7c-.3,0-.6.1-.8.3-.2.2-.3.5-.3.8v10.8c0,.3.1.6.3.8.2.2.5.3.8.3h14.3c.3,0,.5.2.5.5v53.3c0,.3.1.6.3.8.2.2.5.3.8.3h13.7c.3,0,.6-.1.8-.3.2-.2.3-.5.3-.8V19.6c0-.3.2-.5.5-.5h14.3c.3,0,.6-.1.8-.3.2-.2.3-.5.3-.8V7.2c0-.3-.1-.6-.3-.8Z"/>
      </g>
    </g>
  </g>
</svg>