<?xml version="1.0" encoding="utf-8"?>
<!-- Generator: Adobe Illustrator 28.0.0, SVG Export Plug-In . SVG Version: 6.00 Build 0)  -->
<svg version="1.1" id="Layer_1" xmlns="http://www.w3.org/2000/svg" xmlns:xlink="http://www.w3.org/1999/xlink" x="0px" y="0px"
	 viewBox="0 0 459 80" style="enable-background:new 0 0 459 80;" xml:space="preserve">
<style type="text/css">
	.st0{fill:#308A40;}
	.st1{fill:#FFCB04;}
	.st2{fill:url(#SVGID_1_);}
	.st3{fill:#ED232A;}
	.st4{fill:#003876;}
	.st5{fill:#FFFFFF;}
</style>
<g>
	<g>
		<circle class="st0" cx="40" cy="40" r="40"/>
		<circle class="st1" cx="40" cy="40" r="36"/>
		<g>
			<linearGradient id="SVGID_1_" gradientUnits="userSpaceOnUse" x1="25.051" y1="13.2523" x2="55" y2="13.2523">
				<stop  offset="0" style="stop-color:#FFFFFF"/>
				<stop  offset="1" style="stop-color:#A7A9AC"/>
			</linearGradient>
			<path class="st2" d="M55,20.47c0,0.17,0,0.35-0.01,0.52H25.05v-2.03c0.72-7.15,6.45-12.82,13.63-13.44h2.61
				C48.97,6.18,55,12.62,55,20.47z"/>
			<path class="st3" d="M54.99,20.99c-0.27,8.05-6.89,14.5-15,14.5c-7.78,0-14.18-5.92-14.94-13.5v-1H54.99z"/>
			<g>
				<g>
					<path class="st4" d="M38.95,13.14h2.28c0.02,0,0.04-0.02,0.04-0.04v-0.09c0-0.02-0.02-0.04-0.04-0.04h-2.28
						c-0.02,0-0.04,0.02-0.04,0.04v0.09C38.91,13.12,38.93,13.14,38.95,13.14z"/>
					<path class="st4" d="M40.56,11.51c-0.04,0-0.07,0.03-0.07,0.07v1.19c0,0.04,0.03,0.07,0.07,0.07h0.22
						c0.04,0,0.07-0.03,0.07-0.07v-1.19c0-0.04-0.03-0.07-0.07-0.07H40.56z"/>
					<path class="st4" d="M39.98,11.51c-0.04,0-0.07,0.03-0.07,0.07v1.19c0,0.04,0.03,0.07,0.07,0.07h0.22
						c0.04,0,0.07-0.03,0.07-0.07v-1.19c0-0.04-0.03-0.07-0.07-0.07H39.98z"/>
					<path class="st4" d="M39.4,11.51c-0.04,0-0.07,0.03-0.07,0.07v1.19c0,0.04,0.03,0.07,0.07,0.07h0.22
						c0.04,0,0.07-0.03,0.07-0.07v-1.19c0-0.04-0.03-0.07-0.07-0.07H39.4z"/>
					<path class="st4" d="M40.42,13.63c-0.01-0.01-0.02-0.02-0.02-0.02v5.33l1.96,0.01c0,0,0-0.05,0-0.08
						C42.35,16.59,41.57,14.62,40.42,13.63z"/>
					<path class="st4" d="M44.45,18.92c-0.01-0.09-0.02-0.19-0.03-0.28c-0.05-0.54-0.18-1.26-0.48-1.99
						c-0.08-0.2-0.18-0.41-0.29-0.61c-0.03-0.05-0.06-0.1-0.09-0.15c-0.6-1.11-1.46-1.96-2.46-2.4l0,0c0,0,0,0,0,0l0.01,0.01
						c0,0,0.29,0.28,0.54,0.67c0.63,0.98,1.05,2.12,1.2,3.54c0.06,0.59,0.06,1.05,0.05,0.94c0,0.08,0.01,0.22,0.01,0.26l0,0.02h0.13
						l1.4,0v0h0.01C44.45,18.94,44.45,18.93,44.45,18.92z"/>
					<path class="st4" d="M38.95,11.41h2.28c0.02,0,0.04-0.02,0.04-0.04v-0.09c0-0.02-0.02-0.04-0.04-0.04h-2.28
						c-0.02,0-0.04,0.02-0.04,0.04v0.09C38.91,11.4,38.93,11.41,38.95,11.41z"/>
					<path class="st4" d="M42.27,13.52c0.07,0.05,0.16,0.12,0.26,0.2c0.22,0.18,0.4,0.37,0.57,0.54c0.54,0.57,0.84,1.12,1.14,1.7
						c0.16,0.32,0.27,0.62,0.36,0.89c0.02,0.05,0.17,0.46,0.26,0.93c0.11,0.55,0.17,1.17,0.17,1.17h0.84c0,0,0-0.01,0-0.01
						l0.03,0.01c0,0,0,0,0-0.01c-0.09-2.55-1.7-4.71-3.94-5.62c0,0-0.01,0-0.01,0s0.08,0.04,0.19,0.11
						C42.17,13.45,42.22,13.49,42.27,13.52z"/>
					<path class="st4" d="M40.98,11.13c0-0.5-0.39-0.91-0.87-0.91v-0.15h0.24v-0.03l0,0V9.95c0,0,0-0.01-0.01-0.01h-0.04
						c0,0-0.01,0-0.01,0.01v0.09h-0.19V9.7h0c0.01,0,0.01,0,0.01-0.01V9.59c0-0.01,0-0.01-0.01-0.01h-0.04c-0.01,0-0.01,0-0.01,0.01
						v0.09c0,0.01,0,0.01,0.01,0.01h0.01v0.34h-0.19V9.95c0,0,0-0.01-0.01-0.01h-0.04c0,0-0.01,0-0.01,0.01v0.09l0,0v0.03h0.24v0.15
						c-0.48,0.01-0.87,0.41-0.87,0.92c0,0,0,0,0,0L40.98,11.13C40.98,11.14,40.98,11.13,40.98,11.13z"/>
					<path class="st4" d="M38.54,14.19c0.25-0.4,0.54-0.67,0.54-0.67l0.01-0.01c0,0,0,0,0,0l0,0c-1,0.43-1.86,1.29-2.46,2.4
						c-0.03,0.05-0.06,0.1-0.09,0.15c-0.11,0.2-0.2,0.4-0.29,0.61c-0.3,0.72-0.42,1.45-0.48,1.99c-0.01,0.09-0.02,0.19-0.03,0.28
						c0,0,0,0.02,0,0.02h0.01v0l1.4,0h0.13l0-0.02c0-0.05,0-0.18,0.01-0.26c0,0.12-0.01-0.35,0.05-0.94
						C37.49,16.32,37.92,15.17,38.54,14.19z"/>
					<path class="st4" d="M42.89,20.41c0.04,0,0.07-0.03,0.07-0.07v-0.52c0-0.04-0.03-0.07-0.07-0.07h-0.52
						c-0.04,0-0.07,0.03-0.07,0.07v0.52c0,0.04,0.03,0.07,0.07,0.07H42.89z"/>
					<path class="st4" d="M44.98,20.41c0.04,0,0.07-0.03,0.07-0.07v-0.52c0-0.04-0.03-0.07-0.07-0.07h-0.52
						c-0.04,0-0.07,0.03-0.07,0.07v0.52c0,0.04,0.03,0.07,0.07,0.07H44.98z"/>
					<path class="st4" d="M46.19,19.38h-0.03h0h-1.12v-0.2c0-0.03-0.03-0.06-0.06-0.06h-0.54c-0.03,0-0.06,0.03-0.06,0.06v0.2h-1.43
						v-0.2c0-0.03-0.03-0.06-0.06-0.06h-0.54c-0.03,0-0.06,0.03-0.06,0.06v0.2h-1.88v-0.2c0-0.03-0.03-0.06-0.06-0.06h-0.54
						c-0.03,0-0.06,0.03-0.06,0.06v0.2h-1.88v-0.2c0-0.03-0.03-0.06-0.06-0.06h-0.54c-0.03,0-0.06,0.03-0.06,0.06v0.2H35.8v-0.2
						c0-0.03-0.03-0.06-0.06-0.06h-0.54c-0.03,0-0.06,0.03-0.06,0.06v0.2h-1.11h0H34c-0.02,0-0.04,0.02-0.04,0.04v0.1
						c0,0.02,0.02,0.04,0.04,0.04H46.2c0.02,0,0.04-0.02,0.04-0.04v-0.03v-0.04v-0.03C46.23,19.39,46.22,19.38,46.19,19.38z"/>
					<path class="st4" d="M40.35,20.41c0.04,0,0.07-0.03,0.07-0.07v-0.52c0-0.04-0.03-0.07-0.07-0.07h-0.52
						c-0.04,0-0.07,0.03-0.07,0.07v0.52c0,0.04,0.03,0.07,0.07,0.07H40.35z"/>
					<path class="st4" d="M37.82,20.41c0.04,0,0.07-0.03,0.07-0.07v-0.52c0-0.04-0.03-0.07-0.07-0.07h-0.52
						c-0.04,0-0.07,0.03-0.07,0.07v0.52c0,0.04,0.03,0.07,0.07,0.07H37.82z"/>
					<path class="st4" d="M39.8,18.94v-5.33c0,0-0.02,0.01-0.02,0.02c-1.15,0.99-1.93,2.96-1.93,5.24c0,0.03,0,0.08,0,0.08
						L39.8,18.94z"/>
					<path class="st4" d="M34.33,18.94h0.33l0.29,0v0h0.23c0,0,0.06-0.62,0.17-1.17c0.09-0.47,0.24-0.88,0.26-0.93
						c0.09-0.27,0.2-0.57,0.36-0.89c0.3-0.58,0.59-1.12,1.14-1.7c0.16-0.17,0.35-0.36,0.57-0.54c0.09-0.08,0.18-0.14,0.25-0.2
						c0.05-0.03,0.1-0.07,0.14-0.09c0.1-0.07,0.19-0.11,0.19-0.11s-0.01,0-0.01,0c-2.24,0.91-3.85,3.07-3.94,5.62c0,0,0,0.01,0,0.01
						L34.33,18.94L34.33,18.94z"/>
					<path class="st4" d="M46.16,20.57H34.03c-0.04,0-0.07,0.03-0.07,0.07v0.29c0,0.04,0.03,0.07,0.07,0.07h12.13
						c0.04,0,0.07-0.03,0.07-0.07v-0.29C46.23,20.6,46.2,20.57,46.16,20.57z"/>
					<path class="st4" d="M35.73,20.41c0.04,0,0.07-0.03,0.07-0.07v-0.52c0-0.04-0.03-0.07-0.07-0.07h-0.52
						c-0.04,0-0.07,0.03-0.07,0.07v0.52c0,0.04,0.03,0.07,0.07,0.07H35.73z"/>
				</g>
				<g>
					<path class="st5" d="M32.12,25.67c-0.01,0-0.02-0.01-0.02-0.03c-0.01-0.02-0.01-0.04-0.01-0.05s0-0.02,0.01-0.03
						c0.13-0.02,0.22-0.04,0.28-0.08s0.09-0.09,0.09-0.18V23.7c0-0.04-0.01-0.07-0.02-0.09c-0.02-0.02-0.04-0.02-0.08-0.02h-0.09
						c-0.3,0-0.48,0.07-0.55,0.21c-0.02,0.04-0.05,0.05-0.09,0.04c-0.03-0.01-0.04-0.02-0.04-0.04c0.04-0.15,0.06-0.28,0.08-0.39
						c0-0.03,0.01-0.05,0.02-0.05s0.04,0,0.07,0c0.14,0.01,0.44,0.02,0.91,0.02c0.52,0,0.85-0.01,0.99-0.02c0.04,0,0.06,0,0.08,0
						c0.02,0,0.02,0.02,0.01,0.05c-0.05,0.16-0.08,0.29-0.1,0.39c0,0.03-0.02,0.04-0.05,0.04c-0.03,0-0.05-0.01-0.06-0.04
						c-0.03-0.14-0.18-0.21-0.46-0.21H33c-0.08,0-0.13,0.04-0.13,0.11v1.61c0,0.08,0.03,0.14,0.09,0.17
						c0.06,0.03,0.16,0.06,0.28,0.08c0.01,0,0.01,0.01,0.01,0.03c0,0.02,0,0.03-0.01,0.05c-0.01,0.02-0.02,0.03-0.03,0.03
						L32.12,25.67L32.12,25.67z"/>
					<path class="st5" d="M36.53,25.59c0.01,0,0.02,0.01,0.02,0.04s-0.01,0.05-0.02,0.05c-0.07,0.02-0.15,0.03-0.23,0.03
						s-0.16-0.01-0.24-0.05c-0.08-0.04-0.16-0.1-0.22-0.18l-0.5-0.64c-0.07-0.08-0.14-0.14-0.22-0.17s-0.19-0.04-0.32-0.04v0.63
						c0,0.1,0.03,0.18,0.09,0.21s0.15,0.07,0.28,0.08c0.01,0,0.01,0.01,0.01,0.03s0,0.04-0.01,0.06c0,0.02-0.01,0.03-0.02,0.03
						h-0.99c-0.01,0-0.02-0.01-0.02-0.03c-0.01-0.02-0.01-0.04-0.01-0.06s0-0.03,0.01-0.03c0.09-0.01,0.16-0.04,0.2-0.08
						c0.05-0.04,0.07-0.11,0.07-0.21v-1.45c0-0.1-0.02-0.17-0.07-0.22s-0.11-0.08-0.2-0.1c-0.01,0-0.02-0.03-0.01-0.06
						c0.01-0.04,0.01-0.05,0.03-0.05c0.1,0.01,0.23,0.02,0.38,0.02c0.09,0,0.2,0,0.34-0.01c0.14-0.01,0.24-0.01,0.28-0.01
						c0.25,0,0.45,0.05,0.6,0.15c0.15,0.1,0.22,0.25,0.22,0.45c0,0.18-0.06,0.31-0.17,0.42c-0.12,0.1-0.25,0.16-0.41,0.16v0.02
						c0.07,0,0.12,0.02,0.18,0.05c0.05,0.03,0.12,0.09,0.19,0.18l0.49,0.61C36.35,25.53,36.44,25.59,36.53,25.59L36.53,25.59z
						 M34.9,24.49c0.25,0,0.43-0.03,0.52-0.09c0.1-0.06,0.15-0.16,0.15-0.32c0-0.17-0.05-0.3-0.14-0.38
						c-0.09-0.09-0.22-0.13-0.37-0.13c-0.09,0-0.16,0.02-0.2,0.06c-0.04,0.04-0.06,0.11-0.06,0.2v0.67L34.9,24.49L34.9,24.49z"/>
					<path class="st5" d="M39.25,25.56c0.02,0,0.03,0.02,0.03,0.06c0,0.03-0.01,0.05-0.03,0.05h-0.86c-0.02,0-0.03-0.02-0.03-0.05
						c0-0.03,0.01-0.05,0.02-0.06c0.04-0.01,0.07-0.01,0.09-0.02c0.02-0.01,0.04-0.03,0.07-0.05s0.03-0.06,0.02-0.1
						s-0.02-0.1-0.05-0.17l-0.03-0.08c-0.01-0.04-0.03-0.06-0.06-0.07c-0.03-0.01-0.07-0.01-0.12-0.01h-0.66
						c-0.05,0-0.09,0-0.12,0.01c-0.03,0.01-0.05,0.03-0.06,0.07l-0.03,0.08c-0.03,0.07-0.05,0.12-0.05,0.17
						c0,0.05,0.01,0.08,0.03,0.1c0.02,0.02,0.05,0.04,0.07,0.05c0.03,0.01,0.06,0.02,0.11,0.02c0.02,0,0.03,0.02,0.03,0.06
						s-0.02,0.05-0.04,0.05h-0.7c-0.02,0-0.03-0.02-0.03-0.05c0-0.03,0-0.05,0.03-0.06c0.07-0.01,0.13-0.04,0.18-0.08
						c0.05-0.04,0.1-0.13,0.15-0.26l0.55-1.26c0.11-0.25,0.16-0.43,0.16-0.54c0-0.01,0.04-0.03,0.12-0.04
						c0.08-0.02,0.12-0.02,0.12-0.01l0.79,1.85c0.06,0.13,0.11,0.22,0.15,0.26C39.12,25.52,39.18,25.54,39.25,25.56L39.25,25.56z
						 M38.25,24.87c0.02,0,0.03,0,0.04,0c0.01,0,0.02-0.01,0.03-0.01c0.01-0.01,0.01-0.02,0-0.03l-0.38-0.91l-0.38,0.91
						c-0.01,0.02,0,0.03,0.01,0.04c0.02,0.01,0.04,0.01,0.07,0.01L38.25,24.87L38.25,24.87z"/>
					<path class="st5" d="M41.03,24.42c0.16,0,0.3,0.05,0.42,0.16s0.18,0.25,0.18,0.42c0,0.2-0.08,0.36-0.25,0.48
						c-0.17,0.12-0.39,0.18-0.66,0.18c-0.05,0-0.13,0-0.26-0.01c-0.13-0.01-0.23-0.01-0.32-0.01c-0.22,0-0.39,0.01-0.51,0.02
						c-0.01,0-0.02-0.02-0.03-0.05c-0.01-0.04,0-0.06,0.01-0.06c0.07-0.02,0.11-0.03,0.14-0.04c0.03-0.01,0.06-0.02,0.1-0.05
						c0.04-0.02,0.07-0.05,0.08-0.09c0.01-0.04,0.02-0.08,0.02-0.14v-1.45c0-0.09-0.02-0.16-0.07-0.21c-0.05-0.04-0.12-0.07-0.2-0.1
						c-0.01,0-0.02-0.02-0.01-0.06c0.01-0.04,0.01-0.05,0.03-0.05c0.11,0.01,0.24,0.02,0.39,0.02c0.1,0,0.21,0,0.34-0.01
						c0.13-0.01,0.22-0.01,0.25-0.01c0.22,0,0.4,0.05,0.55,0.14c0.15,0.09,0.22,0.22,0.22,0.4c0,0.13-0.04,0.24-0.12,0.33
						c-0.08,0.09-0.18,0.14-0.3,0.17L41.03,24.42L41.03,24.42z M40.7,25.5c0.16,0,0.28-0.03,0.37-0.09
						c0.09-0.06,0.13-0.17,0.13-0.33c0-0.17-0.05-0.31-0.15-0.4c-0.1-0.1-0.23-0.14-0.39-0.14h-0.34v0.71
						c0,0.09,0.03,0.16,0.09,0.21C40.47,25.48,40.57,25.5,40.7,25.5L40.7,25.5z M40.38,23.6c-0.03,0.03-0.05,0.1-0.05,0.19v0.58
						h0.34c0.25,0,0.37-0.12,0.37-0.37c0-0.15-0.05-0.26-0.13-0.34c-0.09-0.08-0.2-0.12-0.34-0.12
						C40.47,23.55,40.41,23.57,40.38,23.6z"/>
					<path class="st5" d="M44.46,25.56c0.02,0,0.03,0.02,0.03,0.06c0,0.03-0.01,0.05-0.03,0.05h-0.86c-0.02,0-0.03-0.02-0.03-0.05
						c0-0.03,0.01-0.05,0.02-0.06c0.04-0.01,0.07-0.01,0.09-0.02c0.02-0.01,0.05-0.03,0.07-0.05c0.02-0.02,0.03-0.06,0.02-0.1
						c0-0.04-0.02-0.1-0.05-0.17l-0.03-0.08c-0.01-0.04-0.03-0.06-0.06-0.07c-0.03-0.01-0.07-0.01-0.12-0.01h-0.66
						c-0.05,0-0.09,0-0.12,0.01s-0.05,0.03-0.06,0.07l-0.03,0.08c-0.03,0.07-0.05,0.12-0.05,0.17c0,0.05,0.01,0.08,0.03,0.1
						c0.02,0.02,0.05,0.04,0.07,0.05c0.03,0.01,0.06,0.02,0.11,0.02c0.02,0,0.03,0.02,0.03,0.06c0,0.03-0.02,0.05-0.04,0.05h-0.7
						c-0.02,0-0.03-0.02-0.03-0.05c0-0.03,0-0.05,0.03-0.06c0.07-0.01,0.13-0.04,0.18-0.08c0.05-0.04,0.1-0.13,0.15-0.26l0.55-1.26
						c0.11-0.25,0.16-0.43,0.16-0.54c0-0.01,0.04-0.03,0.12-0.04c0.08-0.02,0.12-0.02,0.12-0.01l0.79,1.85
						c0.06,0.13,0.11,0.22,0.15,0.26C44.34,25.52,44.39,25.54,44.46,25.56L44.46,25.56z M43.47,24.87c0.02,0,0.03,0,0.05,0
						c0.01,0,0.02-0.01,0.03-0.01c0.01-0.01,0.01-0.02,0-0.03l-0.38-0.91l-0.38,0.91c-0.01,0.02,0,0.03,0.01,0.04
						c0.02,0.01,0.04,0.01,0.07,0.01L43.47,24.87L43.47,24.87z"/>
					<path class="st5" d="M44.86,26.37c-0.01,0-0.03-0.01-0.04-0.03s-0.02-0.04-0.02-0.05c0-0.02,0-0.03,0.01-0.03
						c0.08-0.01,0.15-0.06,0.21-0.16s0.09-0.23,0.09-0.41v-1.91c0-0.1-0.02-0.18-0.07-0.21c-0.05-0.04-0.12-0.07-0.2-0.08
						c-0.01,0-0.01-0.01-0.01-0.03c0-0.02,0-0.03,0.01-0.05c0.01-0.02,0.01-0.02,0.02-0.02h0.89c0.01,0,0.02,0.01,0.02,0.02
						c0.01,0.02,0.01,0.03,0.01,0.05c0,0.02,0,0.03-0.01,0.03c-0.08,0.01-0.15,0.04-0.2,0.08c-0.05,0.04-0.07,0.11-0.07,0.21v1.91
						c0,0.16-0.08,0.31-0.23,0.46C45.13,26.29,44.99,26.37,44.86,26.37L44.86,26.37z"/>
					<path class="st5" d="M47.41,25.72c-0.34,0-0.62-0.11-0.84-0.34c-0.22-0.22-0.33-0.51-0.33-0.84c0-0.34,0.11-0.62,0.33-0.86
						s0.5-0.35,0.86-0.35c0.34,0,0.62,0.11,0.84,0.33c0.22,0.22,0.33,0.5,0.33,0.84s-0.11,0.63-0.33,0.86S47.76,25.72,47.41,25.72
						L47.41,25.72z M47.53,25.5c0.08,0,0.15-0.01,0.23-0.04c0.07-0.03,0.15-0.07,0.21-0.13c0.07-0.06,0.13-0.14,0.17-0.25
						c0.04-0.11,0.06-0.24,0.06-0.38c0-0.32-0.09-0.59-0.28-0.81c-0.18-0.22-0.4-0.33-0.64-0.33c-0.08,0-0.15,0.01-0.23,0.04
						c-0.07,0.03-0.14,0.07-0.21,0.13c-0.07,0.06-0.12,0.14-0.16,0.25c-0.04,0.11-0.06,0.24-0.06,0.38c0,0.32,0.09,0.59,0.28,0.81
						C47.08,25.39,47.29,25.5,47.53,25.5L47.53,25.5z"/>
				</g>
			</g>
		</g>
		<g>
			<g>
				<polygon class="st0" points="24.5,13.5 9,53.25 40,53.25 				"/>
				<rect x="19.5" y="38.5" class="st0" width="10" height="28"/>
			</g>
			<g>
				<polygon class="st0" points="55.5,13.5 40,53.25 71,53.25 				"/>
				<rect x="50.5" y="38.5" class="st0" width="10" height="28"/>
			</g>
		</g>
	</g>
	<g>
		<path class="st0" d="M126.12,68.12c-4.27,0-8.23-0.73-11.88-2.2c-3.65-1.47-6.84-3.51-9.56-6.12c-2.72-2.61-4.84-5.67-6.36-9.16
			c-1.52-3.49-2.28-7.27-2.28-11.32c0-4.11,0.76-7.91,2.28-11.4c1.52-3.49,3.65-6.55,6.4-9.16c2.75-2.61,5.95-4.65,9.6-6.12
			c3.65-1.47,7.59-2.2,11.8-2.2c3.09,0,6.13,0.45,9.12,1.36c2.99,0.91,5.75,2.17,8.28,3.8c2.53,1.63,4.65,3.56,6.36,5.8l-9.28,9.12
			c-1.97-2.51-4.17-4.37-6.6-5.6c-2.43-1.23-5.05-1.84-7.88-1.84c-2.24,0-4.33,0.41-6.28,1.24c-1.95,0.83-3.64,1.96-5.08,3.4
			s-2.56,3.15-3.36,5.12c-0.8,1.97-1.2,4.13-1.2,6.48c0,2.29,0.41,4.41,1.24,6.36c0.83,1.95,1.97,3.65,3.44,5.12
			c1.47,1.47,3.2,2.6,5.2,3.4c2,0.8,4.17,1.2,6.52,1.2c2.72,0,5.24-0.59,7.56-1.76c2.32-1.17,4.41-2.91,6.28-5.2l9.04,8.88
			c-1.71,2.19-3.81,4.09-6.32,5.72c-2.51,1.63-5.23,2.88-8.16,3.76C132.07,67.68,129.11,68.12,126.12,68.12z"/>
		<path class="st0" d="M182.04,68.2c-4.21,0-8.13-0.73-11.76-2.2c-3.63-1.47-6.8-3.52-9.52-6.16c-2.72-2.64-4.84-5.71-6.36-9.2
			c-1.52-3.49-2.28-7.27-2.28-11.32c0-4.05,0.76-7.83,2.28-11.32c1.52-3.49,3.64-6.56,6.36-9.2c2.72-2.64,5.89-4.69,9.52-6.16
			c3.63-1.47,7.55-2.2,11.76-2.2s8.13,0.73,11.76,2.2c3.63,1.47,6.8,3.52,9.52,6.16s4.84,5.71,6.36,9.2
			c1.52,3.49,2.28,7.27,2.28,11.32c0,4.05-0.76,7.83-2.28,11.32c-1.52,3.49-3.64,6.56-6.36,9.2c-2.72,2.64-5.89,4.69-9.52,6.16
			C190.17,67.47,186.25,68.2,182.04,68.2z M182.04,55.56c2.24,0,4.32-0.41,6.24-1.24c1.92-0.83,3.59-1.96,5-3.4
			c1.41-1.44,2.52-3.16,3.32-5.16s1.2-4.15,1.2-6.44c0-2.35-0.4-4.51-1.2-6.48c-0.8-1.97-1.91-3.68-3.32-5.12s-3.08-2.57-5-3.4
			c-1.92-0.83-4-1.24-6.24-1.24c-2.24,0-4.32,0.41-6.24,1.24c-1.92,0.83-3.59,1.96-5,3.4c-1.41,1.44-2.52,3.15-3.32,5.12
			c-0.8,1.97-1.2,4.11-1.2,6.4c0,2.35,0.4,4.52,1.2,6.52s1.91,3.72,3.32,5.16c1.41,1.44,3.08,2.57,5,3.4
			C177.72,55.15,179.8,55.56,182.04,55.56z"/>
		<path class="st0" d="M247.16,68.2c-4.21,0-8.13-0.73-11.76-2.2c-3.63-1.47-6.8-3.52-9.52-6.16c-2.72-2.64-4.84-5.71-6.36-9.2
			c-1.52-3.49-2.28-7.27-2.28-11.32c0-4.05,0.76-7.83,2.28-11.32c1.52-3.49,3.64-6.56,6.36-9.2c2.72-2.64,5.89-4.69,9.52-6.16
			c3.63-1.47,7.55-2.2,11.76-2.2s8.13,0.73,11.76,2.2c3.63,1.47,6.8,3.52,9.52,6.16s4.84,5.71,6.36,9.2
			c1.52,3.49,2.28,7.27,2.28,11.32c0,4.05-0.76,7.83-2.28,11.32c-1.52,3.49-3.64,6.56-6.36,9.2c-2.72,2.64-5.89,4.69-9.52,6.16
			C255.29,67.47,251.37,68.2,247.16,68.2z M247.16,55.56c2.24,0,4.32-0.41,6.24-1.24c1.92-0.83,3.59-1.96,5-3.4
			c1.41-1.44,2.52-3.16,3.32-5.16s1.2-4.15,1.2-6.44c0-2.35-0.4-4.51-1.2-6.48c-0.8-1.97-1.91-3.68-3.32-5.12s-3.08-2.57-5-3.4
			c-1.92-0.83-4-1.24-6.24-1.24c-2.24,0-4.32,0.41-6.24,1.24c-1.92,0.83-3.59,1.96-5,3.4c-1.41,1.44-2.52,3.15-3.32,5.12
			c-0.8,1.97-1.2,4.11-1.2,6.4c0,2.35,0.4,4.52,1.2,6.52s1.91,3.72,3.32,5.16c1.41,1.44,3.08,2.57,5,3.4
			C242.84,55.15,244.92,55.56,247.16,55.56z"/>
		<path class="st0" d="M284.36,67.32v-56h29.52c3.68,0,6.95,0.79,9.8,2.36c2.85,1.57,5.11,3.72,6.76,6.44
			c1.65,2.72,2.48,5.84,2.48,9.36c0,3.36-0.83,6.39-2.48,9.08c-1.65,2.69-3.92,4.81-6.8,6.36s-6.13,2.32-9.76,2.32h-15.76v20.08
			H284.36z M298.12,35.88h14.16c2.03,0,3.65-0.59,4.88-1.76c1.23-1.17,1.84-2.69,1.84-4.56c0-1.92-0.61-3.48-1.84-4.68
			c-1.23-1.2-2.85-1.8-4.88-1.8h-14.16V35.88z"/>
		<path class="st0" d="M339.96,67.32v-56h17.36l13.84,26.4L385,11.32h17.36v56H389.4V29.16L371,63.32L352.6,29v38.32H339.96z"/>
		<path class="st0" d="M426.76,67.32V23.48h-18.32V11.32h50.4v12.16h-18.32v43.84H426.76z"/>
	</g>
</g>
</svg>
