<?xml version="1.0" encoding="UTF-8"?>
<svg xmlns="http://www.w3.org/2000/svg" version="1.1" viewBox="0 0 459 80">
  <defs>
    <style>
      .cls-1 {
        fill: #fff;
      }
    </style>
  </defs>
  <!-- Generator: Adobe Illustrator 28.7.1, SVG Export Plug-In . SVG Version: 1.2.0 Build 142)  -->
  <g>
    <g id="Layer_1">
      <g>
        <path class="cls-1" d="M40.4.6C18.3.6.4,18.5.4,40.6s17.9,40,40,40,40-17.9,40-40S62.5.6,40.4.6ZM40.4,76.6c-19.9,0-36-16.1-36-36S20.5,4.6,40.4,4.6s36,16.1,36,36-16.1,36-36,36Z"/>
        <path class="cls-1" d="M46.6,21.6h-12.2,12.2Z"/>
        <path class="cls-1" d="M34.1,24h-2c0,.1,0,.2-.1.4h.1c.1-.1.2-.2.5-.2h.2v1.7q0,.1,0,.2c0,0-.2.1-.3.1h1.1c0,0-.2,0-.3-.1,0,0,0-.1,0-.2v-1.6q0-.1,0-.1h0c.3,0,.4.1.5.2h0c.2,0,.2-.2.2-.4q0,0,0,0h0Z"/>
        <path class="cls-1" d="M36.7,26l-.5-.6c0-.1,0-.2-.2-.2h-.2c.2,0,.3-.1.4-.2,0-.1.2-.2.2-.4s0-.3-.2-.4c-.2-.1-.4-.2-.6-.2h-1q0,.1.2.2s0,.1,0,.2v1.5c0,.1,0,.2,0,.2,0,0,0,.1-.2.1h0c0,.1,1,.1,1,.1h0c0-.1-.2-.1-.3-.2,0,0,0-.1,0-.2v-.6h.3c0,0,.2.1.2.2l.5.6q0,.1.2.2c0,0,.2.1.2.1h.2c0-.2-.1-.3-.1-.4ZM35.3,25.1h0v-.7c0-.1,0-.2,0-.2,0,0,0-.1.2-.1.2,0,.3,0,.4.1,0,.1,0,.2,0,.4s0,.3-.2.3c-.1.2-.2.2-.5.2Z"/>
        <path class="cls-1" d="M39.5,26.1s0-.1,0-.3l-.8-1.8h-.2c0,.1,0,.3-.2.5l-.5,1.3c0,.1,0,.2-.2.3,0,0,0,.1-.2.1h0c0,.1.7.1.7.1h0q0-.1,0-.1h0v-.3h0c0-.1,0-.2,0-.2h1v.4h0q0,.1,0,.1h0c0,.1.9.1.9.1h0c0-.2-.1-.2-.1-.2ZM38.7,25.5h-.8l.4-.9.4.9q0-.1,0,0Z"/>
        <path class="cls-1" d="M41.4,25h0c0,0,.2-.1.3-.2s0-.2,0-.3c0-.2,0-.3-.2-.4,0-.1-.3-.1-.5-.1h-.9c0,.1.2.2.2.2,0,0,0,.1,0,.2v1.4h0c0,.1,0,.2,0,.2h-.2c0,.1.3.1.5.1h.6c.3,0,.5-.1.7-.2s.2-.3.2-.5,0-.3-.2-.4c-.3,0-.4,0-.6,0ZM40.7,24.4v-.2s0,0,.2-.1c0,0,.2,0,.3.1.2.1.2.2.2.4s0,.4-.4.4h-.3v-.6ZM41.5,26c0,.1-.2.1-.4.1h-.3q0-.1,0-.2v-.7h.3c.2,0,.3,0,.4.1,0,.1.2.2.2.4s0,.2-.1.3Z"/>
        <path class="cls-1" d="M44.7,26.1s0-.1-.2-.3l-.8-1.8h-.2c0,.1,0,.3-.2.5l-.5,1.3c0,.1,0,.2,0,.3,0,0,0,.1-.2.1h0c0,.1.7.1.7.1h0c0-.1,0-.1,0-.1h0c0,0,0,0,0-.1v-.2h0c0-.1,0-.2,0-.2h1v.2c0,.1,0,.1,0,.2h0q0,.1,0,.1h0c0,.1.9.1.9.1h0c-.1-.2-.2-.2-.2-.2ZM43.9,25.5h-.8l.4-.9.4.9q0-.1,0,0Z"/>
        <path class="cls-1" d="M46.2,24h-.9q0,.1.2.2c0,0,0,.1,0,.2v1.9c0,.2,0,.3,0,.4s0,.2-.2.2h0c0,.1.3,0,.4-.1,0-.2.2-.3.2-.5v-1.9c0-.1,0-.2,0-.2s.1-.1.2-.2q0,.1,0,0h0Z"/>
        <path class="cls-1" d="M48.7,24.3c-.2-.2-.5-.3-.8-.3s-.6.1-.9.3c-.2.2-.3.5-.3.9s0,.6.3.8c.2.2.5.3.8.3s.6-.1.9-.4c.2-.2.3-.5.3-.9s0-.5-.3-.7ZM48.5,25.7c0,.1,0,.2-.2.2q0,.1-.2.1h-.2c-.2,0-.5-.1-.6-.3-.2-.2-.3-.5-.3-.8s0-.3,0-.4c0-.1,0-.2.2-.2q0-.1.2-.1h.2c.2,0,.5.1.6.3.2.2.3.5.3.8,0,0,0,.3,0,.4Z"/>
        <path class="cls-1" d="M55.9,14.1l-1.1,2.8c-1.7-5.9-6.9-10.2-13.1-10.8h-2.6c-6.2.5-11.4,4.9-13.1,10.7l-1.1-2.8-15.5,39.8h10.5v13.2h10v-13.2h10.5l-7.8-19.9c2.3,1.4,4.9,2.2,7.8,2.2s5.5-.8,7.8-2.2l-7.8,19.9h10.5v13.2h10v-13.2h10.5l-15.5-39.7ZM42.4,13.9c2.2.9,3.8,3.1,3.9,5.6h-.9s0-.6-.2-1.2c0-.5-.2-.9-.3-.9,0-.3-.2-.6-.4-.9-.3-.6-.6-1.1-1.1-1.7-.2-.2-.3-.4-.6-.5,0-.1-.2-.1-.3-.2,0,0,0-.1,0-.1,0,0,0,0,0,0h0ZM44,16.5h0c0,.3.2.5.3.7.3.7.4,1.4.5,2v.3h-1.5v-.3c0-.1,0-.5,0-.9,0-1.4-.6-2.6-1.2-3.5-.2-.3-.5-.6-.5-.7.9.5,1.8,1.3,2.4,2.4ZM42.8,19.5s0,.1,0,0h-2c0,.1,0-5.2,0-5.2h0c1.2.9,1.9,2.9,2,5.2ZM40.5,10.8h0c0-.1-.2-.1-.2-.1h0c0,0,.2,0,.2,0v-.3h0c0,0,0,0,0,0h0v.3h.2c0,.1-.2.1-.2.1h0c.5,0,.9.5.9,1h-1.8c0-.5.4-.9.9-.9ZM39.3,11.9s0-.1,0,0h2.3c0,.1-2.2.1-2.2.1q0,0,0-.1h0ZM41.2,12.2v1.2s0,.1,0,.1h-.2s0,0,0-.1v-1.2s0-.1,0-.1h.3ZM40.7,12.2v1.2s0,.1,0,.1h-.2s0,0,0-.1v-1.2s0-.1,0-.1h.3c0,0,0,0,0,.1ZM40.1,12.2v1.2s0,.1,0,.1h-.2s0,0,0-.1v-1.2s0-.1,0-.1h.3ZM39.3,13.6h2.3c0,.1-2.2.1-2.2.1q0,0,0-.1h0ZM40.2,14.2v5.3h-2c0-2.3.8-4.3,2-5.3h0ZM39.5,14.1c0,.1-.3.3-.5.7-.6,1-1,2.1-1.2,3.5,0,.5,0,.8,0,.9v.3h-1.5v-.3c0-.5.2-1.3.5-2,0-.2.2-.4.3-.6,0,0,0-.1,0-.2.5-1,1.4-1.8,2.4-2.3ZM34.7,19.5c0-2.5,1.7-4.7,3.9-5.6,0,0,0,0-.2.1h0c0,.2-.2.2-.2.3-.2.2-.4.4-.6.5-.5.6-.8,1.1-1.1,1.7-.2.3-.3.6-.4.9,0,0-.2.5-.3.9,0,.5-.2,1.2-.2,1.2h-.8ZM34.4,20h1.2v-.2s0-.1,0-.1h.5s0,0,0,.1v.2h1.4v-.2s0-.1,0-.1h.5s0,0,0,.1v.2h1.9v-.2s0-.1,0-.1h.5s0,0,0,.1v.2h1.9v-.2s0-.1,0-.1h.5s0,0,0,.1v.2h1.4v-.2s0-.1,0-.1h.3s0,0,0,.1v.2h1.2c0,.1-12.3.1-12.3.1h0ZM45.4,20.4v.5s0,.1,0,.1h-.5s0,0,0-.1v-.5s0-.1,0-.1h.6ZM43.4,20.4v.5s0,.1,0,.1h-.5s0,0,0-.1v-.5s0-.1,0-.1h.6c0,.1,0,.1,0,.1ZM40.8,20.4v.5s0,.1,0,.1h-.5s0,0,0-.1v-.5s0-.1,0-.1h.6ZM38.3,20.4v.5s0,.1,0,.1h-.5s0,0,0-.1v-.5s0-.1,0-.1h.6ZM36.2,20.4v.5s0,.1,0,.1h-.5s0,0,0-.1v-.5s0-.1,0-.1h.6ZM48,33.1c-2.2,1.3-4.8,2.1-7.6,2.1s-5.4-.8-7.6-2.1h0c-.2,0-.4-.3-.7-.5l-4.3-11h6.6v-.4s0-.1,0-.1h12.1s0,0,0,.1v.3h0c0,.1,6.4.1,6.4.1l-4.3,11c-.3,0-.6.3-.8.5Z"/>
      </g>
      <path class="cls-1" d="M132.3,7.9c-3.6-1.8-7.7-2.7-12.3-2.7s-8.8.9-12.3,2.8c-3.6,1.8-6.3,4.4-8.3,7.8-1.9,3.3-2.9,7.2-2.9,11.7v25.8c0,4.5,1,8.4,2.9,11.8,1.9,3.4,4.7,6,8.3,7.9,3.6,1.8,7.7,2.8,12.3,2.8s8.8-.9,12.3-2.7c3.6-1.8,6.3-4.4,8.3-7.7,1.9-3.3,2.9-7.1,2.9-11.5v-.3c0-.3-.1-.6-.3-.9-.2-.3-.5-.4-.8-.4l-13.7-.6c-.8,0-1.2.4-1.2,1.1v1.1c0,2.2-.6,3.9-1.9,5.3-1.3,1.3-3,2-5.1,2s-3.8-.7-5.1-2c-1.3-1.3-1.9-3.1-1.9-5.3v-26.8c0-2.2.6-3.9,1.9-5.3,1.3-1.3,3-2,5.1-2s3.8.7,5.1,2c1.3,1.3,1.9,3.1,1.9,5.3v1.1c0,.7.4,1.1,1.2,1.1l13.7-.6c.3,0,.6-.1.8-.4.2-.3.3-.5.3-.9v-.5c0-4.3-1-8.1-2.9-11.4-1.9-3.3-4.7-5.8-8.3-7.6Z"/>
      <path class="cls-1" d="M186,7.9c-3.6-1.9-7.8-2.9-12.5-2.9s-8.9,1-12.5,2.9c-3.6,1.9-6.4,4.6-8.4,8-2,3.5-3,7.5-3,12v24.9c0,4.6,1,8.7,3,12.1,2,3.5,4.8,6.2,8.4,8.1,3.6,1.9,7.8,2.9,12.5,2.9s8.9-1,12.5-2.9c3.6-1.9,6.4-4.6,8.4-8.1,2-3.5,3-7.5,3-12.1v-24.9c0-4.5-1-8.5-3-12-2-3.5-4.8-6.1-8.4-8ZM181.5,53.3c0,2.5-.7,4.5-2,6-1.4,1.5-3.2,2.3-5.5,2.3s-4.1-.8-5.5-2.3c-1.4-1.5-2-3.5-2-6v-25.5c0-2.5.7-4.6,2-6.1,1.4-1.5,3.2-2.3,5.5-2.3s4,.8,5.4,2.3c1.4,1.6,2.1,3.6,2.1,6v25.5Z"/>
      <path class="cls-1" d="M240,7.9c-3.6-1.9-7.8-2.9-12.5-2.9s-8.9,1-12.5,2.9c-3.6,1.9-6.4,4.6-8.4,8-2,3.5-3,7.5-3,12v24.9c0,4.6,1,8.7,3,12.1,2,3.5,4.8,6.2,8.4,8.1,3.6,1.9,7.8,2.9,12.5,2.9s8.9-1,12.5-2.9c3.6-1.9,6.4-4.6,8.4-8.1,2-3.5,3-7.5,3-12.1v-24.9c0-4.5-1-8.5-3-12-2-3.5-4.8-6.1-8.4-8ZM235.5,53.3c0,2.5-.7,4.5-2,6-1.4,1.5-3.2,2.3-5.5,2.3s-4.1-.8-5.5-2.3c-1.4-1.5-2-3.5-2-6v-25.5c0-2.5.7-4.6,2-6.1,1.4-1.5,3.2-2.3,5.5-2.3s4,.8,5.4,2.3c1.4,1.6,2.1,3.6,2.1,6v25.5Z"/>
      <path class="cls-1" d="M295.6,8.3c-3.2-1.8-6.9-2.7-11-2.7h-25c-.3,0-.6.1-.8.3s-.3.5-.3.8v66.6c0,.3.1.6.3.8.2.2.5.3.8.3h13.7c.3,0,.6-.1.8-.3.2-.2.3-.5.3-.8v-24.3c0-.3.2-.5.5-.5h9.6c4.1,0,7.8-.9,11-2.6,3.2-1.7,5.7-4.2,7.4-7.4,1.7-3.2,2.6-6.9,2.6-11.1s-.9-8.1-2.6-11.4c-1.7-3.3-4.2-5.9-7.4-7.7ZM286.9,33.5c-1.4,1.4-3.2,2.1-5.4,2.1h-6.5c-.3,0-.5-.2-.5-.5v-15c0-.3.2-.5.5-.5h6.5c2.2,0,4,.7,5.4,2.2,1.4,1.5,2.1,3.5,2.1,5.9s-.7,4.3-2.1,5.7Z"/>
      <path class="cls-1" d="M348.6,40.9c-2.1-1.5-4.9-3.2-8.5-5.2l-2.9-1.6c-3.1-1.6-5.5-2.8-7-3.7-1.5-.9-2.7-1.8-3.4-2.8-.7-.9-1.1-2-1.1-3.3s.5-3,1.6-4c1-1,2.5-1.5,4.4-1.5s4.2.7,5.6,2c1.4,1.3,2.1,2.9,2.1,4.8v1.7c0,.3.1.6.3.8.2.2.5.3.8.3h13.6c.3,0,.6-.1.8-.3.2-.2.3-.5.3-.8v-1.9c0-4-1-7.6-3-10.7-2-3.1-4.8-5.5-8.3-7.2-3.5-1.7-7.6-2.6-12.1-2.6s-8.3.8-11.7,2.4c-3.4,1.6-6.1,3.8-8,6.8-1.9,2.9-2.9,6.3-2.9,10.2s.9,7.2,2.8,10c1.9,2.8,4.1,5.1,6.7,6.8,2.6,1.7,5.8,3.5,9.5,5.3,3.2,1.6,5.5,2.8,6.8,3.5,1.3.7,2.3,1.5,3.1,2.4.8.9,1.1,1.9,1.1,3.2s-.5,2.8-1.6,3.8c-1,1-2.6,1.6-4.6,1.6s-4.4-.6-5.8-1.9c-1.4-1.3-2.2-2.8-2.2-4.6v-1.8c0-.3-.1-.6-.3-.8-.2-.2-.5-.3-.8-.3h-13.6c-.3,0-.6.1-.8.3-.2.2-.3.5-.3.8v2.5c0,3.9,1,7.3,2.9,10.3,1.9,3,4.7,5.2,8.2,6.9,3.5,1.6,7.6,2.4,12.3,2.4,6.9,0,12.5-1.8,16.8-5.3,4.2-3.5,6.3-8.4,6.3-14.5s-.7-6.1-2.1-8.5c-1.4-2.3-3.2-4.3-5.3-5.7Z"/>
      <path class="cls-1" d="M404.3,6.6h-40.7c-.3,0-.6.1-.8.3-.2.2-.3.5-.3.8v65.6c0,.3.1.6.3.8.2.2.5.3.8.3h40.7c.3,0,.6-.1.8-.3.2-.2.3-.5.3-.8v-11.6c0-.3-.1-.6-.3-.8-.2-.2-.5-.3-.8-.3h-25.3c-.3,0-.5-.2-.5-.5v-13c0-.3.2-.5.5-.5h15.3c.3,0,.6-.1.8-.4.2-.2.3-.5.3-.9v-10.6c0-.3-.1-.6-.3-.8-.2-.2-.5-.3-.8-.3h-15.3c-.3,0-.5-.2-.5-.5v-12c0-.3.2-.5.5-.5h25.3c.3,0,.6-.1.8-.3.2-.2.3-.5.3-.8V7.8c0-.3-.1-.6-.3-.8-.2-.2-.5-.3-.8-.3Z"/>
      <path class="cls-1" d="M458.2,6.9c-.2-.2-.5-.3-.8-.3h-45.7c-.3,0-.6.1-.8.3-.2.2-.3.5-.3.8v10.8c0,.3.1.6.3.8.2.2.5.3.8.3h14.3c.3,0,.5.2.5.5v53.3c0,.3.1.6.3.8.2.2.5.3.8.3h13.7c.3,0,.6-.1.8-.3.2-.2.3-.5.3-.8V20.1c0-.3.2-.5.5-.5h14.3c.3,0,.6-.1.8-.3.2-.2.3-.5.3-.8V7.7c0-.3-.1-.6-.3-.8Z"/>
    </g>
  </g>
</svg>