<?xml version="1.0" encoding="utf-8"?>
<!-- Generator: Adobe Illustrator 28.0.0, SVG Export Plug-In . SVG Version: 6.00 Build 0)  -->
<svg version="1.1" id="Layer_1" xmlns:serif="http://www.serif.com/"
	 xmlns="http://www.w3.org/2000/svg" xmlns:xlink="http://www.w3.org/1999/xlink" x="0px" y="0px" viewBox="0 0 1920 768"
	 style="enable-background:new 0 0 1920 768;" xml:space="preserve">
<style type="text/css">
	.st0{fill:#2F925B;}
	.st1{fill:#71C21B;fill-opacity:0.25;}
	.st2{fill-rule:evenodd;clip-rule:evenodd;fill:#71C21B;fill-opacity:0.25;}
	.st3{fill:none;stroke:#71C21B;stroke-miterlimit:10;}
	.st4{opacity:0.9;fill:#71C21B;fill-opacity:0.25;}
	.st5{opacity:0.7;fill:#71C21B;fill-opacity:0.25;}
	.st6{opacity:0.5;fill:#71C21B;fill-opacity:0.25;}
	.st7{clip-path:url(#SVGID_00000144326446229724985460000017605465116708809354_);}
	.st8{opacity:0.5;fill:#2F925B;fill-opacity:0.25;}
	.st9{clip-path:url(#SVGID_00000045583330843154581180000009684556316750216862_);}
	.st10{fill:#2F925B;fill-opacity:0.25;}
</style>
<circle class="st0" cx="1320.6" cy="368.1" r="242.5"/>
<circle class="st1" cx="1320.6" cy="368.1" r="296.3"/>
<circle class="st1" cx="1320.6" cy="368.1" r="346.9"/>
<path class="st2" d="M1038.8,49.8c0-35.9-29.2-65.1-65.1-65.1s-65.1,29.2-65.1,65.1s29.2,65.1,65.1,65.1c11.8,0,23-3.2,32.6-8.7
	c3.2,2.9,7.5,4.6,12.2,4.6c10.2,0,18.4-8.2,18.4-18.4c0-4.9-2-9.5-5.2-12.8C1036.2,70.6,1038.8,60.5,1038.8,49.8z M1018.4,102.7
	c-1.8,0-3.6-0.5-5-1.3c-2.4-1.3-4.3-3.7-5-6.4c-0.2-0.9-0.3-1.7-0.3-2.6c0-5.7,4.6-10.4,10.4-10.4c0.8,0,1.5,0.1,2.2,0.2
	c2.8,0.6,5.2,2.3,6.7,4.7c1,1.6,1.6,3.4,1.6,5.4C1028.8,98.1,1024.1,102.7,1018.4,102.7z M1024.8,75.1c-2-0.8-4.1-1.1-6.3-1.1
	c-10.2,0-18.4,8.2-18.4,18.4c0,2.6,0.5,5,1.5,7.2c-8.2,4.6-17.6,7.2-27.7,7.2c-31.5,0-56.9-25.5-56.9-56.9s25.5-56.9,56.9-56.9
	s56.9,25.5,56.9,56.9C1030.6,58.9,1028.5,67.5,1024.8,75.1z"/>
<circle class="st1" cx="1593.5" cy="192.5" r="60"/>
<circle class="st3" cx="1964.9" cy="384" r="171.8"/>
<circle class="st0" cx="1593.5" cy="192.5" r="42.4"/>
<circle class="st1" cx="1094.6" cy="180" r="32"/>
<circle class="st0" cx="1094.6" cy="180" r="24.3"/>
<circle class="st1" cx="1518.6" cy="11.9" r="9.3"/>
<circle class="st1" cx="926.2" cy="315.7" r="9.3"/>
<circle class="st1" cx="1792.7" cy="384" r="9.3"/>
<circle class="st4" cx="200.3" cy="108" r="10.3"/>
<circle class="st4" cx="161.9" cy="110.7" r="10.3"/>
<circle class="st4" cx="124.3" cy="118.7" r="10.3"/>
<circle class="st4" cx="88.1" cy="131.9" r="10.3"/>
<circle class="st4" cx="54.1" cy="150" r="10.3"/>
<circle class="st4" cx="22.9" cy="172.6" r="10.3"/>
<circle class="st4" cx="-4.8" cy="199.3" r="10.3"/>
<circle class="st4" cx="-28.5" cy="229.7" r="10.3"/>
<circle class="st4" cx="-47.7" cy="263" r="10.3"/>
<circle class="st4" cx="-62.1" cy="298.7" r="10.3"/>
<circle class="st4" cx="-71.5" cy="336.1" r="10.3"/>
<circle class="st4" cx="-75.5" cy="374.4" r="10.3"/>
<circle class="st4" cx="-74.1" cy="412.9" r="10.3"/>
<circle class="st4" cx="-67.5" cy="450.8" r="10.3"/>
<circle class="st4" cx="-55.6" cy="487.4" r="10.3"/>
<circle class="st4" cx="-38.7" cy="522" r="10.3"/>
<circle class="st4" cx="-17.2" cy="553.9" r="10.3"/>
<circle class="st4" cx="8.6" cy="582.5" r="10.3"/>
<circle class="st4" cx="38.1" cy="607.3" r="10.3"/>
<circle class="st4" cx="70.8" cy="627.7" r="10.3"/>
<circle class="st4" cx="105.9" cy="643.3" r="10.3"/>
<circle class="st4" cx="142.9" cy="654" r="10.3"/>
<circle class="st4" cx="181.1" cy="659.3" r="10.3"/>
<circle class="st4" cx="219.6" cy="659.3" r="10.3"/>
<circle class="st4" cx="257.7" cy="654" r="10.3"/>
<circle class="st4" cx="294.7" cy="643.3" r="10.3"/>
<circle class="st4" cx="329.9" cy="627.7" r="10.3"/>
<circle class="st4" cx="362.5" cy="607.3" r="10.3"/>
<circle class="st4" cx="392" cy="582.5" r="10.3"/>
<circle class="st4" cx="417.8" cy="553.9" r="10.3"/>
<circle class="st4" cx="439.3" cy="522" r="10.3"/>
<circle class="st4" cx="456.2" cy="487.4" r="10.3"/>
<circle class="st4" cx="468.1" cy="450.8" r="10.3"/>
<circle class="st4" cx="474.8" cy="412.9" r="10.3"/>
<circle class="st4" cx="476.1" cy="374.4" r="10.3"/>
<circle class="st4" cx="472.1" cy="336.1" r="10.3"/>
<circle class="st4" cx="462.8" cy="298.7" r="10.3"/>
<circle class="st4" cx="448.4" cy="263" r="10.3"/>
<circle class="st4" cx="429.1" cy="229.7" r="10.3"/>
<circle class="st4" cx="405.4" cy="199.3" r="10.3"/>
<circle class="st4" cx="377.7" cy="172.6" r="10.3"/>
<circle class="st4" cx="346.6" cy="150" r="10.3"/>
<circle class="st4" cx="312.6" cy="131.9" r="10.3"/>
<circle class="st4" cx="276.4" cy="118.7" r="10.3"/>
<circle class="st4" cx="238.7" cy="110.7" r="10.3"/>
<circle class="st5" cx="200.3" cy="60.2" r="8.7"/>
<circle class="st5" cx="164.6" cy="62.2" r="8.7"/>
<circle class="st5" cx="129.3" cy="68.1" r="8.7"/>
<circle class="st5" cx="94.9" cy="77.8" r="8.7"/>
<circle class="st5" cx="61.8" cy="91.3" r="8.7"/>
<circle class="st5" cx="30.3" cy="108.4" r="8.7"/>
<circle class="st5" cx="1" cy="128.8" r="8.7"/>
<circle class="st5" cx="-26" cy="152.4" r="8.7"/>
<circle class="st5" cx="-50.1" cy="178.8" r="8.7"/>
<circle class="st5" cx="-71.3" cy="207.6" r="8.7"/>
<circle class="st5" cx="-89.1" cy="238.7" r="8.7"/>
<circle class="st5" cx="-103.3" cy="271.5" r="8.7"/>
<circle class="st5" cx="-113.9" cy="305.7" r="8.7"/>
<circle class="st5" cx="-120.6" cy="340.8" r="8.7"/>
<circle class="st5" cx="-123.4" cy="376.5" r="8.7"/>
<circle class="st5" cx="-122.3" cy="412.2" r="8.7"/>
<circle class="st5" cx="-117.2" cy="447.6" r="8.7"/>
<circle class="st5" cx="-108.2" cy="482.3" r="8.7"/>
<circle class="st5" cx="-95.5" cy="515.7" r="8.7"/>
<circle class="st5" cx="-79.2" cy="547.5" r="8.7"/>
<circle class="st5" cx="-59.4" cy="577.4" r="8.7"/>
<circle class="st5" cx="-36.5" cy="604.9" r="8.7"/>
<circle class="st5" cx="-10.7" cy="629.6" r="8.7"/>
<circle class="st5" cx="17.7" cy="651.4" r="8.7"/>
<circle class="st5" cx="48.3" cy="669.9" r="8.7"/>
<circle class="st5" cx="80.8" cy="685" r="8.7"/>
<circle class="st5" cx="114.7" cy="696.3" r="8.7"/>
<circle class="st5" cx="149.7" cy="703.8" r="8.7"/>
<circle class="st5" cx="185.3" cy="707.5" r="8.7"/>
<circle class="st5" cx="221" cy="707.2" r="8.7"/>
<circle class="st5" cx="256.6" cy="702.9" r="8.7"/>
<circle class="st5" cx="291.4" cy="694.8" r="8.7"/>
<circle class="st5" cx="325.1" cy="682.8" r="8.7"/>
<circle class="st5" cx="357.3" cy="667.2" r="8.7"/>
<circle class="st5" cx="387.6" cy="648.2" r="8.7"/>
<circle class="st5" cx="415.6" cy="625.9" r="8.7"/>
<circle class="st5" cx="441" cy="600.7" r="8.7"/>
<circle class="st5" cx="463.4" cy="572.8" r="8.7"/>
<circle class="st5" cx="482.6" cy="542.6" r="8.7"/>
<circle class="st5" cx="498.4" cy="510.5" r="8.7"/>
<circle class="st5" cx="510.5" cy="476.9" r="8.7"/>
<circle class="st5" cx="518.9" cy="442.1" r="8.7"/>
<circle class="st5" cx="523.4" cy="406.6" r="8.7"/>
<circle class="st5" cx="523.9" cy="370.8" r="8.7"/>
<circle class="st5" cx="520.4" cy="335.2" r="8.7"/>
<circle class="st5" cx="513.1" cy="300.2" r="8.7"/>
<circle class="st5" cx="502" cy="266.2" r="8.7"/>
<circle class="st5" cx="487.1" cy="233.6" r="8.7"/>
<circle class="st5" cx="468.8" cy="202.9" r="8.7"/>
<circle class="st5" cx="447.2" cy="174.4" r="8.7"/>
<circle class="st5" cx="422.5" cy="148.5" r="8.7"/>
<circle class="st5" cx="395.2" cy="125.4" r="8.7"/>
<circle class="st5" cx="365.5" cy="105.5" r="8.7"/>
<circle class="st5" cx="333.8" cy="89" r="8.7"/>
<circle class="st5" cx="300.4" cy="76" r="8.7"/>
<circle class="st5" cx="265.8" cy="66.9" r="8.7"/>
<circle class="st5" cx="230.4" cy="61.6" r="8.7"/>
<circle class="st6" cx="200.3" cy="18.9" r="7"/>
<circle class="st6" cx="166" cy="20.5" r="7"/>
<circle class="st6" cx="131.9" cy="25.4" r="7"/>
<circle class="st6" cx="98.5" cy="33.4" r="7"/>
<circle class="st6" cx="65.9" cy="44.5" r="7"/>
<circle class="st6" cx="34.6" cy="58.7" r="7"/>
<circle class="st6" cx="4.7" cy="75.7" r="7"/>
<circle class="st6" cx="-23.5" cy="95.5" r="7"/>
<circle class="st6" cx="-49.6" cy="117.8" r="7"/>
<circle class="st6" cx="-73.6" cy="142.5" r="7"/>
<circle class="st6" cx="-95.1" cy="169.4" r="7"/>
<circle class="st6" cx="-114" cy="198.1" r="7"/>
<circle class="st6" cx="-130.1" cy="228.5" r="7"/>
<circle class="st6" cx="-143.2" cy="260.3" r="7"/>
<circle class="st6" cx="-153.3" cy="293.2" r="7"/>
<circle class="st6" cx="-160.3" cy="326.9" r="7"/>
<circle class="st6" cx="-164.1" cy="361.1" r="7"/>
<circle class="st6" cx="-164.6" cy="395.5" r="7"/>
<circle class="st6" cx="-161.9" cy="429.8" r="7"/>
<circle class="st6" cx="-156" cy="463.7" r="7"/>
<circle class="st6" cx="-146.9" cy="496.8" r="7"/>
<circle class="st6" cx="-134.8" cy="529" r="7"/>
<circle class="st6" cx="-119.6" cy="559.9" r="7"/>
<circle class="st6" cx="-101.7" cy="589.2" r="7"/>
<circle class="st6" cx="-81" cy="616.7" r="7"/>
<circle class="st6" cx="-57.9" cy="642.2" r="7"/>
<circle class="st6" cx="-32.4" cy="665.3" r="7"/>
<circle class="st6" cx="-4.9" cy="686" r="7"/>
<circle class="st6" cx="24.4" cy="704" r="7"/>
<circle class="st6" cx="55.3" cy="719.1" r="7"/>
<circle class="st6" cx="87.5" cy="731.3" r="7"/>
<circle class="st6" cx="120.7" cy="740.3" r="7"/>
<circle class="st6" cx="154.6" cy="746.3" r="7"/>
<circle class="st6" cx="188.9" cy="749" r="7"/>
<circle class="st6" cx="223.2" cy="748.4" r="7"/>
<circle class="st6" cx="257.4" cy="744.6" r="7"/>
<circle class="st6" cx="291.1" cy="737.7" r="7"/>
<circle class="st6" cx="324" cy="727.5" r="7"/>
<circle class="st6" cx="355.8" cy="714.4" r="7"/>
<circle class="st6" cx="386.2" cy="698.3" r="7"/>
<circle class="st6" cx="414.9" cy="679.4" r="7"/>
<circle class="st6" cx="441.8" cy="657.9" r="7"/>
<circle class="st6" cx="466.5" cy="634" r="7"/>
<circle class="st6" cx="488.8" cy="607.8" r="7"/>
<circle class="st6" cx="508.6" cy="579.7" r="7"/>
<circle class="st6" cx="525.6" cy="549.8" r="7"/>
<circle class="st6" cx="539.8" cy="518.4" r="7"/>
<circle class="st6" cx="550.9" cy="485.9" r="7"/>
<circle class="st6" cx="559" cy="452.4" r="7"/>
<circle class="st6" cx="563.8" cy="418.4" r="7"/>
<circle class="st6" cx="565.4" cy="384" r="7"/>
<circle class="st6" cx="563.8" cy="349.6" r="7"/>
<circle class="st6" cx="559" cy="315.6" r="7"/>
<circle class="st6" cx="550.9" cy="282.1" r="7"/>
<circle class="st6" cx="539.8" cy="249.6" r="7"/>
<g>
	<defs>
		<rect id="SVGID_1_" x="1721.3" y="108.9" width="98.2" height="97.6"/>
	</defs>
	<clipPath id="SVGID_00000162333350841001652890000008035256851043656578_">
		<use xlink:href="#SVGID_1_"  style="overflow:visible;"/>
	</clipPath>
	<g style="clip-path:url(#SVGID_00000162333350841001652890000008035256851043656578_);">
		<g id="_x3C_Grid_Repeat_x3E__00000078034075346249775420000003356483123212434319_">
			<circle class="st8" cx="1726.2" cy="113.8" r="4.9"/>
		</g>
		<g id="_x3C_Grid_Repeat_x3E__00000144300442014656935500000011344602311795661724_">
			<circle class="st8" cx="1743.6" cy="113.8" r="4.9"/>
		</g>
		<g id="_x3C_Grid_Repeat_x3E__00000075861198548464294850000011390853694445881502_">
			<circle class="st8" cx="1761" cy="113.8" r="4.9"/>
		</g>
		<g id="_x3C_Grid_Repeat_x3E__00000126325197096010402200000005556333333340183961_">
			<circle class="st8" cx="1778.5" cy="113.8" r="4.9"/>
		</g>
		<g id="_x3C_Grid_Repeat_x3E__00000090994059832003435150000004914557562902980745_">
			<circle class="st8" cx="1795.9" cy="113.8" r="4.9"/>
		</g>
		<g id="_x3C_Grid_Repeat_x3E__00000052080048424337544680000008744391217987065018_">
			<circle class="st8" cx="1813.3" cy="113.8" r="4.9"/>
		</g>
		<g id="_x3C_Grid_Repeat_x3E__00000015343376358898161220000017705601259889569706_">
			<circle class="st8" cx="1726.2" cy="131.2" r="4.9"/>
		</g>
		<g id="_x3C_Grid_Repeat_x3E__00000005255902104640238550000013170574100465711266_">
			<circle class="st8" cx="1743.6" cy="131.2" r="4.9"/>
		</g>
		<g id="_x3C_Grid_Repeat_x3E__00000089558213065409310480000003892172929024790714_">
			<circle class="st8" cx="1761" cy="131.2" r="4.9"/>
		</g>
		<g id="_x3C_Grid_Repeat_x3E__00000174568569198487547330000007449554672501996989_">
			<circle class="st8" cx="1778.5" cy="131.2" r="4.9"/>
		</g>
		<g id="_x3C_Grid_Repeat_x3E__00000141455740315917250820000004733093229789157258_">
			<circle class="st8" cx="1795.9" cy="131.2" r="4.9"/>
		</g>
		<g id="_x3C_Grid_Repeat_x3E__00000039840395941078512380000002904639555746076344_">
			<circle class="st8" cx="1813.3" cy="131.2" r="4.9"/>
		</g>
		<g id="_x3C_Grid_Repeat_x3E__00000093156978143408978820000008210428222117722770_">
			<circle class="st8" cx="1726.2" cy="148.6" r="4.9"/>
		</g>
		<g id="_x3C_Grid_Repeat_x3E__00000163778097755157379770000011698896227235839931_">
			<circle class="st8" cx="1743.6" cy="148.6" r="4.9"/>
		</g>
		<g id="_x3C_Grid_Repeat_x3E__00000147204621096919524630000017696705630857268109_">
			<circle class="st8" cx="1761" cy="148.6" r="4.9"/>
		</g>
		<g id="_x3C_Grid_Repeat_x3E__00000156580837972700611210000007221111053760120482_">
			<circle class="st8" cx="1778.5" cy="148.6" r="4.9"/>
		</g>
		<g id="_x3C_Grid_Repeat_x3E__00000090987414531544492710000005769174929165175695_">
			<circle class="st8" cx="1795.9" cy="148.6" r="4.9"/>
		</g>
		<g id="_x3C_Grid_Repeat_x3E__00000108281755284056674570000015811943595796005282_">
			<circle class="st8" cx="1813.3" cy="148.6" r="4.9"/>
		</g>
		<g id="_x3C_Grid_Repeat_x3E__00000024713683818619356650000009588646643585425042_">
			<circle class="st8" cx="1726.2" cy="166.1" r="4.9"/>
		</g>
		<g id="_x3C_Grid_Repeat_x3E__00000150784626798000340860000002668128975577622407_">
			<circle class="st8" cx="1743.6" cy="166.1" r="4.9"/>
		</g>
		<g id="_x3C_Grid_Repeat_x3E__00000080166129155009486150000014663312177788846757_">
			<circle class="st8" cx="1761" cy="166.1" r="4.9"/>
		</g>
		<g id="_x3C_Grid_Repeat_x3E__00000137106830100090825650000008750369540502214792_">
			<circle class="st8" cx="1778.5" cy="166.1" r="4.9"/>
		</g>
		<g id="_x3C_Grid_Repeat_x3E__00000117634671413805175500000009972186227012470434_">
			<circle class="st8" cx="1795.9" cy="166.1" r="4.9"/>
		</g>
		<g id="_x3C_Grid_Repeat_x3E__00000095326587201788696440000004209853911268750215_">
			<circle class="st8" cx="1813.3" cy="166.1" r="4.9"/>
		</g>
		<g id="_x3C_Grid_Repeat_x3E__00000080921203149185153120000013803903535672340134_">
			<circle class="st8" cx="1726.2" cy="183.5" r="4.9"/>
		</g>
		<g id="_x3C_Grid_Repeat_x3E__00000036227258317233565430000012973899005676490123_">
			<circle class="st8" cx="1743.6" cy="183.5" r="4.9"/>
		</g>
		<g id="_x3C_Grid_Repeat_x3E__00000023991090070012962850000015052762830404415135_">
			<circle class="st8" cx="1761" cy="183.5" r="4.9"/>
		</g>
		<g id="_x3C_Grid_Repeat_x3E__00000029762397947121097610000015470859878137705624_">
			<circle class="st8" cx="1778.5" cy="183.5" r="4.9"/>
		</g>
		<g id="_x3C_Grid_Repeat_x3E__00000011735465089172955170000008713708283042542474_">
			<circle class="st8" cx="1795.9" cy="183.5" r="4.9"/>
		</g>
		<g id="_x3C_Grid_Repeat_x3E__00000027599954016208901870000017399468961799677351_">
			<circle class="st8" cx="1813.3" cy="183.5" r="4.9"/>
		</g>
		<g id="_x3C_Grid_Repeat_x3E__00000040566188735561415400000014225784243764027011_">
			<circle class="st8" cx="1726.2" cy="200.9" r="4.9"/>
		</g>
		<g id="_x3C_Grid_Repeat_x3E__00000095307062802494938280000009314941381288696754_">
			<circle class="st8" cx="1743.6" cy="200.9" r="4.9"/>
		</g>
		<g id="_x3C_Grid_Repeat_x3E__00000056389289117904357730000000300088149304863638_">
			<circle class="st8" cx="1761" cy="200.9" r="4.9"/>
		</g>
		<g id="_x3C_Grid_Repeat_x3E__00000026140035717669606940000016187422380929296542_">
			<circle class="st8" cx="1778.5" cy="200.9" r="4.9"/>
		</g>
		<g id="_x3C_Grid_Repeat_x3E__00000101077869476834516580000005982746410821255087_">
			<circle class="st8" cx="1795.9" cy="200.9" r="4.9"/>
		</g>
		<g id="_x3C_Grid_Repeat_x3E__00000147899133571176313890000003479497432844969090_">
			<circle class="st8" cx="1813.3" cy="200.9" r="4.9"/>
		</g>
	</g>
</g>
<g>
	<defs>
		<rect id="SVGID_00000039846969074423515060000002391640714411084989_" x="905.8" y="566.6" width="63.7" height="64.8"/>
	</defs>
	<clipPath id="SVGID_00000127754258620819753180000013595839482907803297_">
		<use xlink:href="#SVGID_00000039846969074423515060000002391640714411084989_"  style="overflow:visible;"/>
	</clipPath>
	<g style="clip-path:url(#SVGID_00000127754258620819753180000013595839482907803297_);">
		<g id="_x3C_Grid_Repeat_x3E__00000110471857817171775210000014484817325371464601_">
			<circle class="st10" cx="910.7" cy="571.4" r="4.9"/>
		</g>
		<g id="_x3C_Grid_Repeat_x3E__00000101089870649587970020000006648356143342989756_">
			<circle class="st10" cx="928.1" cy="571.4" r="4.9"/>
		</g>
		<g id="_x3C_Grid_Repeat_x3E__00000083797317335815205130000013279121059462934190_">
			<circle class="st10" cx="945.5" cy="571.4" r="4.9"/>
		</g>
		<g id="_x3C_Grid_Repeat_x3E__00000131340968226859220080000000611237895460646026_">
			<circle class="st10" cx="962.9" cy="571.4" r="4.9"/>
		</g>
		<g id="_x3C_Grid_Repeat_x3E__00000124159383271218956170000001110363806189830825_">
			<circle class="st10" cx="910.7" cy="588.8" r="4.9"/>
		</g>
		<g id="_x3C_Grid_Repeat_x3E__00000075880665925955217330000005952657039916237746_">
			<circle class="st10" cx="928.1" cy="588.8" r="4.9"/>
		</g>
		<g id="_x3C_Grid_Repeat_x3E__00000179643768663024776350000012816421212747542678_">
			<circle class="st10" cx="945.5" cy="588.8" r="4.9"/>
		</g>
		<g id="_x3C_Grid_Repeat_x3E__00000159428957500523999160000009518148756275925694_">
			<circle class="st10" cx="962.9" cy="588.8" r="4.9"/>
		</g>
		<g id="_x3C_Grid_Repeat_x3E__00000042737639602068335590000016596654140858820480_">
			<circle class="st10" cx="910.7" cy="606.3" r="4.9"/>
		</g>
		<g id="_x3C_Grid_Repeat_x3E__00000141446140033888308330000012525319321733680275_">
			<circle class="st10" cx="928.1" cy="606.3" r="4.9"/>
		</g>
		<g id="_x3C_Grid_Repeat_x3E__00000012460938804827987880000007593649820036086200_">
			<circle class="st10" cx="945.5" cy="606.3" r="4.9"/>
		</g>
		<g id="_x3C_Grid_Repeat_x3E__00000155837099376326290920000000036113587034138533_">
			<circle class="st10" cx="962.9" cy="606.3" r="4.9"/>
		</g>
		<g id="_x3C_Grid_Repeat_x3E__00000008842818193063312130000017377687923131590563_">
			<circle class="st10" cx="910.7" cy="623.7" r="4.9"/>
		</g>
		<g id="_x3C_Grid_Repeat_x3E__00000167382689245685180560000011025348971733230268_">
			<circle class="st10" cx="928.1" cy="623.7" r="4.9"/>
		</g>
		<g id="_x3C_Grid_Repeat_x3E__00000036939535061891243580000001792790630757048450_">
			<circle class="st10" cx="945.5" cy="623.7" r="4.9"/>
		</g>
		<g id="_x3C_Grid_Repeat_x3E__00000013168385064848809980000001590242492910982831_">
			<circle class="st10" cx="962.9" cy="623.7" r="4.9"/>
		</g>
	</g>
</g>
<circle class="st6" cx="525.6" cy="218.2" r="7"/>
<circle class="st6" cx="508.6" cy="188.4" r="7"/>
<circle class="st6" cx="488.8" cy="160.2" r="7"/>
<circle class="st6" cx="466.5" cy="134.1" r="7"/>
<circle class="st6" cx="441.8" cy="110.1" r="7"/>
<circle class="st6" cx="414.9" cy="88.6" r="7"/>
<circle class="st6" cx="386.2" cy="69.7" r="7"/>
<circle class="st6" cx="355.8" cy="53.6" r="7"/>
<circle class="st6" cx="324" cy="40.5" r="7"/>
<circle class="st6" cx="291.1" cy="30.4" r="7"/>
<circle class="st6" cx="257.4" cy="23.4" r="7"/>
<circle class="st6" cx="223.2" cy="19.6" r="7"/>
<path class="st1" d="M820.1,704.6l11.5-58.7c0.6-3.2-2.4-6-5.6-5l-53.8,16.4c-3.2,1-4.2,4.9-1.8,7.3l42.3,42.3
	C815.2,709.3,819.4,708,820.1,704.6z"/>
<path class="st1" d="M1687.7,539.2l-27.5-14.6c-2.9-1.6-6.4,0.6-6.4,3.9v29.2c0,3.3,3.5,5.4,6.4,3.9l27.5-14.6
	C1690.8,545.3,1690.8,540.9,1687.7,539.2z"/>
<polygon class="st1" points="1078.1,32.1 1061.5,63.4 1094.7,63.4 "/>
</svg>
